<svg width="75" height="69" viewBox="0 0 75 69" fill="none" xmlns="http://www.w3.org/2000/svg">
<circle cx="32.0005" cy="32.0002" r="32" fill="#EFE9DA"></circle>
<g clip-path="url(#clip0_651_136)">
<path d="M69.3755 50.7666V46.4065C69.3755 46.2915 69.3616 46.1769 69.3334 46.0656L66.8669 36.1991C68.3431 35.5417 69.3755 34.0615 69.3755 32.344C69.3755 30.0178 67.4829 28.1252 65.1567 28.1252H53.9067C53.13 28.1252 52.5005 28.7548 52.5005 29.5315C52.5005 30.3082 53.13 30.9377 53.9067 30.9377H58.1255V35.1565C58.1255 35.1646 58.1266 35.1726 58.1266 35.1807C58.1284 35.2733 58.1409 35.3788 58.1628 35.4747C58.1647 35.4824 58.1658 35.4897 58.1676 35.4974L60.7867 45.9751L56.1366 50.6252H52.328C51.9508 47.2275 50.2234 44.2319 47.6954 42.1877H48.188C48.9647 42.1877 49.5942 41.5582 49.5942 40.7815C49.5942 40.0048 48.9647 39.3752 48.188 39.3752H43.9692V26.719C43.9692 25.9423 43.3397 25.3127 42.563 25.3127H28.4067C27.63 25.3127 27.0005 25.9423 27.0005 26.719V40.7815C27.0005 41.5582 27.63 42.1877 28.4067 42.1877H32.7192V50.775C30.9805 52.5511 29.9067 54.9806 29.9067 57.6565C29.9067 58.4332 30.5363 59.0627 31.313 59.0627H32.8606C33.5139 62.2682 36.355 64.6877 39.7505 64.6877C43.146 64.6877 45.9871 62.2682 46.6404 59.0627C47.0253 59.0627 57.8812 59.0627 58.2672 59.0627C58.9202 62.2682 61.7612 64.6877 65.1567 64.6877C68.5526 64.6877 71.3933 62.2682 72.0466 59.0627H73.5942C74.371 59.0627 75.0005 58.4332 75.0005 57.6565C75.0005 54.261 72.5809 51.4199 69.3755 50.7666ZM71.947 56.2502H63.9915C64.5719 54.6133 66.1356 53.4377 67.9692 53.4377C69.8029 53.4377 71.3666 54.6133 71.947 56.2502ZM66.563 32.344C66.563 33.1193 65.932 33.7502 65.1567 33.7502H60.938V30.9377H65.1567C65.932 30.9377 66.563 31.5687 66.563 32.344ZM63.7084 46.0656L61.3328 36.5627H64.0588L66.563 46.5797V50.767C63.812 51.3273 61.64 53.4993 61.0793 56.2502H49.5942V53.4377H56.7192C57.0778 53.4377 57.4443 53.2953 57.7139 53.0258L63.3385 47.4008C63.6879 47.0518 63.8281 46.5446 63.7084 46.0656ZM41.1567 28.1252V30.9377H29.813V28.1252H41.1567ZM29.813 39.3752V33.7502H41.1567V39.3752H29.813ZM39.7505 42.1877C44.7009 42.1877 48.8087 45.8612 49.4935 50.6252H48.8376C47.8632 48.9458 46.0468 47.8127 43.9692 47.8127H39.7505C38.2417 47.8127 36.8109 48.1544 35.5317 48.7638V42.1877H39.7505ZM39.7505 61.8752C37.9172 61.8752 36.3542 60.6807 35.7734 59.0441H43.7275C43.1467 60.6807 41.5837 61.8752 39.7505 61.8752ZM32.8606 56.2502C33.5139 53.0448 36.355 50.6252 39.7505 50.6252H43.9692C45.5201 50.6252 46.7817 51.8868 46.7817 53.4377V56.2502H32.8606ZM65.1567 61.8752C63.3235 61.8752 61.7605 60.6807 61.1797 59.0441H69.1338C68.553 60.6807 66.99 61.8752 65.1567 61.8752Z" fill="#C33130"></path>
</g>
<defs>
<clipPath id="clip0_651_136">
<rect width="48" height="48" fill="white" transform="translate(27.0005 21.0002)"></rect>
</clipPath>
</defs>
</svg>