<svg width="20" height="20" viewBox="0 0 20 20" fill="none" xmlns="http://www.w3.org/2000/svg">
<path d="M5.80451 4.48936L17.7143 10L5.80451 15.5106L7.22556 11.8617H4.04511C3.09774 11.8617 2.35338 11.0426 2.35338 10C2.35338 8.95745 3.09774 8.1383 4.04511 8.1383H7.22556L5.80451 4.48936ZM5.80451 3C5.46617 3 5.12782 3.14894 4.85714 3.44681C4.45113 3.89362 4.31579 4.48936 4.5188 5.08511L5.12782 6.64894H4.04511C2.35338 6.64894 1 8.1383 1 10C1 11.8617 2.35338 13.3511 4.04511 13.3511H5.12782L4.5188 14.9149C4.31579 15.4362 4.38346 16.1064 4.78947 16.5532C5.06015 16.8511 5.3985 17 5.73684 17C5.93985 17 6.07519 16.9255 6.2782 16.8511L18.188 11.3404C18.6617 11.117 19 10.5957 19 10C19 9.40426 18.6617 8.88298 18.188 8.65957L6.34586 3.14894C6.14286 3.07447 5.93985 3 5.80451 3Z" fill="white"></path>
</svg>