<svg width="74" height="69" viewBox="0 0 74 69" fill="none" xmlns="http://www.w3.org/2000/svg">
<circle cx="32" cy="32.0002" r="32" fill="#EFE9DA"></circle>
<g clip-path="url(#clip0_651_134)">
<path d="M72.5931 54.937H70.4302C70.8624 54.1918 71.1297 53.3393 71.1784 52.4292C71.6083 52.3974 72.0972 52.2494 72.6388 51.9143C73.2918 51.5108 73.732 50.875 73.9114 50.0759C74.3234 48.2416 73.2186 45.5855 72.2239 43.687H72.5931C73.3698 43.687 73.9993 43.0575 73.9993 42.2811C73.9993 32.2008 65.7566 24.0002 55.625 24.0002H44.375C34.2434 24.0002 26.0008 32.2008 26.0008 42.2811C26.0008 43.0575 26.6303 43.687 27.407 43.687H27.7761C26.7815 45.5855 25.6763 48.2416 26.0886 50.0759C26.2681 50.875 26.7083 51.5108 27.3612 51.9143C27.9029 52.2494 28.3917 52.397 28.8217 52.4289C28.8704 53.3389 29.1377 54.1914 29.5698 54.937H27.407C26.6303 54.937 26.0008 55.5666 26.0008 56.3433C26.0008 61.7709 30.4165 66.1867 35.8441 66.1867H64.1559C69.5835 66.1867 73.9993 61.7709 73.9993 56.3433C73.9993 55.5666 73.3698 54.937 72.5931 54.937ZM44.375 26.8127H55.625C63.7293 26.8127 70.4064 33.0017 71.1231 40.8749H28.877C29.5936 33.0017 36.2708 26.8127 44.375 26.8127ZM29.3084 48.9795C29.1905 49.1601 29.0286 49.4087 28.9055 49.5607C28.8894 49.5519 28.8718 49.5416 28.8532 49.5303C28.7532 49.327 28.714 48.3258 29.7277 46.1117C30.1686 45.1482 30.6692 44.2576 31.0069 43.687H68.9936C69.3276 44.251 69.8209 45.1284 70.2607 46.0861C71.2861 48.317 71.2476 49.3259 71.1469 49.5303C71.1282 49.5416 71.1106 49.5519 71.0945 49.5607C70.9715 49.4087 70.8093 49.1601 70.6917 48.9795C70.0867 48.0519 69.0741 46.4995 66.9684 46.4995C64.9795 46.4995 63.9289 47.5506 63.1617 48.3178C62.4721 49.0073 62.1341 49.312 61.3434 49.312C60.5418 49.312 60.1672 48.9839 59.4622 48.3017C58.6763 47.541 57.6 46.4995 55.625 46.4995C53.6361 46.4995 52.5855 47.5506 51.8183 48.3178C51.1287 49.0073 50.7907 49.312 50 49.312C49.2094 49.312 48.8714 49.0073 48.1818 48.3178C47.4146 47.5506 46.3639 46.4995 44.375 46.4995C42.4001 46.4995 41.3238 47.541 40.5379 48.3017C39.8329 48.9839 39.4583 49.312 38.6566 49.312C37.866 49.312 37.528 49.0073 36.8384 48.3178C36.0712 47.5506 35.0205 46.4995 33.0316 46.4995C30.9259 46.4999 29.9134 48.0523 29.3084 48.9795ZM68.3747 52.1245C68.3747 53.6754 67.1127 54.937 65.5622 54.937H34.4379C32.8874 54.937 31.6254 53.6754 31.6254 52.1245C31.6254 50.8439 32.4783 49.7438 33.6883 49.4127C34.0797 49.5526 34.3852 49.8419 34.8499 50.3063C35.6171 51.0735 36.6678 52.1245 38.6566 52.1245C40.632 52.1245 41.7079 51.083 42.4938 50.3224C43.1988 49.6402 43.5734 49.312 44.375 49.312C45.1657 49.312 45.5037 49.6171 46.1933 50.3063C46.9605 51.0735 48.0115 52.1245 50 52.1245C51.9886 52.1245 53.0396 51.0735 53.8068 50.3063C54.4964 49.6171 54.8344 49.312 55.625 49.312C56.4267 49.312 56.8009 49.6402 57.5063 50.3224C58.2922 51.083 59.3681 52.1245 61.3434 52.1245C63.3323 52.1245 64.383 51.0735 65.1502 50.3063C65.6149 49.8419 65.9203 49.5526 66.3118 49.4127C67.5218 49.7438 68.3747 50.8439 68.3747 52.1245ZM35.8441 63.3742C32.4486 63.3742 29.6076 60.9546 28.9542 57.7495H43.9063L51.4063 63.3742H35.8441ZM48.5938 57.7495H62.7215L55.6283 63.0252L48.5938 57.7495ZM64.1559 63.3742H59.8716L67.4339 57.7305H71.0458C70.3925 60.9359 67.5514 63.3742 64.1559 63.3742Z" fill="#C33130"></path>
<path d="M45.7814 31.0315C45.7814 31.8079 45.1519 32.4377 44.3751 32.4377C43.5988 32.4377 42.9692 31.8079 42.9692 31.0315C42.9692 30.2548 43.5988 29.6252 44.3751 29.6252C45.1519 29.6252 45.7814 30.2548 45.7814 31.0315Z" fill="#C33130"></path>
<path d="M59.937 33.8436C59.937 34.6204 59.3075 35.2499 58.5308 35.2499C57.7544 35.2499 57.1245 34.6204 57.1245 33.8436C57.1245 33.0673 57.7544 32.4377 58.5308 32.4377C59.3075 32.4377 59.937 33.0673 59.937 33.8436Z" fill="#C33130"></path>
<path d="M40.063 33.8436C40.063 34.6204 39.4335 35.2499 38.6567 35.2499C37.88 35.2499 37.2505 34.6204 37.2505 33.8436C37.2505 33.0673 37.88 32.4377 38.6567 32.4377C39.4335 32.4377 40.063 33.0673 40.063 33.8436Z" fill="#C33130"></path>
<path d="M54.2188 31.0315C54.2188 31.8079 53.5889 32.4377 52.8125 32.4377C52.0358 32.4377 51.4062 31.8079 51.4062 31.0315C51.4062 30.2548 52.0358 29.6252 52.8125 29.6252C53.5889 29.6252 54.2188 30.2548 54.2188 31.0315Z" fill="#C33130"></path>
<path d="M51.4063 36.6563C51.4063 37.433 50.7767 38.0625 50 38.0625C49.2233 38.0625 48.5938 37.433 48.5938 36.6563C48.5938 35.8799 49.2233 35.25 50 35.25C50.7767 35.25 51.4063 35.8799 51.4063 36.6563Z" fill="#C33130"></path>
</g>
<defs>
<clipPath id="clip0_651_134">
<rect width="48" height="48" fill="white" transform="translate(26 21.0002)"></rect>
</clipPath>
</defs>
</svg>