<svg width="393" height="238" viewBox="0 0 393 238" fill="none" xmlns="http://www.w3.org/2000/svg">
<path d="M156.448 0.959994C156.688 0.959994 156.568 1.07999 156.088 1.31999H153.928C153.088 1.31999 152.668 1.31999 152.668 1.31999C152.788 1.19999 153.028 1.13999 153.388 1.13999C153.868 1.01999 154.408 0.959994 155.008 0.959994C155.608 0.959994 156.088 0.959994 156.448 0.959994ZM162.208 1.13999C162.688 1.13999 163.168 1.25999 163.648 1.49999C164.368 1.85999 164.488 2.03999 164.008 2.03999C163.408 2.03999 162.868 1.85999 162.388 1.49999C162.028 1.25999 161.968 1.13999 162.208 1.13999ZM160.408 1.13999C160.528 1.13999 160.588 1.19999 160.588 1.31999C160.828 1.43999 160.708 1.49999 160.228 1.49999C159.748 1.49999 159.628 1.43999 159.868 1.31999C159.988 1.31999 160.048 1.31999 160.048 1.31999C160.168 1.19999 160.288 1.13999 160.408 1.13999ZM153.928 1.31999C154.288 1.43999 155.308 1.49999 156.988 1.49999C160.828 1.73999 163.768 2.15999 165.808 2.75999C167.968 3.23999 170.008 4.25999 171.928 5.82C172.768 6.53999 173.488 7.31999 174.088 8.15999C174.808 8.87999 175.288 9.41999 175.528 9.77999C176.008 10.62 176.428 11.82 176.788 13.38C177.268 14.94 177.628 16.56 177.868 18.24C178.228 19.8 178.408 21.3 178.408 22.74C178.408 24.06 178.288 24.9 178.048 25.26C177.928 25.38 177.808 25.56 177.688 25.8C177.568 26.04 177.628 26.28 177.868 26.52C177.868 26.76 177.808 27.12 177.688 27.6C177.568 27.96 177.448 28.38 177.328 28.86C176.968 29.94 176.908 30.48 177.148 30.48C177.268 30.48 177.508 30.06 177.868 29.22C178.108 28.62 178.288 28.32 178.408 28.32C178.528 28.32 178.348 29.22 177.868 31.02C177.628 32.22 177.328 32.94 176.968 33.18C177.088 32.82 177.208 32.46 177.328 32.1C177.448 31.74 177.448 31.56 177.328 31.56C176.968 31.56 176.788 31.92 176.788 32.64C175.948 34.08 175.768 34.8 176.248 34.8C176.248 34.8 176.308 34.74 176.428 34.62C175.828 36.3 174.508 39.3 172.468 43.62C170.548 47.82 167.308 53.04 162.748 59.28C158.188 65.4 152.008 72.42 144.208 80.34C136.408 88.14 126.448 96.54 114.328 105.54C106.648 111.18 100.228 115.5 95.0681 118.5C90.0281 121.5 86.2481 123.72 83.7281 125.16C81.2081 126.6 79.9481 127.56 79.9481 128.04C79.9481 128.4 81.3281 128.82 84.0881 129.3L82.4681 128.4C81.0281 127.8 80.6081 127.5 81.2081 127.5C81.5681 127.5 82.2281 127.68 83.1881 128.04C84.268 128.28 85.408 128.64 86.6081 129.12C87.9281 129.48 89.1281 129.9 90.208 130.38C91.2881 130.86 92.0681 131.22 92.5481 131.46C92.7881 131.7 93.0881 131.94 93.4481 132.18C93.9281 132.3 94.2881 132.36 94.5281 132.36C95.248 132.36 95.608 132.6 95.608 133.08C95.608 133.56 95.788 133.8 96.1481 133.8C96.7481 134.04 97.5281 134.58 98.4881 135.42C99.448 136.26 100.108 136.68 100.468 136.68C100.828 136.68 101.008 136.92 101.008 137.4C101.008 137.64 101.068 137.82 101.188 137.94C100.348 137.34 99.628 136.8 99.028 136.32C98.428 135.84 98.008 135.6 97.7681 135.6L100.648 138.12C101.368 138.72 102.028 139.38 102.628 140.1C103.228 140.7 103.648 141.12 103.888 141.36C104.008 141.72 104.188 141.9 104.428 141.9H104.608C104.848 141.66 104.608 141.18 103.888 140.46C103.168 139.74 102.328 138.96 101.368 138.12L101.548 138.3C101.788 138.3 102.208 138.6 102.808 139.2C103.408 139.68 104.008 140.28 104.608 141C105.328 141.6 105.868 142.26 106.228 142.98C106.708 143.58 106.948 143.94 106.948 144.06C106.948 144.66 107.128 145.14 107.488 145.5C107.968 145.86 108.088 146.16 107.848 146.4C107.728 146.52 107.848 146.88 108.208 147.48C108.448 147.96 108.508 148.5 108.388 149.1C108.268 149.58 108.268 149.82 108.388 149.82C108.388 149.82 108.508 149.7 108.748 149.46C108.988 149.22 109.108 149.1 109.108 149.1C109.108 149.1 109.168 149.22 109.288 149.46V151.62C109.288 152.22 109.408 152.52 109.648 152.52H109.828L110.008 152.34C110.128 152.34 110.128 152.7 110.008 153.42C109.768 154.02 109.768 154.32 110.008 154.32L110.188 154.14C110.308 154.14 110.428 154.08 110.548 153.96C111.028 153.96 110.908 154.2 110.188 154.68C109.948 155.04 109.948 155.22 110.188 155.22C110.308 155.1 110.428 155.04 110.548 155.04C110.668 155.04 110.728 155.1 110.728 155.22C110.728 155.46 110.548 155.7 110.188 155.94C109.948 156.06 109.828 156.3 109.828 156.66V156.84C110.068 156.84 110.188 156.72 110.188 156.48L110.728 155.94C111.088 155.94 111.088 156.78 110.728 158.46C110.368 159.78 109.768 161.28 108.928 162.96C108.208 164.64 107.728 165.48 107.488 165.48C107.368 165.6 107.308 165.72 107.308 165.84C107.188 165.96 107.128 166.08 107.128 166.2C107.128 166.44 106.768 166.98 106.048 167.82C105.448 168.54 104.668 169.38 103.708 170.34C102.748 171.3 101.728 172.2 100.648 173.04C99.568 174 98.668 174.72 97.9481 175.2C94.9481 177.12 91.2281 178.86 86.788 180.42C82.348 181.98 77.488 183.3 72.208 184.38C67.048 185.58 61.648 186.48 56.008 187.08C50.368 187.68 44.848 187.98 39.448 187.98C34.888 187.98 30.568 187.74 26.488 187.26C22.408 186.78 18.688 186.06 15.328 185.1C12.088 184.14 9.26805 182.88 6.86805 181.32C4.58805 179.76 2.90805 177.9 1.82805 175.74C1.58805 175.26 1.34805 174.6 1.10805 173.76C0.988047 172.92 0.868047 172.08 0.748047 171.24C0.748047 170.52 0.748047 169.86 0.748047 169.26C0.868047 168.78 1.04805 168.54 1.28805 168.54C1.64805 168.54 1.82805 168.72 1.82805 169.08C1.82805 169.32 1.88805 169.44 2.00805 169.44C2.00805 169.44 2.12805 169.32 2.36805 169.08L2.72805 168.72C2.72805 168.72 2.84805 168.9 3.08805 169.26C3.20805 169.86 3.50805 170.4 3.98805 170.88C4.46805 171.36 4.82805 171.6 5.06805 171.6C5.06805 171.6 5.00805 171.54 4.88805 171.42C4.76805 170.94 4.76805 170.7 4.88805 170.7C5.24805 170.7 5.60805 171 5.96805 171.6C6.44805 172.32 7.70805 173.04 9.74805 173.76C11.908 174.6 14.548 175.26 17.668 175.74C20.908 176.34 24.628 176.82 28.828 177.18C33.028 177.54 37.468 177.72 42.148 177.72C48.388 177.72 54.868 177.3 61.5881 176.46C68.3081 175.74 75.0281 174.54 81.7481 172.86C85.8281 171.78 89.6681 170.16 93.268 168C96.8681 165.84 99.6881 163.38 101.728 160.62C103.768 157.86 104.788 154.86 104.788 151.62C104.908 148.38 103.468 145.2 100.468 142.08C99.1481 140.76 98.0681 139.74 97.228 139.02C96.3881 138.18 95.6681 137.58 95.0681 137.22C94.4681 136.74 93.8681 136.38 93.268 136.14C92.7881 135.78 92.1881 135.42 91.468 135.06C90.868 134.7 89.9081 134.28 88.5881 133.8C87.2681 133.2 85.8281 132.66 84.268 132.18C82.8281 131.58 81.4481 131.1 80.128 130.74C78.9281 130.26 78.0881 130.02 77.608 130.02H77.4281C76.8281 130.14 76.0481 131.1 75.0881 132.9C74.2481 134.58 73.3481 136.44 72.3881 138.48C71.5481 140.52 70.7081 142.5 69.868 144.42C69.148 146.22 68.5481 147.3 68.068 147.66C67.1081 148.5 66.4481 149.58 66.088 150.9C65.8481 152.22 65.6081 152.88 65.3681 152.88C65.248 152.88 65.128 152.64 65.0081 152.16C65.0081 151.92 64.9481 151.8 64.828 151.8C64.828 151.68 64.828 151.56 64.828 151.44V151.26V152.52C64.828 153.48 64.708 153.96 64.468 153.96C64.2281 153.96 63.9881 152.82 63.7481 150.54C63.5081 148.14 63.6281 145.56 64.1081 142.8C64.2281 142.44 64.288 141.96 64.288 141.36C64.288 140.64 64.348 140.04 64.468 139.56C64.708 138.96 64.948 138.06 65.188 136.86C65.5481 135.66 65.9081 134.4 66.2681 133.08C67.1081 130.68 67.5281 129.3 67.5281 128.94C67.648 128.46 67.528 127.98 67.1681 127.5C66.928 127.26 66.688 126.96 66.448 126.6C66.3281 126.24 66.3881 125.94 66.6281 125.7C66.6281 124.98 66.5081 124.62 66.2681 124.62C66.0281 124.62 65.9081 124.38 65.9081 123.9C65.9081 123.18 66.7481 122.46 68.428 121.74L70.948 120.48C75.2681 111.72 79.5881 103.86 83.908 96.9C88.2281 89.94 92.3681 83.82 96.3281 78.54C100.288 73.26 103.948 68.82 107.308 65.22C110.668 61.62 113.608 58.8 116.128 56.76C119.008 54.36 121.948 52.32 124.948 50.64C127.948 48.84 129.868 47.94 130.708 47.94C130.948 47.94 131.008 48.12 130.888 48.48C130.648 48.72 130.468 48.96 130.348 49.2C130.348 49.32 130.228 49.38 129.988 49.38C129.508 49.38 129.388 49.56 129.628 49.92C129.868 50.16 130.288 50.4 130.888 50.64C131.848 50.88 132.148 51.24 131.788 51.72C131.788 51.84 131.728 51.96 131.608 52.08C131.608 52.2 131.608 52.38 131.608 52.62C131.368 52.62 131.008 52.8 130.528 53.16C130.048 53.52 129.508 53.94 128.908 54.42C128.308 54.9 127.768 55.38 127.288 55.86C126.928 56.34 126.748 56.64 126.748 56.76C126.868 56.76 127.168 56.58 127.648 56.22C128.128 55.86 128.668 55.44 129.268 54.96C128.188 56.04 126.868 57.48 125.308 59.28C123.748 61.08 122.248 62.82 120.808 64.5C119.368 66.06 118.108 67.5 117.028 68.82C115.948 70.02 115.408 70.62 115.408 70.62C115.288 70.74 114.988 71.1 114.508 71.7C114.028 72.18 113.548 72.72 113.068 73.32C112.588 73.92 112.108 74.52 111.628 75.12C111.268 75.6 111.088 75.9 111.088 76.02C111.088 76.26 110.908 76.38 110.548 76.38C110.188 76.38 110.008 76.5 110.008 76.74C110.008 77.1 109.948 77.28 109.828 77.28H109.648C109.168 77.28 108.208 78.3 106.768 80.34C105.328 82.38 103.768 84.72 102.088 87.36C100.408 89.88 98.848 92.28 97.408 94.56C96.088 96.72 95.3081 97.98 95.0681 98.34C93.5081 100.74 92.1881 102.84 91.1081 104.64C90.1481 106.44 89.6081 107.46 89.4881 107.7C88.5281 109.26 87.6881 110.58 86.9681 111.66C86.3681 112.74 86.1881 113.4 86.428 113.64C86.5481 113.64 87.0281 113.4 87.8681 112.92C88.8281 112.32 89.968 111.66 91.2881 110.94C92.608 110.1 93.988 109.2 95.4281 108.24C96.9881 107.28 98.3681 106.38 99.5681 105.54C100.888 104.7 101.908 103.98 102.628 103.38C103.348 102.78 103.648 102.42 103.528 102.3C103.528 102.06 103.588 101.94 103.708 101.94H103.888C104.368 101.94 105.748 101.22 108.028 99.78C110.428 98.22 113.308 96.12 116.668 93.48C120.148 90.84 123.988 87.72 128.188 84.12C132.508 80.52 136.828 76.62 141.148 72.42C145.588 68.1 149.788 63.66 153.748 59.1C157.828 54.42 161.428 49.68 164.548 44.88C165.268 43.8 165.868 42.9 166.348 42.18C166.828 41.46 167.188 41.1 167.428 41.1H167.608C167.728 41.1 167.788 41.04 167.788 40.92C167.788 40.68 168.088 39.96 168.688 38.76C169.288 37.56 169.708 36.9 169.948 36.78C169.948 36.54 169.948 36.42 169.948 36.42C170.068 36.3 170.128 36.12 170.128 35.88C170.128 35.64 170.248 35.22 170.488 34.62C170.848 33.9 171.208 33.18 171.568 32.46C171.928 31.74 172.288 31.08 172.648 30.48C173.008 29.88 173.248 29.58 173.368 29.58H173.548C173.668 29.58 173.668 29.4 173.548 29.04C173.308 28.56 173.248 28.08 173.368 27.6C173.608 27.12 173.848 26.88 174.088 26.88L174.268 27.06H174.448C174.688 27.06 174.688 26.76 174.448 26.16C174.448 26.16 174.448 25.98 174.448 25.62V25.44H174.628H174.808C175.168 25.44 175.348 25.2 175.348 24.72C175.468 23.16 175.528 21.48 175.528 19.68C175.648 17.76 175.468 15.9 174.988 14.1C174.508 12.3 173.608 10.68 172.288 9.23999C170.968 7.67999 168.868 6.41999 165.988 5.45999C165.148 5.21999 164.068 5.04 162.748 4.92C161.548 4.79999 160.168 4.73999 158.608 4.73999C156.928 4.73999 155.188 4.79999 153.388 4.92C151.588 5.04 149.908 5.27999 148.348 5.63999C143.908 6.59999 139.288 7.97999 134.488 9.77999C129.688 11.46 125.248 13.14 121.168 14.82C116.368 16.86 111.628 19.02 106.948 21.3C107.068 21.06 107.068 20.94 106.948 20.94C106.588 20.94 106.168 21.18 105.688 21.66C105.088 22.02 104.908 22.2 105.148 22.2H105.328C105.328 22.2 105.448 22.14 105.688 22.02H106.048C106.408 22.02 106.348 22.14 105.868 22.38C105.628 22.62 105.328 22.74 104.968 22.74C104.728 22.74 104.608 22.68 104.608 22.56H104.428C104.188 22.56 104.188 22.68 104.428 22.92C104.548 23.28 103.648 24.06 101.728 25.26C99.3281 26.46 98.1881 27.06 98.3081 27.06C98.3081 27.06 98.3681 26.94 98.4881 26.7C98.6081 26.46 98.6081 26.34 98.4881 26.34C98.1281 26.34 97.7081 26.58 97.228 27.06C96.628 27.42 96.4481 27.6 96.6881 27.6H96.8681C96.8681 27.6 96.9881 27.54 97.228 27.42H97.5881C98.3081 27.42 98.0681 27.72 96.8681 28.32C96.7481 28.44 96.6281 28.5 96.508 28.5C96.388 28.5 96.3281 28.56 96.3281 28.68C96.3281 28.68 96.3281 28.56 96.3281 28.32C96.5681 28.08 96.6281 27.96 96.508 27.96H96.1481C96.0281 28.2 95.9081 28.38 95.788 28.5C95.668 28.5 95.608 28.62 95.608 28.86C95.608 29.22 94.768 29.94 93.088 31.02C91.7681 31.98 90.8681 32.64 90.3881 33C89.9081 33.24 89.6081 33.36 89.4881 33.36C89.3681 33.36 89.3681 33.3 89.4881 33.18C89.6081 32.82 89.548 32.64 89.308 32.64C89.068 32.64 88.768 32.82 88.4081 33.18C88.168 33.42 88.048 33.66 88.048 33.9C88.048 34.02 88.1081 34.14 88.2281 34.26H87.8681C87.8681 34.14 87.8081 34.08 87.688 34.08C86.7281 34.08 82.7681 36.84 75.8081 42.36C74.2481 43.56 72.388 45.12 70.228 47.04C68.188 48.96 66.088 51 63.928 53.16C61.8881 55.2 59.9081 57.24 57.9881 59.28C56.188 61.2 54.748 62.76 53.668 63.96C52.708 65.04 51.508 66.6 50.0681 68.64C48.748 70.56 47.428 72.54 46.108 74.58C44.908 76.5 43.828 78.24 42.868 79.8C41.908 81.36 41.428 82.26 41.428 82.5C41.428 82.62 41.488 82.68 41.608 82.68L41.788 82.5C41.908 82.38 41.968 82.32 41.968 82.32C42.088 82.32 42.268 82.2 42.508 81.96C42.748 81.48 42.928 81.24 43.048 81.24C42.928 81.24 42.868 81.36 42.868 81.6C42.748 81.84 42.688 82.08 42.688 82.32C42.688 82.56 42.628 82.8 42.508 83.04C41.668 84.12 41.488 84.9 41.968 85.38C42.328 85.74 42.508 85.98 42.508 86.1C42.508 86.46 42.628 86.64 42.868 86.64C43.348 86.64 43.828 86.88 44.308 87.36C44.908 87.96 45.508 88.38 46.108 88.62C46.708 88.86 47.548 88.98 48.628 88.98H50.968C54.088 88.74 56.968 88.14 59.6081 87.18C62.3681 86.22 65.4881 84.54 68.968 82.14C70.528 81.06 71.4281 80.52 71.6681 80.52C71.9081 80.52 71.9081 80.76 71.6681 81.24C71.548 81.6 71.488 82.02 71.488 82.5C71.488 82.62 71.308 83.04 70.948 83.76C70.5881 84.36 70.1081 84.96 69.5081 85.56C68.4281 86.64 68.0081 87.18 68.2481 87.18C68.488 87.18 69.388 86.4 70.948 84.84C71.788 84 72.328 83.58 72.5681 83.58C73.0481 83.58 72.9281 83.82 72.208 84.3C71.728 84.42 71.488 84.78 71.488 85.38C71.488 85.98 70.708 86.94 69.1481 88.26C67.5881 89.46 65.788 90.54 63.7481 91.5C58.588 93.78 54.208 94.92 50.608 94.92C48.8081 94.92 47.0081 94.62 45.208 94.02C43.288 93.42 41.908 92.82 41.068 92.22C40.348 91.5 39.688 90.54 39.088 89.34C38.848 88.86 38.608 88.14 38.368 87.18C38.248 86.22 38.128 85.26 38.008 84.3C38.008 83.34 38.008 82.44 38.008 81.6C38.128 80.64 38.308 79.92 38.548 79.44C38.788 78.96 38.908 78.66 38.908 78.54V78.18C38.788 78.18 38.848 77.82 39.088 77.1C39.328 76.38 39.628 75.54 39.988 74.58C40.468 73.62 40.948 72.66 41.428 71.7C41.908 70.74 42.328 70.02 42.688 69.54C43.528 68.1 43.948 67.38 43.948 67.38C43.948 67.26 44.188 66.9 44.6681 66.3C45.148 65.58 45.688 64.86 46.2881 64.14C46.8881 63.3 47.4281 62.58 47.9081 61.98C48.5081 61.26 48.8081 60.9 48.8081 60.9C50.368 59.1 51.208 58.2 51.3281 58.2C51.3281 58.2 51.388 58.26 51.508 58.38C51.508 58.74 51.208 59.04 50.608 59.28C50.368 59.52 50.188 59.82 50.0681 60.18C49.948 60.42 50.008 60.54 50.248 60.54L50.4281 60.36C50.548 60.24 50.608 60.18 50.608 60.18C50.7281 60.18 50.9081 60.06 51.148 59.82C51.628 59.46 51.928 59.28 52.0481 59.28C52.288 59.28 52.408 59.4 52.408 59.64C52.648 60 52.588 60.18 52.228 60.18H52.0481C51.688 60.18 50.968 60.84 49.888 62.16C48.928 63.36 47.8481 64.86 46.6481 66.66C45.568 68.34 44.488 70.08 43.4081 71.88C42.4481 73.68 41.788 75.18 41.428 76.38C41.068 77.58 40.948 78.18 41.068 78.18L41.248 77.82C41.368 77.7 41.428 77.52 41.428 77.28C41.548 77.04 41.728 76.8 41.968 76.56C42.208 75.72 42.508 75.3 42.868 75.3C43.348 75.3 43.828 75.06 44.308 74.58C44.788 73.98 44.908 73.62 44.6681 73.5V73.32C44.6681 73.32 44.848 73.2 45.208 72.96C45.328 72.84 45.448 72.78 45.568 72.78C45.808 72.78 45.268 73.68 43.948 75.48C43.348 76.56 42.928 77.34 42.688 77.82C42.448 78.3 42.088 78.9 41.608 79.62C42.568 78.54 44.728 75.6 48.088 70.8C51.5681 65.88 56.5481 60.12 63.028 53.52C69.508 46.8 77.728 39.84 87.688 32.64C97.7681 25.32 109.948 18.66 124.228 12.66C124.588 12.54 125.368 12.24 126.568 11.76C127.768 11.16 129.088 10.56 130.528 9.96C131.968 9.36 133.288 8.82 134.488 8.34C135.808 7.85999 136.648 7.61999 137.008 7.61999C137.128 7.61999 137.188 7.55999 137.188 7.44C136.948 7.44 136.288 7.61999 135.208 7.97999C134.248 8.21999 132.988 8.64 131.428 9.23999C129.988 9.72 128.428 10.32 126.748 11.04C125.068 11.64 123.448 12.24 121.888 12.84C119.008 14.04 115.888 15.54 112.528 17.34C109.168 19.02 105.988 20.7 102.988 22.38C99.5081 24.3 96.0281 26.28 92.5481 28.32C92.4281 28.32 92.308 28.38 92.188 28.5C92.0681 28.62 91.9481 28.74 91.8281 28.86C91.708 28.86 91.588 28.92 91.468 29.04C91.1081 29.4 90.6881 29.58 90.208 29.58H90.0281C89.9081 29.46 89.7881 29.4 89.6681 29.4C89.428 29.4 89.428 29.58 89.6681 29.94C90.028 30.18 89.968 30.3 89.4881 30.3C89.0081 30.3 88.7681 30.48 88.7681 30.84C88.7681 30.96 88.3481 31.38 87.5081 32.1C86.6681 32.82 85.7081 33.6 84.6281 34.44C83.5481 35.16 82.5281 35.82 81.5681 36.42C80.6081 37.02 80.0681 37.32 79.9481 37.32C79.9481 37.32 79.7081 37.5 79.2281 37.86C78.8681 38.1 78.4481 38.46 77.9681 38.94C77.488 39.3 77.0081 39.66 76.5281 40.02C76.1681 40.26 75.928 40.38 75.8081 40.38C75.4481 40.38 74.7281 40.98 73.6481 42.18C72.6881 43.26 71.908 43.8 71.3081 43.8C71.3081 43.8 71.2481 43.74 71.1281 43.62V44.16C70.8881 44.52 70.7681 44.7 70.7681 44.7H70.588C70.4681 44.7 70.1681 44.94 69.688 45.42C69.3281 45.78 68.9081 46.2 68.428 46.68C67.948 47.04 67.468 47.46 66.9881 47.94C66.628 48.3 66.388 48.48 66.2681 48.48C66.148 48.48 65.728 48.84 65.0081 49.56C64.288 50.28 63.448 51.18 62.4881 52.26C61.528 53.22 60.448 54.3 59.2481 55.5C58.168 56.7 57.208 57.84 56.368 58.92C55.288 60 53.788 61.74 51.868 64.14C50.0681 66.54 48.2681 68.94 46.468 71.34C46.348 71.94 46.1681 72.24 45.928 72.24C46.768 70.68 47.788 69.12 48.988 67.56C49.9481 66.24 51.0281 64.74 52.228 63.06C53.5481 61.26 54.988 59.52 56.548 57.84C58.348 55.8 60.3281 53.7 62.4881 51.54C64.7681 49.26 66.9881 47.16 69.1481 45.24C70.3481 44.04 71.368 43.08 72.208 42.36C73.048 41.52 73.4081 41.04 73.2881 40.92C73.2881 40.8 73.1681 40.74 72.9281 40.74C72.4481 40.74 72.1481 40.86 72.0281 41.1C71.5481 41.34 71.3081 41.46 71.3081 41.46L71.1281 41.64C71.0081 41.76 70.7681 41.82 70.4081 41.82C70.048 41.82 69.868 41.76 69.868 41.64C69.868 41.4 69.988 41.28 70.228 41.28H70.7681C71.0081 41.52 71.1281 41.64 71.1281 41.64C71.2481 41.52 71.488 41.28 71.848 40.92C72.328 40.44 72.9881 39.9 73.8281 39.3C75.028 38.22 75.808 37.68 76.1681 37.68C75.5681 38.64 75.4481 39.12 75.8081 39.12C76.0481 39.12 76.7681 38.64 77.9681 37.68C79.408 36.6 80.128 35.88 80.128 35.52C80.0081 35.28 80.3081 35.22 81.028 35.34C81.868 35.34 82.1681 35.22 81.9281 34.98C81.8081 34.74 82.1681 34.32 83.008 33.72C83.9681 33 84.2081 32.64 83.7281 32.64C83.4881 32.64 83.3681 32.52 83.3681 32.28C83.488 32.04 83.668 31.92 83.908 31.92C84.148 31.92 84.268 31.98 84.268 32.1C84.5081 32.34 84.7481 32.46 84.9881 32.46C85.2281 32.46 85.4681 32.28 85.7081 31.92C85.9481 31.56 86.0081 31.26 85.8881 31.02C85.648 30.78 85.648 30.66 85.8881 30.66C85.8881 30.66 85.9481 30.72 86.0681 30.84H86.2481C86.7281 30.84 87.2081 30.6 87.688 30.12C88.0481 29.52 88.4081 29.22 88.7681 29.22H88.948C88.948 29.34 89.008 29.4 89.1281 29.4V29.04C89.1281 28.8 89.3681 28.5 89.8481 28.14C90.3281 27.78 90.868 27.48 91.468 27.24C92.068 26.88 93.148 26.28 94.708 25.44C96.2681 24.48 97.8281 23.52 99.3881 22.56C105.268 19.08 110.908 16.08 116.308 13.56C121.708 11.04 126.568 8.99999 130.888 7.44C135.208 5.76 138.868 4.55999 141.868 3.83999C144.868 2.99999 146.968 2.57999 148.168 2.57999H148.888C149.488 2.57999 149.728 2.52 149.608 2.4C149.488 2.15999 149.848 1.97999 150.688 1.85999C151.648 1.61999 152.728 1.43999 153.928 1.31999ZM82.8281 30.66C82.9481 30.66 83.008 30.78 83.008 31.02C83.008 31.38 82.8281 31.56 82.4681 31.56C81.9881 31.56 81.928 31.38 82.288 31.02C82.528 30.78 82.7081 30.66 82.8281 30.66ZM82.8281 32.46C82.7081 32.7 82.4081 33 81.9281 33.36C81.4481 33.6 81.0881 33.72 80.8481 33.72H80.6681C80.9081 33.6 81.208 33.42 81.5681 33.18C82.2881 32.7 82.7081 32.46 82.8281 32.46ZM176.968 33.18C176.968 33.3 176.908 33.42 176.788 33.54C176.788 33.54 176.788 33.6 176.788 33.72V33.9C176.548 34.38 176.428 34.62 176.428 34.62C176.668 34.14 176.788 33.78 176.788 33.54V33.18H176.968ZM78.3281 35.16C78.3281 35.28 78.2081 35.58 77.9681 36.06C77.728 36.42 77.488 36.6 77.248 36.6C77.248 36.6 77.188 36.54 77.0681 36.42L77.248 36.24C77.248 36.12 77.368 35.94 77.608 35.7C77.8481 35.46 78.0881 35.28 78.3281 35.16ZM76.1681 35.88C76.0481 36.12 75.808 36.36 75.4481 36.6C75.2081 36.84 74.9081 37.14 74.5481 37.5C74.188 37.74 73.768 38.1 73.2881 38.58C71.248 40.02 70.168 40.74 70.0481 40.74L70.7681 40.02C70.7681 40.02 71.0081 39.78 71.488 39.3C72.0881 38.82 72.6881 38.34 73.2881 37.86C73.8881 37.38 74.4281 36.96 74.9081 36.6C75.5081 36.12 75.8681 35.88 75.988 35.88H76.1681ZM69.1481 42.54V42.72C69.1481 43.32 68.8481 43.62 68.2481 43.62C68.0081 43.62 67.8881 43.56 67.8881 43.44C67.8881 43.2 68.0081 42.96 68.2481 42.72C68.488 42.48 68.728 42.36 68.968 42.36L69.1481 42.54ZM67.348 43.98C67.348 44.22 67.108 44.52 66.6281 44.88C66.1481 45.24 65.788 45.42 65.548 45.42L65.3681 45.24C65.008 44.88 65.248 44.7 66.088 44.7C66.4481 44.7 66.7481 44.52 66.9881 44.16L67.348 43.44V43.98ZM64.288 45.96C64.5281 46.2 64.588 46.38 64.468 46.5C64.468 46.62 64.348 46.86 64.1081 47.22C63.508 47.82 63.148 48.12 63.028 48.12C62.788 48.12 62.968 47.82 63.568 47.22C64.048 46.74 64.2281 46.32 64.1081 45.96H64.288ZM63.208 46.32C62.9681 46.56 62.7881 46.8 62.668 47.04C62.428 47.28 62.248 47.52 62.1281 47.76C62.1281 47.88 62.068 48 61.948 48.12C61.828 48.72 61.1681 49.44 59.9681 50.28C58.8881 51 58.168 51.36 57.808 51.36C57.448 51.36 57.808 50.88 58.888 49.92C59.8481 48.96 60.5081 48.48 60.8681 48.48C60.988 48.6 61.108 48.66 61.2281 48.66C61.2281 48.66 61.2281 48.54 61.2281 48.3C60.868 47.82 61.228 47.28 62.308 46.68C62.548 46.68 62.668 46.68 62.668 46.68C62.7881 46.56 62.9081 46.5 63.028 46.5C63.148 46.5 63.208 46.44 63.208 46.32ZM56.548 52.08C56.668 52.08 56.5481 52.32 56.1881 52.8C55.9481 53.16 55.5881 53.64 55.108 54.24C54.628 54.72 54.148 55.2 53.668 55.68C53.308 56.04 53.068 56.22 52.9481 56.22C52.9481 56.22 53.0681 56.04 53.3081 55.68C53.6681 55.2 54.028 54.72 54.388 54.24C54.868 53.64 55.288 53.16 55.648 52.8C56.128 52.32 56.428 52.08 56.548 52.08ZM58.168 52.98C57.928 53.46 57.748 53.7 57.628 53.7C57.5081 53.7 57.5081 53.52 57.628 53.16C57.748 52.68 57.928 52.44 58.168 52.44V52.98ZM131.608 52.8V52.62V52.8ZM131.428 52.98L131.608 52.8L131.428 52.98ZM56.908 53.7L55.108 55.86C54.028 57.18 53.308 57.84 52.9481 57.84C53.068 57.72 53.308 57.42 53.668 56.94C54.028 56.46 54.3881 55.98 54.748 55.5C55.228 55.02 55.648 54.6 56.008 54.24C56.368 53.88 56.608 53.7 56.7281 53.7H56.908ZM64.1081 53.7C63.8681 53.94 63.568 54.3 63.208 54.78C62.9681 55.14 62.6081 55.56 62.1281 56.04C61.7681 56.4 61.3481 56.82 60.8681 57.3C58.228 60.3 56.788 61.8 56.548 61.8C56.668 61.56 56.908 61.26 57.268 60.9C57.508 60.66 57.808 60.36 58.168 60C58.5281 59.52 59.0081 58.98 59.6081 58.38C59.728 58.26 59.968 57.96 60.3281 57.48C60.808 57 61.288 56.52 61.768 56.04C62.368 55.44 62.848 54.9 63.208 54.42C63.688 53.94 63.988 53.7 64.1081 53.7ZM56.368 62.52C56.368 62.52 56.068 62.82 55.4681 63.42C54.748 64.14 54.328 64.5 54.2081 64.5C54.088 64.5 54.388 64.14 55.108 63.42C55.228 63.3 55.408 63.12 55.648 62.88C56.0081 62.52 56.2481 62.34 56.368 62.34V62.52ZM54.2081 65.04C53.9681 65.28 53.788 65.52 53.668 65.76C53.308 66.12 53.068 66.3 52.9481 66.3C52.9481 66.18 53.1281 65.94 53.488 65.58C53.728 65.46 53.9681 65.28 54.2081 65.04ZM44.6681 70.62C44.548 70.86 44.428 71.46 44.308 72.42C44.308 73.38 44.188 73.98 43.948 74.22C43.948 74.46 43.828 74.58 43.588 74.58C43.108 74.58 42.868 74.28 42.868 73.68C42.868 73.32 42.928 73.14 43.048 73.14H43.228C43.228 73.26 43.288 73.32 43.4081 73.32C43.648 73.32 43.888 72.96 44.128 72.24C44.368 71.4 44.548 70.86 44.6681 70.62ZM45.748 76.74C45.988 76.74 45.868 77.04 45.388 77.64C45.028 78.24 44.728 78.66 44.488 78.9C44.368 78.9 44.488 78.54 44.848 77.82C45.328 77.1 45.628 76.74 45.748 76.74ZM101.188 137.94C101.308 138.06 101.368 138.12 101.368 138.12C101.248 138.12 101.188 138.06 101.188 137.94ZM107.128 143.16C107.248 143.16 107.428 143.34 107.668 143.7C107.908 144.18 107.908 144.42 107.668 144.42C107.668 144.42 107.488 144.24 107.128 143.88V143.16ZM15.148 178.62C15.388 178.62 15.508 178.5 15.508 178.26C15.508 178.14 15.328 178.02 14.968 177.9C14.608 177.78 14.368 177.72 14.248 177.72C13.648 177.72 13.528 177.84 13.888 178.08C14.368 178.44 14.788 178.62 15.148 178.62ZM8.12805 176.1C8.12805 176.1 8.06805 175.98 7.94805 175.74C7.70805 175.5 7.40805 175.38 7.04805 175.38C6.92805 175.38 6.86805 175.38 6.86805 175.38C6.86805 175.5 6.98805 175.62 7.22805 175.74C7.94805 175.98 8.24805 176.1 8.12805 176.1ZM107.488 146.4C107.728 146.4 107.608 145.98 107.128 145.14C106.528 144.3 106.228 143.88 106.228 143.88C106.108 143.88 106.228 144.42 106.588 145.5L107.488 146.4ZM96.508 135.06C96.7481 135.06 96.8681 135 96.8681 134.88C96.8681 134.52 96.6881 134.34 96.3281 134.34H96.1481C96.1481 134.34 96.0881 134.46 95.9681 134.7C95.9681 134.94 96.1481 135.06 96.508 135.06ZM93.268 132.9C93.628 132.9 93.5081 132.72 92.9081 132.36C92.4281 132 91.708 131.64 90.748 131.28C89.9081 130.92 89.0081 130.56 88.048 130.2C87.0881 129.84 86.4281 129.66 86.0681 129.66C85.7081 129.66 85.7681 129.78 86.2481 130.02C86.8481 130.26 87.5681 130.56 88.4081 130.92C89.3681 131.16 90.2081 131.46 90.9281 131.82C91.7681 132.06 92.3081 132.24 92.5481 132.36C92.5481 132.72 92.7881 132.9 93.268 132.9ZM83.548 130.56C82.708 130.08 82.048 129.78 81.5681 129.66C81.0881 129.42 80.368 129.3 79.408 129.3C78.448 129.3 78.2681 129.54 78.868 130.02C79.5881 130.38 81.1481 130.56 83.548 130.56ZM48.268 91.68C49.228 91.68 49.5281 91.62 49.1681 91.5H47.5481C47.188 91.62 47.428 91.68 48.268 91.68ZM57.628 92.4C57.988 92.4 58.648 92.16 59.6081 91.68C60.808 91.08 61.348 90.78 61.2281 90.78H61.408H61.2281C60.7481 90.78 60.028 91.02 59.068 91.5C57.628 92.1 57.148 92.4 57.628 92.4ZM54.388 90.96C54.7481 90.96 55.3481 90.9 56.1881 90.78C57.1481 90.54 57.688 90.36 57.808 90.24C58.168 89.88 58.1081 89.7 57.628 89.7C57.2681 89.82 56.6081 90.06 55.648 90.42C54.688 90.66 54.2081 90.84 54.2081 90.96H54.388ZM62.308 90.42C62.548 90.42 62.728 90.3 62.8481 90.06C63.088 89.82 63.148 89.7 63.028 89.7C62.6681 89.82 62.3081 90 61.948 90.24C61.7081 90.36 61.8281 90.42 62.308 90.42ZM58.528 90.24C58.6481 90.24 58.8281 90.06 59.068 89.7C59.068 89.34 59.008 89.16 58.888 89.16C58.5281 89.16 58.3481 89.34 58.3481 89.7V90.06C58.3481 90.18 58.4081 90.24 58.528 90.24ZM64.1081 89.7C64.348 89.7 64.528 89.58 64.6481 89.34C64.8881 89.1 64.9481 88.98 64.828 88.98C64.468 89.1 64.168 89.28 63.928 89.52C63.8081 89.64 63.8681 89.7 64.1081 89.7ZM43.228 88.8C43.588 88.8 43.408 88.5 42.688 87.9L42.328 87.54H42.148C41.788 87.54 41.788 87.72 42.148 88.08C42.508 88.56 42.868 88.8 43.228 88.8ZM63.568 87.72C63.808 87.72 64.228 87.48 64.828 87C65.548 86.4 66.0281 85.98 66.2681 85.74L64.828 86.28C64.588 86.52 64.228 86.76 63.7481 87C63.5081 87.12 63.328 87.24 63.208 87.36C63.208 87.6 63.328 87.72 63.568 87.72ZM68.608 84.48C68.728 84.48 68.9081 84.3 69.1481 83.94C69.3881 83.7 69.2681 83.58 68.7881 83.58C68.5481 83.58 68.428 83.7 68.428 83.94C68.428 84.3 68.488 84.48 68.608 84.48ZM140.788 82.32C141.148 82.32 141.328 82.2 141.328 81.96C141.328 81.6 141.268 81.42 141.148 81.42C140.908 81.42 140.728 81.6 140.608 81.96C140.368 82.2 140.428 82.32 140.788 82.32ZM144.028 79.26C144.268 79.26 144.928 78.78 146.008 77.82C147.088 76.74 148.528 75.3 150.328 73.5C153.928 69.66 156.688 66.54 158.608 64.14C160.528 61.62 161.968 59.7 162.928 58.38V58.02C162.328 58.74 160.708 60.66 158.068 63.78C155.428 66.9 152.008 70.56 147.808 74.76C144.928 77.76 143.668 79.26 144.028 79.26ZM124.588 59.1C124.828 59.1 125.188 58.8 125.668 58.2C126.148 57.6 126.328 57.3 126.208 57.3C126.088 57.3 125.728 57.6 125.128 58.2C124.528 58.8 124.348 59.1 124.588 59.1ZM185.962 121.56C186.082 121.56 185.902 121.68 185.422 121.92C184.702 122.88 183.982 123.66 183.262 124.26C182.542 124.86 182.062 125.22 181.822 125.34C181.702 125.46 181.882 125.28 182.362 124.8C182.962 124.32 184.102 123.42 185.782 122.1C185.782 121.98 185.782 121.92 185.782 121.92C185.902 121.92 185.962 121.86 185.962 121.74V121.56ZM140.962 166.2C141.202 166.2 141.382 166.08 141.502 165.84C141.622 165.48 141.562 165.3 141.322 165.3C141.082 165.3 140.902 165.42 140.782 165.66C140.782 166.02 140.842 166.2 140.962 166.2ZM135.922 161.52C136.282 161.52 136.402 161.28 136.282 160.8C136.162 160.32 135.982 160.08 135.742 160.08H135.562C135.322 160.2 135.202 160.5 135.202 160.98C135.202 161.34 135.442 161.52 135.922 161.52ZM145.642 162.24C145.882 162.24 146.182 162.06 146.542 161.7C147.022 161.34 147.502 160.98 147.982 160.62C149.062 159.54 149.542 159 149.422 159C149.302 159.12 149.062 159.36 148.702 159.72C148.342 159.96 147.922 160.26 147.442 160.62L145.642 162.06V162.24ZM146.902 158.28C146.782 158.28 146.962 158.16 147.442 157.92C148.162 157.68 148.522 157.38 148.522 157.02C148.522 156.9 148.462 156.84 148.342 156.84C148.342 156.84 148.342 156.78 148.342 156.66C148.222 156.66 148.162 156.6 148.162 156.48C148.042 156.48 147.922 156.54 147.802 156.66C147.442 157.02 147.202 157.32 147.082 157.56C146.722 158.04 146.602 158.28 146.722 158.28H146.902ZM170.302 136.14C170.422 136.14 172.042 134.58 175.162 131.46C178.162 128.46 179.542 126.96 179.302 126.96C179.182 126.96 177.622 128.46 174.622 131.46C173.902 132.3 173.242 133.02 172.642 133.62C172.162 134.1 171.742 134.52 171.382 134.88C170.902 135.36 170.542 135.78 170.302 136.14ZM162.382 107.34C162.502 107.58 162.502 107.88 162.382 108.24C162.382 108.48 162.382 108.9 162.382 109.5C162.142 109.86 161.962 110.52 161.842 111.48C161.722 112.32 161.782 112.74 162.022 112.74L162.202 112.56C162.202 112.56 162.262 112.44 162.382 112.2C162.382 111.96 162.562 111.66 162.922 111.3C163.282 110.94 163.582 110.76 163.822 110.76C163.702 111 163.642 111.24 163.642 111.48C163.522 111.72 163.462 111.9 163.462 112.02C163.462 112.14 163.402 112.32 163.282 112.56C162.802 113.52 162.682 114 162.922 114C162.922 114 163.042 113.94 163.282 113.82C164.002 113.58 164.542 113.16 164.902 112.56C165.262 111.96 165.322 111.66 165.082 111.66C164.842 111.66 164.662 111.72 164.542 111.84H164.362C164.242 111.84 164.302 111.78 164.542 111.66C164.902 111.54 165.202 111.42 165.442 111.3C165.442 111.18 165.502 111.12 165.622 111.12C165.742 111.12 165.742 111.48 165.622 112.2C165.262 113.04 165.082 113.58 165.082 113.82C165.202 114.06 165.142 114.6 164.902 115.44C164.662 116.16 164.122 117.48 163.282 119.4C162.442 121.32 161.002 124.32 158.962 128.4C157.162 132.12 155.482 135.6 153.922 138.84C152.482 142.08 151.222 144.9 150.142 147.3C149.182 149.58 148.402 151.38 147.802 152.7C147.322 154.02 147.202 154.68 147.442 154.68C147.922 154.68 149.182 153.78 151.222 151.98C153.262 150.06 155.662 147.72 158.422 144.96C161.302 142.2 164.362 139.2 167.602 135.96C170.842 132.6 173.842 129.54 176.602 126.78C179.482 124.02 181.882 121.74 183.802 119.94C185.842 118.02 187.102 117.06 187.582 117.06H187.762C183.682 121.38 180.082 125.16 176.962 128.4C175.642 129.84 174.322 131.22 173.002 132.54C171.682 133.86 170.542 135.06 169.582 136.14C168.622 137.1 167.842 137.94 167.242 138.66C166.642 139.26 166.342 139.56 166.342 139.56C166.462 139.56 167.182 138.9 168.502 137.58C169.942 136.14 172.342 133.68 175.702 130.2C179.182 126.72 181.942 124.02 183.982 122.1C186.142 120.18 187.342 119.22 187.582 119.22C187.942 119.22 187.222 120.12 185.422 121.92C184.822 122.4 183.622 123.48 181.822 125.16C180.142 126.84 178.222 128.76 176.062 130.92C174.022 133.08 171.982 135.24 169.942 137.4C168.022 139.44 166.522 141.18 165.442 142.62C161.482 147.54 158.122 151.56 155.362 154.68C152.722 157.68 150.442 160.08 148.522 161.88C146.602 163.68 144.982 164.94 143.662 165.66C142.462 166.26 141.262 166.56 140.062 166.56H138.622C138.502 166.56 138.202 166.5 137.722 166.38C137.362 166.26 137.062 166.14 136.822 166.02C136.702 165.78 137.002 165.66 137.722 165.66C137.842 165.78 138.022 165.84 138.262 165.84C138.262 165.72 138.202 165.66 138.082 165.66C137.842 165.66 137.602 165.6 137.362 165.48C136.522 165.12 136.102 164.52 136.102 163.68C136.102 162.84 135.742 162.42 135.022 162.42C134.062 162.18 133.582 161.34 133.582 159.9C133.582 158.34 134.002 156.36 134.842 153.96C135.562 151.8 136.702 148.8 138.262 144.96C139.942 141 141.622 137.16 143.302 133.44C145.102 129.6 146.662 126.3 147.982 123.54C149.422 120.78 150.322 119.4 150.682 119.4C151.042 119.4 151.162 119.22 151.042 118.86C150.802 118.62 150.982 118.38 151.582 118.14C152.302 117.78 152.482 117.6 152.122 117.6C152.002 117.6 152.122 117.36 152.482 116.88C152.962 116.52 153.142 116.34 153.022 116.34H152.842H152.662C152.542 116.34 152.662 116.16 153.022 115.8L155.722 113.1C156.082 112.62 156.562 112.08 157.162 111.48C157.882 110.76 158.542 110.1 159.142 109.5C159.862 108.9 160.522 108.42 161.122 108.06C161.722 107.58 162.142 107.34 162.382 107.34ZM174.982 163.14C175.222 163.14 175.522 163.02 175.882 162.78C176.242 162.54 176.242 162.42 175.882 162.42C175.762 162.42 175.642 162.48 175.522 162.6C175.402 162.6 175.282 162.6 175.162 162.6C174.802 162.96 174.742 163.14 174.982 163.14ZM175.702 160.62C176.302 160.38 176.842 160.02 177.322 159.54C177.922 159.06 178.162 158.82 178.042 158.82C177.922 158.82 177.622 158.94 177.142 159.18C176.782 159.3 176.422 159.48 176.062 159.72C175.702 159.96 175.402 160.2 175.162 160.44C174.922 160.56 174.922 160.62 175.162 160.62H175.702ZM173.542 155.4C173.782 155.28 173.902 155.1 173.902 154.86C173.902 154.5 173.782 154.32 173.542 154.32C173.422 154.32 173.362 154.56 173.362 155.04C173.362 155.4 173.422 155.58 173.542 155.58V155.4ZM188.302 151.8C188.782 151.08 189.022 150.66 189.022 150.54C189.142 150.42 189.502 150.06 190.102 149.46C189.862 149.7 189.442 150.06 188.842 150.54C188.242 151.02 188.062 151.44 188.302 151.8ZM176.962 147.84C176.962 147.84 177.022 147.72 177.142 147.48C177.142 147.24 177.202 147 177.322 146.76C177.562 146.4 177.622 146.22 177.502 146.22H177.322C177.202 146.22 177.142 146.28 177.142 146.4C176.662 147.36 176.602 147.84 176.962 147.84ZM178.402 144.42C178.402 144.54 178.522 144.36 178.762 143.88C178.762 143.64 178.882 143.28 179.122 142.8C179.362 142.32 179.422 142.08 179.302 142.08L179.122 142.26C178.882 142.5 178.762 142.68 178.762 142.8C177.922 144 177.742 144.6 178.222 144.6L178.402 144.42ZM193.522 144.06C193.402 144.06 193.522 143.82 193.882 143.34C194.362 142.74 194.842 142.08 195.322 141.36C195.922 140.64 196.462 139.92 196.942 139.2C197.542 138.48 197.962 138 198.202 137.76C198.922 136.8 199.522 135.96 200.002 135.24C200.602 134.52 200.962 134.16 201.082 134.16C201.202 134.16 200.902 134.64 200.182 135.6C199.462 136.56 198.622 137.64 197.662 138.84C196.822 140.04 195.982 141.18 195.142 142.26C194.302 143.22 193.822 143.76 193.702 143.88C193.582 144 193.522 144.06 193.522 144.06ZM183.082 129.48C183.202 129.48 183.382 129.3 183.622 128.94C183.982 128.58 184.042 128.4 183.802 128.4H183.622C183.502 128.4 183.442 128.46 183.442 128.58C183.202 128.82 183.082 128.94 183.082 128.94V129.48ZM188.842 119.76C188.842 119.88 188.782 120 188.662 120.12L188.302 120.48C187.822 120.72 187.642 121.08 187.762 121.56C188.002 122.04 188.062 122.28 187.942 122.28L187.762 122.1C187.642 121.98 187.522 121.92 187.402 121.92C187.162 121.92 186.922 122.22 186.682 122.82C186.202 123.78 185.782 124.62 185.422 125.34C185.182 125.94 184.942 126.54 184.702 127.14C184.342 127.74 184.102 128.28 183.982 128.76C184.102 128.76 184.702 127.86 185.782 126.06C186.262 124.98 186.622 124.44 186.862 124.44C186.982 124.44 186.682 125.4 185.962 127.32C185.242 129.12 184.402 131.16 183.442 133.44C182.242 136.08 180.922 139.02 179.482 142.26C179.602 142.26 180.022 141.54 180.742 140.1C181.582 138.54 182.482 136.8 183.442 134.88C184.402 132.96 185.242 131.22 185.962 129.66C186.682 128.1 187.102 127.32 187.222 127.32V127.5C187.462 127.74 187.342 128.34 186.862 129.3C186.382 130.26 186.082 130.92 185.962 131.28C185.962 131.88 185.722 132.42 185.242 132.9C184.882 133.26 184.762 133.68 184.882 134.16C185.002 134.4 185.002 134.52 184.882 134.52H184.702H184.522C184.402 134.52 184.342 134.64 184.342 134.88C184.342 135.12 184.222 135.6 183.982 136.32C183.862 136.92 183.622 137.52 183.262 138.12C183.022 138.72 182.722 139.26 182.362 139.74C182.122 140.22 181.942 140.46 181.822 140.46C181.462 140.46 181.402 140.58 181.642 140.82C181.762 141.06 181.702 141.42 181.462 141.9C181.342 142.38 181.162 142.92 180.922 143.52C180.682 144.12 180.442 144.66 180.202 145.14C179.962 145.5 179.782 145.68 179.662 145.68H179.482L179.302 145.5C179.062 145.5 179.062 145.74 179.302 146.22C179.422 146.58 179.362 147 179.122 147.48C179.002 147.84 178.822 148.02 178.582 148.02C178.102 148.02 177.982 148.2 178.222 148.56C178.222 149.04 178.042 149.46 177.682 149.82C177.082 150.42 176.902 150.72 177.142 150.72C177.382 150.72 177.382 151.08 177.142 151.8C176.902 152.52 176.602 153.36 176.242 154.32C174.682 158.28 174.142 160.26 174.622 160.26C174.862 160.26 175.942 159.36 177.862 157.56C179.782 155.64 181.942 153.36 184.342 150.72C186.862 148.08 189.322 145.44 191.722 142.8C194.122 140.04 195.982 137.82 197.302 136.14C198.262 134.82 199.102 133.74 199.822 132.9C200.662 131.94 201.202 131.4 201.442 131.28C201.562 131.28 201.622 131.28 201.622 131.28C201.742 131.16 201.862 131.1 201.982 131.1C202.102 131.1 202.102 131.28 201.982 131.64C201.862 131.88 201.442 132.42 200.722 133.26C200.122 134.1 199.222 135.3 198.022 136.86C196.942 138.3 195.502 140.22 193.702 142.62C193.102 143.34 192.742 143.88 192.622 144.24C192.502 144.48 192.382 144.6 192.262 144.6C192.382 144.6 193.162 143.76 194.602 142.08C196.042 140.28 197.542 138.42 199.102 136.5C199.582 135.78 200.002 135.18 200.362 134.7C200.842 134.22 201.202 133.8 201.442 133.44V133.62H201.622C201.862 133.38 202.042 133.2 202.162 133.08C202.282 132.84 202.462 132.6 202.702 132.36C202.822 132.24 202.942 132.18 203.062 132.18L203.242 132.36C203.482 132.84 203.302 133.68 202.702 134.88C202.102 135.96 200.902 137.58 199.102 139.74C198.982 139.86 198.502 140.46 197.662 141.54C196.822 142.62 195.922 143.82 194.962 145.14C194.002 146.34 193.102 147.48 192.262 148.56C191.422 149.52 190.882 150 190.642 150H190.462C190.222 150 190.102 150.18 190.102 150.54C190.102 150.9 189.742 151.44 189.022 152.16L187.942 152.88C188.182 153 188.182 153.24 187.942 153.6C187.702 153.84 187.402 154.08 187.042 154.32C186.802 154.56 186.622 154.68 186.502 154.68C186.382 154.68 186.262 154.74 186.142 154.86L185.962 155.04L186.142 154.86C186.142 154.98 186.262 154.8 186.502 154.32C186.622 154.08 186.802 153.84 187.042 153.6L187.222 153.42C187.102 153.42 186.622 153.84 185.782 154.68C185.542 154.92 185.242 155.22 184.882 155.58C184.642 155.82 184.582 155.94 184.702 155.94C184.702 155.94 184.762 155.88 184.882 155.76C185.242 155.4 185.482 155.22 185.602 155.22L185.782 155.4C185.782 155.64 185.362 156.12 184.522 156.84C183.802 157.44 183.322 157.74 183.082 157.74C182.722 157.74 182.542 157.92 182.542 158.28C182.542 158.4 182.122 158.82 181.282 159.54C180.562 160.14 179.722 160.8 178.762 161.52C177.082 162.84 175.882 163.68 175.162 164.04C174.562 164.28 173.782 164.4 172.822 164.4C172.102 164.4 171.562 164.4 171.202 164.4C170.962 164.28 170.722 163.92 170.482 163.32C170.242 162.48 169.942 162.06 169.582 162.06C169.342 161.94 169.222 161.34 169.222 160.26C169.222 159.54 169.102 159.18 168.862 159.18L168.682 159.36C168.322 159.36 168.142 158.94 168.142 158.1C168.262 157.26 168.442 156.36 168.682 155.4C168.922 154.68 169.222 154.32 169.582 154.32H169.762C169.882 154.44 170.002 154.5 170.122 154.5C170.362 154.5 170.302 154.2 169.942 153.6C169.702 153 169.702 152.7 169.942 152.7C170.062 152.7 170.122 152.76 170.122 152.88C170.122 152.88 170.182 152.88 170.302 152.88H170.662C170.662 152.88 170.602 152.7 170.482 152.34C170.482 151.86 170.602 151.62 170.842 151.62C170.962 151.62 171.082 151.56 171.202 151.44C171.322 151.32 171.262 151.2 171.022 151.08C170.782 150.48 170.902 150.06 171.382 149.82C171.862 149.46 171.982 149.04 171.742 148.56C171.742 148.2 171.742 148.02 171.742 148.02C171.742 148.02 171.862 148.08 172.102 148.2C172.222 148.32 172.342 148.38 172.462 148.38C172.582 148.38 172.522 148.14 172.282 147.66C172.282 147.18 172.402 146.94 172.642 146.94C173.122 146.94 173.182 146.76 172.822 146.4C172.822 146.16 173.062 145.56 173.542 144.6C173.662 144.48 173.722 144.36 173.722 144.24C173.842 144.12 173.962 144 174.082 143.88C174.202 143.76 174.262 143.64 174.262 143.52H174.082C174.082 143.64 174.022 143.7 173.902 143.7C173.782 143.7 173.782 143.58 173.902 143.34C174.142 142.74 174.442 142.44 174.802 142.44C175.162 142.44 175.282 142.14 175.162 141.54C175.042 141.06 175.102 140.82 175.342 140.82C175.942 140.82 176.062 140.64 175.702 140.28C175.462 140.04 175.462 139.92 175.702 139.92C176.062 139.92 176.242 139.8 176.242 139.56C175.762 138.48 175.882 137.94 176.602 137.94H176.782C177.022 137.94 177.082 137.88 176.962 137.76C176.842 137.4 176.962 136.86 177.322 136.14C177.682 135.42 177.982 135.06 178.222 135.06C178.582 135.06 178.702 135 178.582 134.88C178.342 134.64 178.462 134.04 178.942 133.08C179.422 132 179.782 131.46 180.022 131.46L180.202 131.28L180.022 131.1C180.022 130.74 180.142 130.56 180.382 130.56C180.742 130.56 180.802 130.38 180.562 130.02C180.442 129.66 180.502 129.48 180.742 129.48C180.862 129.36 180.982 129.18 181.102 128.94C181.342 128.46 181.582 128.04 181.822 127.68C182.302 126.72 182.722 126.06 183.082 125.7C183.562 125.46 183.982 125.04 184.342 124.44C184.702 123.72 185.002 123.18 185.242 122.82C185.362 122.58 185.542 122.34 185.782 122.1C186.502 121.5 187.102 120.96 187.582 120.48C188.182 120 188.602 119.76 188.842 119.76ZM193.856 163.5C193.856 163.5 194.156 163.02 194.756 162.06C195.356 160.98 195.956 159.9 196.556 158.82C197.276 157.62 197.876 156.54 198.356 155.58C198.956 154.62 199.256 154.14 199.256 154.14C199.136 154.14 198.776 154.62 198.176 155.58C197.576 156.54 196.916 157.62 196.196 158.82C195.476 160.02 194.816 161.16 194.216 162.24C193.616 163.32 193.316 163.92 193.316 164.04C193.076 164.4 193.076 164.58 193.316 164.58L193.856 163.5ZM189.716 151.98C189.836 151.86 189.956 151.68 190.076 151.44C190.196 151.08 190.136 150.9 189.896 150.9C189.656 151.14 189.476 151.38 189.356 151.62C189.236 151.86 189.296 151.98 189.536 151.98H189.716ZM208.436 131.64C208.676 131.64 208.916 131.46 209.156 131.1C209.516 130.62 209.576 130.38 209.336 130.38C209.216 130.38 209.096 130.44 208.976 130.56C208.736 130.8 208.556 130.92 208.436 130.92C208.316 131.4 208.316 131.64 208.436 131.64ZM209.696 129.66C209.816 129.66 209.936 129.6 210.056 129.48C209.936 129.48 209.876 129.54 209.876 129.66C209.876 129.66 209.816 129.66 209.696 129.66ZM217.796 128.04C217.916 128.04 218.216 127.74 218.696 127.14C219.296 126.54 219.476 126.24 219.236 126.24C219.116 126.24 218.996 126.3 218.876 126.42L218.156 127.14C218.036 127.38 217.856 127.62 217.616 127.86C217.496 127.98 217.556 128.04 217.796 128.04ZM206.456 120.66C206.456 120.54 206.516 120.3 206.636 119.94C206.876 119.58 206.876 119.4 206.636 119.4C206.516 119.4 206.456 119.46 206.456 119.58C205.976 120.54 205.856 121.02 206.096 121.02L206.456 120.66ZM228.596 120.12C228.716 120.12 229.016 120 229.496 119.76C229.976 119.52 230.456 119.22 230.936 118.86C231.416 118.5 231.836 118.2 232.196 117.96C232.556 117.72 232.616 117.6 232.376 117.6C232.256 117.6 231.596 118.02 230.396 118.86C229.196 119.58 228.596 120 228.596 120.12ZM235.976 114.72C236.816 114.72 237.116 114.66 236.876 114.54C236.756 114.42 236.396 114.36 235.796 114.36C235.556 114.36 235.376 114.42 235.256 114.54C234.896 114.66 235.136 114.72 235.976 114.72ZM208.616 115.08C208.736 115.08 208.976 114.9 209.336 114.54V114.18V114C208.976 114.24 208.736 114.48 208.616 114.72C208.496 114.96 208.496 115.08 208.616 115.08ZM211.136 105.54C210.896 106.26 210.776 106.62 210.776 106.62C210.656 106.62 210.596 106.68 210.596 106.8V107.34V107.7C210.716 107.7 210.896 107.64 211.136 107.52C211.376 107.28 211.556 107.16 211.676 107.16C211.796 107.16 211.436 108.06 210.596 109.86C209.636 111.3 209.276 112.02 209.516 112.02L211.136 109.86C211.856 108.42 212.396 107.7 212.756 107.7C213.116 107.7 212.816 108.78 211.856 110.94C211.256 112.02 210.356 114 209.156 116.88C207.956 119.64 206.696 122.64 205.376 125.88C204.056 129.12 202.856 132.24 201.776 135.24C200.696 138.12 200.036 140.1 199.796 141.18C200.036 140.94 200.396 140.52 200.876 139.92C201.356 139.32 201.476 138.9 201.236 138.66C201.116 138.42 201.236 138.3 201.596 138.3C201.956 138.3 202.136 138.06 202.136 137.58C202.136 137.22 202.376 136.8 202.856 136.32L203.216 135.96C203.096 135.96 203.036 136.02 203.036 136.14C203.036 136.26 202.976 136.38 202.856 136.5C202.856 136.5 202.856 136.56 202.856 136.68L202.316 137.22L202.496 137.04C202.376 137.04 202.556 136.92 203.036 136.68C203.636 136.32 203.996 136.02 204.116 135.78C204.356 135.42 204.356 135.24 204.116 135.24H203.576V135.42L203.756 135.24C203.756 135.24 203.876 135 204.116 134.52C204.356 134.28 204.536 134.1 204.656 133.98C204.896 133.86 205.076 133.74 205.196 133.62L205.556 133.26C205.796 133.26 205.556 133.62 204.836 134.34L204.656 134.52L204.836 134.34C204.956 134.22 205.076 134.16 205.196 134.16C205.316 134.16 205.496 134.04 205.736 133.8C207.176 132.36 207.716 131.64 207.356 131.64H207.176C207.056 131.64 206.876 131.76 206.636 132L206.456 132.18C206.336 132.18 206.576 131.88 207.176 131.28C207.776 130.32 208.316 129.84 208.796 129.84C209.156 129.84 209.756 129.42 210.596 128.58C211.436 127.62 211.916 127.02 212.036 126.78C212.036 126.9 212.096 127.02 212.216 127.14L213.116 126.24L212.936 126.42V126.78C213.536 126.18 214.316 125.4 215.276 124.44C216.236 123.48 216.596 122.88 216.356 122.64C216.356 122.4 216.656 122.28 217.256 122.28C217.976 122.28 218.636 121.8 219.236 120.84C219.836 120 220.376 119.58 220.856 119.58C221.096 119.58 221.396 119.28 221.756 118.68C221.876 118.56 221.936 118.44 221.936 118.32C222.056 118.2 222.176 118.08 222.296 117.96C222.416 117.84 222.536 117.78 222.656 117.78C222.896 117.78 223.796 117.3 225.356 116.34C226.196 115.86 227.036 115.38 227.876 114.9C228.836 114.3 229.676 113.88 230.396 113.64C231.236 113.4 232.316 113.16 233.636 112.92C234.956 112.68 236.096 112.56 237.056 112.56C238.256 112.56 238.736 112.68 238.496 112.92C238.496 113.16 239.096 113.52 240.296 114C241.256 114.36 241.676 114.6 241.556 114.72C241.436 114.72 240.716 114.84 239.396 115.08L241.376 115.98C243.656 117.18 243.836 117.78 241.916 117.78C240.236 117.78 237.716 118.98 234.356 121.38C230.996 123.66 227.216 126.72 223.016 130.56C218.936 134.4 214.676 138.84 210.236 143.88C205.916 148.8 201.896 153.9 198.176 159.18C196.856 160.98 195.656 162.6 194.576 164.04C193.616 165.48 193.016 166.26 192.776 166.38C192.416 166.74 192.356 166.92 192.596 166.92C192.836 166.92 192.476 167.28 191.516 168C190.556 168.84 189.896 169.26 189.536 169.26C189.176 169.26 189.176 169.08 189.536 168.72C189.536 168.48 189.416 168.36 189.176 168.36C188.816 168.36 188.636 168.48 188.636 168.72C188.636 169.08 188.516 169.26 188.276 169.26C188.036 169.26 187.736 169.08 187.376 168.72C187.256 168.48 187.136 168.12 187.016 167.64C186.896 167.04 186.836 166.44 186.836 165.84C186.836 164.64 186.776 164.04 186.656 164.04L186.116 164.58L185.576 165.12C185.336 165.12 185.336 164.58 185.576 163.5C186.176 159.9 187.136 156.06 188.456 151.98C189.776 147.78 191.096 143.94 192.416 140.46C193.736 136.86 194.936 133.92 196.016 131.64C197.096 129.24 197.756 128.04 197.996 128.04C198.116 128.16 198.236 128.22 198.356 128.22C198.356 128.22 198.296 128.1 198.176 127.86C197.936 127.62 198.056 127.02 198.536 126.06C198.656 125.34 198.896 124.98 199.256 124.98C199.256 124.98 199.316 125.1 199.436 125.34C199.916 125.58 200.096 125.7 199.976 125.7V125.52C199.976 125.4 199.916 125.34 199.796 125.34C199.796 125.34 199.796 125.22 199.796 124.98C199.676 124.62 199.856 123.78 200.336 122.46C200.936 121.14 201.596 119.76 202.316 118.32C203.036 116.76 203.756 115.38 204.476 114.18C205.196 112.98 205.676 112.38 205.916 112.38C206.036 112.5 206.156 112.56 206.276 112.56C206.396 112.56 206.336 112.44 206.096 112.2C205.976 112.08 206.096 111.72 206.456 111.12C206.816 110.4 207.236 109.68 207.716 108.96C208.196 108.24 208.616 107.64 208.976 107.16C209.456 106.56 209.816 106.26 210.056 106.26C210.416 106.26 210.776 106.02 211.136 105.54ZM237.407 139.56V139.38V139.56ZM216.167 234.42C216.287 234.42 216.407 234.36 216.527 234.24C216.527 234.24 216.647 234.24 216.887 234.24C217.727 234 218.327 233.76 218.687 233.52C218.927 233.28 218.747 233.16 218.147 233.16C218.027 233.16 217.847 233.22 217.607 233.34C217.247 233.46 216.947 233.58 216.707 233.7C216.227 234.18 216.047 234.42 216.167 234.42ZM210.227 230.82C210.347 230.82 210.527 230.4 210.767 229.56C210.887 229.2 210.947 228.78 210.947 228.3C210.827 228.3 210.707 228.54 210.587 229.02C210.347 229.62 210.227 229.98 210.227 230.1V230.82ZM221.747 233.7C222.947 232.86 224.147 231.9 225.347 230.82C226.547 229.74 227.567 228.72 228.407 227.76C229.367 226.92 230.087 226.2 230.567 225.6C231.167 225 231.407 224.7 231.287 224.7C231.287 224.7 230.807 225.18 229.847 226.14C228.887 227.1 227.807 228.12 226.607 229.2C225.407 230.28 224.327 231.3 223.367 232.26C222.407 233.22 221.867 233.7 221.747 233.7ZM234.347 220.38C234.467 220.38 234.707 220.14 235.067 219.66C235.427 219.3 235.607 219.18 235.607 219.3V219.12H235.427C235.307 219.12 235.187 219.12 235.067 219.12C235.067 219.24 235.007 219.3 234.887 219.3C234.527 219.54 234.287 219.78 234.167 220.02C234.167 220.26 234.227 220.38 234.347 220.38ZM219.947 215.7C220.067 215.7 220.247 215.52 220.487 215.16C220.847 214.8 220.907 214.62 220.667 214.62H220.487C220.367 214.62 220.307 214.68 220.307 214.8C220.307 214.92 220.187 215.04 219.947 215.16C219.827 215.28 219.827 215.4 219.947 215.52V215.7ZM219.587 232.62C219.707 232.62 219.827 232.56 219.947 232.44C219.947 232.44 220.067 232.44 220.307 232.44C221.267 232.08 222.707 230.94 224.627 229.02C226.547 227.22 228.467 225.24 230.387 223.08C232.307 220.92 233.927 218.94 235.247 217.14C236.567 215.34 237.107 214.44 236.867 214.44C235.187 216.6 233.387 218.76 231.467 220.92C229.787 222.72 227.987 224.58 226.067 226.5C224.147 228.42 222.347 230.04 220.667 231.36C219.827 232.2 219.467 232.62 219.587 232.62ZM237.047 213.9C237.287 213.9 237.587 213.66 237.947 213.18C238.307 212.82 238.487 212.7 238.487 212.82V212.64C238.487 212.76 238.427 212.82 238.307 212.82H237.767C237.047 213.54 236.807 213.9 237.047 213.9ZM221.567 213.36C221.807 213.12 221.987 212.88 222.107 212.64C222.107 212.52 222.107 212.4 222.107 212.28C222.227 212.16 222.287 212.04 222.287 211.92V211.74C222.167 211.74 221.927 212.04 221.567 212.64C221.207 213.24 221.147 213.54 221.387 213.54L221.567 213.36ZM238.307 212.1C238.547 212.1 238.847 211.86 239.207 211.38C239.567 211.02 239.747 210.9 239.747 211.02V210.84H239.567C239.447 210.84 239.327 210.84 239.207 210.84C239.207 210.96 239.147 211.02 239.027 211.02C238.307 211.74 238.067 212.1 238.307 212.1ZM239.927 210.12C240.167 210.12 240.287 210.12 240.287 210.12C240.887 209.52 240.947 209.22 240.467 209.22C240.347 209.22 240.167 209.34 239.927 209.58C239.807 209.94 239.807 210.12 239.927 210.12ZM224.087 208.68C224.327 208.44 224.507 208.2 224.627 207.96C224.747 207.96 224.867 207.84 224.987 207.6C225.107 207.36 225.047 207.18 224.807 207.06C224.567 207.06 224.327 207.36 224.087 207.96C223.847 208.56 223.787 208.86 223.907 208.86L224.087 208.68ZM226.967 203.82C227.207 203.82 227.507 203.58 227.867 203.1C228.227 203.1 228.407 202.98 228.407 202.74V202.56H228.227C228.107 202.56 227.927 202.68 227.687 202.92C226.847 203.52 226.607 203.82 226.967 203.82ZM215.627 228.3C215.747 228.3 216.107 227.76 216.707 226.68C217.187 225.72 217.847 224.46 218.687 222.9C220.487 219.54 222.407 216.06 224.447 212.46C226.607 208.98 228.707 205.62 230.747 202.38C229.427 203.82 227.927 205.92 226.247 208.68C224.567 211.56 222.887 214.38 221.207 217.14C219.647 219.9 218.327 222.36 217.247 224.52C216.167 226.8 215.627 228.06 215.627 228.3ZM241.187 208.14C241.307 208.14 241.727 207.66 242.447 206.7C243.167 205.74 243.887 204.66 244.607 203.46C245.447 202.38 246.107 201.36 246.587 200.4C247.187 199.44 247.487 198.96 247.487 198.96C247.367 198.96 246.947 199.38 246.227 200.22C245.507 201.18 244.727 202.2 243.887 203.28C243.167 204.48 242.447 205.56 241.727 206.52C241.127 207.48 240.887 208.02 241.007 208.14H241.187ZM230.747 202.02C230.867 202.02 231.047 201.78 231.287 201.3C231.647 200.94 232.007 200.52 232.367 200.04C232.727 199.56 233.027 199.08 233.267 198.6C233.507 198.24 233.627 198.06 233.627 198.06L233.087 198.6C232.847 198.84 232.487 199.32 232.007 200.04C231.167 201.36 230.747 202.02 230.747 202.02ZM248.927 196.26C249.047 196.26 249.167 196.2 249.287 196.08C249.527 195.84 249.707 195.6 249.827 195.36C250.067 194.64 250.127 194.28 250.007 194.28C249.887 194.28 249.647 194.64 249.287 195.36C248.927 195.96 248.807 196.26 248.927 196.26ZM233.807 197.52C234.047 197.28 234.467 196.92 235.067 196.44C235.787 196.08 236.087 195.84 235.967 195.72C235.727 195.48 235.907 195.12 236.507 194.64C237.227 194.16 237.467 193.92 237.227 193.92C236.987 193.92 237.167 193.62 237.767 193.02C238.367 192.54 238.787 192.24 239.027 192.12L237.767 192.84C236.807 193.2 236.447 193.56 236.687 193.92C236.927 194.16 236.747 194.4 236.147 194.64C236.027 194.88 235.787 195.12 235.427 195.36C235.187 195.6 234.947 195.9 234.707 196.26L233.807 197.52ZM250.187 193.92C250.307 193.92 250.547 193.62 250.907 193.02C251.387 192.42 251.507 192.12 251.267 192.12C251.147 192.12 250.847 192.42 250.367 193.02C250.007 193.62 249.947 193.92 250.187 193.92ZM251.807 191.58C251.927 191.58 252.047 191.46 252.167 191.22C252.287 191.1 252.347 190.92 252.347 190.68C252.467 190.44 252.647 190.2 252.887 189.96C253.607 189 253.847 188.4 253.607 188.16C253.487 188.16 253.307 188.34 253.067 188.7C252.947 189.06 252.707 189.42 252.347 189.78C251.867 190.98 251.687 191.58 251.807 191.58ZM254.147 187.62C254.387 187.62 254.567 187.5 254.687 187.26C254.807 187.02 254.807 186.9 254.687 186.9C254.087 186.9 253.727 186.96 253.607 187.08C253.487 187.2 253.667 187.38 254.147 187.62ZM254.867 185.82C254.867 185.82 254.987 185.76 255.227 185.64C255.707 185.16 255.767 184.92 255.407 184.92C255.407 185.28 255.227 185.46 254.867 185.46V185.82ZM256.847 183.3C256.967 183.3 257.147 182.94 257.387 182.22C257.747 181.62 257.927 181.2 257.927 180.96V180.78C257.687 180.78 257.447 181.2 257.207 182.04C256.967 182.52 256.847 182.82 256.847 182.94V183.3ZM257.927 180.6C258.167 180.6 258.467 180.24 258.827 179.52C259.307 178.8 259.487 178.44 259.367 178.44L259.007 178.8C258.767 179.04 258.527 179.16 258.287 179.16C258.047 179.4 257.867 179.7 257.747 180.06C257.747 180.42 257.807 180.6 257.927 180.6ZM234.347 193.92C234.227 193.92 234.167 193.86 234.167 193.74C234.167 193.74 234.107 193.74 233.987 193.74C233.987 193.74 234.047 193.86 234.167 194.1C234.287 194.46 234.287 194.64 234.167 194.64C233.807 194.64 233.387 195.18 232.907 196.26C232.187 197.22 231.587 198.06 231.107 198.78C230.387 199.62 229.727 200.4 229.127 201.12C228.647 201.96 228.467 202.38 228.587 202.38L229.307 201.66C229.547 201.42 229.787 201.06 230.027 200.58C230.387 200.1 230.807 199.56 231.287 198.96C232.247 197.76 233.387 196.26 234.707 194.46C236.027 192.78 237.407 191.04 238.847 189.24C240.287 187.44 241.667 185.7 242.987 184.02C244.307 182.46 245.447 181.2 246.407 180.24C247.367 179.28 248.147 178.38 248.747 177.54C249.467 176.82 249.707 176.34 249.467 176.1C248.147 177.42 247.127 178.44 246.407 179.16C245.687 180 245.327 180.48 245.327 180.6C245.447 180.6 245.327 180.72 244.967 180.96C244.727 181.32 244.427 181.68 244.067 182.04C243.707 182.4 243.347 182.76 242.987 183.12C242.747 183.48 242.627 183.72 242.627 183.84C242.627 184.08 242.267 184.62 241.547 185.46C240.827 186.3 240.047 187.2 239.207 188.16C238.367 189.24 237.587 190.14 236.867 190.86C236.267 191.7 236.027 192.12 236.147 192.12C236.267 192.12 236.087 192.3 235.607 192.66C235.127 192.78 234.887 193.08 234.887 193.56C234.887 193.68 234.827 193.8 234.707 193.92H234.347ZM260.627 176.46C260.627 176.46 260.747 176.22 260.987 175.74C261.227 175.38 261.467 174.96 261.707 174.48C261.947 174 262.127 173.52 262.247 173.04C262.367 172.68 262.427 172.5 262.427 172.5C262.187 172.62 262.007 172.8 261.887 173.04C261.767 173.28 261.647 173.46 261.527 173.58C261.407 173.82 261.347 174.06 261.347 174.3C261.107 174.9 260.867 175.38 260.627 175.74C260.387 176.22 260.387 176.46 260.627 176.46ZM217.607 230.28C218.087 230.28 218.987 229.86 220.307 229.02C221.867 227.94 223.727 226.2 225.887 223.8C228.047 221.52 230.267 218.94 232.547 216.06C234.947 213.18 237.227 210.12 239.387 206.88C241.667 203.76 243.647 200.88 245.327 198.24C247.127 195.6 248.567 193.38 249.647 191.58C250.727 189.9 251.267 188.94 251.267 188.7C251.267 188.46 251.507 188.04 251.987 187.44C252.587 186.96 252.767 186.6 252.527 186.36C252.407 186.24 252.527 186.18 252.887 186.18C253.247 186.3 253.427 186.24 253.427 186C253.427 185.76 253.607 185.22 253.967 184.38C254.327 183.54 254.627 183.12 254.867 183.12C255.467 183.12 255.587 182.94 255.227 182.58C254.867 182.46 255.047 182.04 255.767 181.32C256.127 180.84 256.307 180.48 256.307 180.24C256.427 180 256.487 179.76 256.487 179.52C256.607 179.4 256.727 179.16 256.847 178.8C256.967 178.56 257.267 178.2 257.747 177.72C258.467 177 258.707 176.46 258.467 176.1C258.347 176.1 258.287 176.04 258.287 175.92C258.407 175.92 258.587 175.92 258.827 175.92C259.187 175.92 259.247 175.74 259.007 175.38C258.767 175.02 258.887 174.84 259.367 174.84C259.607 174.84 259.667 174.66 259.547 174.3C259.187 173.94 259.367 173.76 260.087 173.76C260.927 173.76 260.987 173.64 260.267 173.4C259.667 173.04 259.667 172.86 260.267 172.86C260.867 172.86 260.987 172.68 260.627 172.32C260.387 171.96 260.567 171.48 261.167 170.88C261.887 170.28 262.127 169.98 261.887 169.98C261.647 169.98 261.767 169.68 262.247 169.08C262.847 168.6 263.087 168.3 262.967 168.18H262.787C261.947 168.18 259.007 171 253.967 176.64C248.567 182.4 243.767 187.92 239.567 193.2C235.487 198.6 231.527 204.42 227.687 210.66C226.487 212.7 225.227 214.86 223.907 217.14C222.587 219.42 221.447 221.52 220.487 223.44C219.527 225.36 218.747 226.98 218.147 228.3C217.547 229.62 217.367 230.28 217.607 230.28ZM262.967 168.18C262.967 168.06 262.907 168 262.787 168L262.967 168.18ZM264.767 168.36C265.007 168.36 265.187 168.18 265.307 167.82C265.427 167.34 265.307 167.1 264.947 167.1C264.467 167.1 264.407 167.4 264.767 168V168.36ZM238.487 191.76C238.967 191.76 239.627 191.1 240.467 189.78C241.907 188.1 243.887 185.82 246.407 182.94C248.927 180.18 251.387 177.48 253.787 174.84C256.667 171.72 259.727 168.48 262.967 165.12C262.727 165.12 261.767 166.02 260.087 167.82C258.407 169.5 256.547 171.42 254.507 173.58C252.467 175.74 250.547 177.72 248.747 179.52C247.067 181.44 246.107 182.52 245.867 182.76C245.867 182.76 245.507 183.12 244.787 183.84C244.187 184.68 243.467 185.52 242.627 186.36C241.907 187.32 241.247 188.16 240.647 188.88C240.047 189.6 239.747 189.96 239.747 189.96C239.987 189.96 239.747 190.32 239.027 191.04C238.307 191.52 238.127 191.76 238.487 191.76ZM265.667 166.38C265.787 166.38 265.907 166.2 266.027 165.84C266.267 165.36 266.147 165.12 265.667 165.12C265.547 165.24 265.487 165.36 265.487 165.48V165.84C265.487 166.2 265.547 166.38 265.667 166.38ZM266.747 164.4C267.347 163.8 267.407 163.5 266.927 163.5C267.047 163.5 266.927 163.68 266.567 164.04C266.447 164.52 266.387 164.76 266.387 164.76L266.747 164.4ZM236.327 218.4C236.207 218.4 237.287 216.9 239.567 213.9C240.647 212.46 241.667 211.08 242.627 209.76C243.587 208.44 244.487 207.06 245.327 205.62C246.287 204.3 247.247 202.86 248.207 201.3C249.167 199.86 250.187 198.18 251.267 196.26C252.347 194.46 253.307 192.9 254.147 191.58C254.987 190.38 255.527 189.78 255.767 189.78C255.767 189.78 255.827 189.84 255.947 189.96C256.187 189.96 256.187 189.84 255.947 189.6C255.947 189.48 256.307 188.64 257.027 187.08C257.747 185.64 258.647 183.84 259.727 181.68C260.807 179.64 262.007 177.36 263.327 174.84C264.647 172.44 265.787 170.16 266.747 168C267.827 165.96 268.667 164.28 269.267 162.96C269.987 161.52 270.287 160.8 270.167 160.8C269.927 160.92 269.387 161.7 268.547 163.14C267.827 164.58 266.987 166.26 266.027 168.18C263.987 172.02 262.127 175.5 260.447 178.62C258.887 181.86 257.387 184.62 255.947 186.9C253.187 191.46 250.607 195.66 248.207 199.5C245.927 203.34 243.887 206.64 242.087 209.4C240.287 212.16 238.847 214.32 237.767 215.88C236.807 217.56 236.327 218.4 236.327 218.4ZM249.827 175.92C250.067 175.92 251.027 175.14 252.707 173.58C254.507 172.02 256.427 170.22 258.467 168.18C260.867 165.9 263.567 163.26 266.567 160.26C266.687 160.26 266.687 160.14 266.567 159.9C266.327 159.78 266.327 159.48 266.567 159V159.18C266.207 159.42 265.367 160.14 264.047 161.34C262.847 162.54 261.407 163.98 259.727 165.66C258.047 167.34 256.307 169.08 254.507 170.88C252.707 172.8 251.087 174.48 249.647 175.92H249.827ZM271.247 157.92C271.487 157.92 271.787 157.68 272.147 157.2C272.507 156.84 272.687 156.72 272.687 156.84V156.66H272.507C272.387 156.66 272.267 156.72 272.147 156.84C272.027 156.84 271.907 156.84 271.787 156.84C271.067 157.56 270.887 157.92 271.247 157.92ZM229.307 155.58C229.427 155.58 229.547 155.52 229.667 155.4C229.547 155.4 229.487 155.34 229.487 155.22C229.487 155.1 229.427 154.98 229.307 154.86C229.187 154.86 229.067 154.92 228.947 155.04H228.767C228.767 155.4 228.947 155.58 229.307 155.58ZM273.767 152.34C274.007 152.34 274.307 152.04 274.667 151.44C275.027 151.44 275.207 151.32 275.207 151.08V150.9L275.027 151.08C274.907 151.2 274.727 151.26 274.487 151.26C273.527 151.98 273.287 152.34 273.767 152.34ZM274.487 148.2C274.607 148.2 274.787 148.08 275.027 147.84C275.387 147.36 275.447 147.12 275.207 147.12C275.087 147.12 274.907 147.3 274.667 147.66C274.427 148.02 274.367 148.2 274.487 148.2ZM275.027 154.32C275.027 154.32 275.867 153.66 277.547 152.34C279.227 151.02 281.027 149.58 282.947 148.02C284.987 146.46 286.787 145.02 288.347 143.7C290.027 142.26 290.867 141.54 290.867 141.54C290.747 141.54 289.847 142.2 288.167 143.52C286.487 144.84 284.687 146.28 282.767 147.84C280.847 149.4 279.047 150.9 277.367 152.34C275.807 153.66 275.027 154.32 275.027 154.32ZM277.907 141.9C278.027 141.9 278.147 141.66 278.267 141.18C278.507 141.06 278.627 140.94 278.627 140.82C278.627 140.7 278.507 140.64 278.267 140.64C278.147 140.64 277.967 140.76 277.727 141C277.607 141.12 277.607 141.3 277.727 141.54C277.727 141.66 277.787 141.78 277.907 141.9ZM291.407 141.36C291.527 141.36 291.767 141.24 292.127 141C292.487 140.76 292.847 140.46 293.207 140.1C293.567 139.74 293.867 139.44 294.107 139.2C294.347 138.96 294.467 138.84 294.467 138.84C294.347 138.84 293.807 139.2 292.847 139.92C292.007 140.52 291.527 140.94 291.407 141.18V141.36ZM294.827 138.66C295.067 138.66 295.367 138.42 295.727 137.94C296.087 137.58 296.267 137.46 296.267 137.58V137.4C296.267 137.52 296.207 137.58 296.087 137.58H295.547C294.827 138.3 294.587 138.66 294.827 138.66ZM278.627 139.92C278.627 139.92 278.747 139.74 278.987 139.38C279.347 138.9 279.647 138.42 279.887 137.94C280.127 137.34 280.367 136.86 280.607 136.5C280.847 136.02 280.907 135.78 280.787 135.78C280.667 135.78 280.487 135.96 280.247 136.32C280.007 136.68 279.767 137.1 279.527 137.58C279.287 138.06 279.047 138.54 278.807 139.02C278.687 139.5 278.627 139.8 278.627 139.92ZM297.887 136.32C298.127 136.32 298.427 136.08 298.787 135.6C299.147 135.24 299.327 135.12 299.327 135.24V135.06L299.147 135.24H298.607C297.887 135.96 297.647 136.32 297.887 136.32ZM269.807 135.96C270.047 135.96 270.467 135.6 271.067 134.88C271.307 134.88 271.547 134.7 271.787 134.34C272.027 133.98 272.027 133.8 271.787 133.8L271.427 134.16C271.307 134.28 271.127 134.4 270.887 134.52C270.767 134.64 270.647 134.76 270.527 134.88C270.287 135.12 270.167 135.3 270.167 135.42C270.167 135.54 270.107 135.66 269.987 135.78L269.807 135.96ZM280.787 135.06C280.907 135.06 281.087 134.88 281.327 134.52C281.567 134.52 281.687 134.46 281.687 134.34C281.807 134.1 281.807 133.92 281.687 133.8C281.447 133.8 281.147 133.98 280.787 134.34C280.307 134.82 280.307 135.06 280.787 135.06ZM300.047 134.7C300.287 134.7 300.947 134.34 302.027 133.62C303.107 132.9 303.587 132.54 303.467 132.54C303.347 132.54 302.807 132.84 301.847 133.44C300.887 133.92 300.287 134.28 300.047 134.52V134.7ZM282.947 130.74C283.067 130.74 283.307 130.38 283.667 129.66C284.147 128.94 284.627 128.16 285.107 127.32C285.587 126.36 285.947 125.52 286.187 124.8C286.547 123.96 286.667 123.54 286.547 123.54C286.307 123.9 285.947 124.5 285.467 125.34C284.987 126.06 284.567 126.84 284.207 127.68C283.847 128.4 283.487 129.12 283.127 129.84C282.887 130.44 282.827 130.74 282.947 130.74ZM273.407 134.88C273.527 134.88 274.247 134.34 275.567 133.26C276.887 132.06 278.387 130.62 280.067 128.94C280.187 128.82 280.547 128.52 281.147 128.04C281.747 127.44 282.347 126.78 282.947 126.06C283.667 125.34 284.267 124.74 284.747 124.26C285.347 123.66 285.587 123.3 285.467 123.18L284.747 123.9C284.507 124.14 284.147 124.44 283.667 124.8C283.307 125.16 282.887 125.52 282.407 125.88C281.447 126.96 280.247 128.22 278.807 129.66C277.487 130.98 276.347 132.12 275.387 133.08C275.027 133.44 274.727 133.74 274.487 133.98C274.247 134.1 274.007 134.28 273.767 134.52L273.407 134.88ZM273.587 132.72C273.827 132.6 274.547 132 275.747 130.92C276.947 129.84 278.147 128.7 279.347 127.5C280.667 126.3 281.807 125.22 282.767 124.26C283.727 123.18 284.147 122.64 284.027 122.64C283.907 122.64 283.727 122.76 283.487 123C283.247 123.24 282.947 123.48 282.587 123.72C282.347 123.96 282.107 124.2 281.867 124.44C281.147 125.16 280.247 126 279.167 126.96C278.207 127.92 277.247 128.88 276.287 129.84C275.447 130.68 274.727 131.4 274.127 132C273.647 132.6 273.407 132.9 273.407 132.9L273.587 132.72ZM267.467 122.82C267.827 122.82 268.367 122.52 269.087 121.92C269.207 121.92 269.687 121.62 270.527 121.02C271.367 120.42 271.727 120.12 271.607 120.12C271.487 120.12 270.947 120.42 269.987 121.02C269.147 121.62 268.427 122.1 267.827 122.46C267.587 122.7 267.467 122.82 267.467 122.82ZM281.867 122.64C281.867 122.64 281.987 122.58 282.227 122.46C282.827 121.86 283.247 121.32 283.487 120.84C283.847 120.36 283.907 120.12 283.667 120.12L283.307 120.48C283.187 120.72 283.067 120.96 282.947 121.2C282.827 121.32 282.647 121.5 282.407 121.74C281.927 122.34 281.747 122.64 281.867 122.64ZM287.087 122.28C287.327 122.04 287.687 121.5 288.167 120.66C288.647 119.82 288.767 119.4 288.527 119.4C288.287 119.64 287.927 120.18 287.447 121.02C286.967 121.86 286.787 122.28 286.907 122.28H287.087ZM284.927 120.48C285.047 120.48 285.227 120.3 285.467 119.94C285.707 119.58 285.827 119.22 285.827 118.86C285.827 118.38 285.707 118.14 285.467 118.14V117.96C285.227 117.96 284.987 118.5 284.747 119.58C284.627 120.18 284.687 120.48 284.927 120.48ZM268.187 118.86C268.427 118.86 268.727 118.8 269.087 118.68C269.207 118.44 269.387 118.26 269.627 118.14C269.987 117.9 270.047 117.78 269.807 117.78C269.687 117.78 269.567 117.84 269.447 117.96C269.327 118.08 269.207 118.14 269.087 118.14C268.247 118.62 267.947 118.86 268.187 118.86ZM241.367 150.54C241.367 150.54 241.427 150.42 241.547 150.18C241.787 149.94 241.907 149.82 241.907 149.82C242.027 149.82 242.087 149.88 242.087 150C242.087 150 242.147 150 242.267 150H242.447L242.267 149.64C242.147 149.4 242.327 149.28 242.807 149.28H243.167H243.707C244.187 149.28 244.307 149.1 244.067 148.74V148.2C244.187 148.2 244.247 148.26 244.247 148.38C244.247 148.38 244.307 148.38 244.427 148.38L244.607 148.56C245.447 148.56 247.307 147.66 250.187 145.86C253.067 143.94 256.127 141.84 259.367 139.56C262.607 137.28 265.547 135.18 268.187 133.26C270.947 131.22 272.507 130.02 272.867 129.66C274.667 128.34 276.107 127.26 277.187 126.42C278.387 125.46 279.287 124.68 279.887 124.08C280.607 123.36 281.147 122.76 281.507 122.28C281.867 121.68 282.227 121.08 282.587 120.48C282.827 119.64 283.127 118.8 283.487 117.96C283.847 117.12 283.727 116.7 283.127 116.7L282.947 116.88C282.347 116.88 281.267 117.3 279.707 118.14C278.147 118.86 276.287 119.88 274.127 121.2C272.087 122.52 269.747 124.14 267.107 126.06C264.587 127.86 262.007 129.84 259.367 132C257.567 133.44 255.587 135.12 253.427 137.04C251.387 138.96 249.407 140.88 247.487 142.8C245.687 144.72 244.187 146.4 242.987 147.84C241.787 149.28 241.247 150.18 241.367 150.54ZM275.027 115.98C275.147 115.98 275.447 115.92 275.927 115.8C276.527 115.56 277.067 115.32 277.547 115.08C278.147 114.72 278.567 114.48 278.807 114.36C279.167 114.12 279.227 114 278.987 114C278.267 114.12 277.367 114.48 276.287 115.08C275.207 115.68 274.787 115.98 275.027 115.98ZM282.767 112.56C283.247 112.56 283.487 112.5 283.487 112.38C283.487 112.26 283.187 112.08 282.587 111.84C282.467 111.72 282.167 111.66 281.687 111.66C281.327 111.54 281.027 111.48 280.787 111.48C280.307 111.48 280.187 111.6 280.427 111.84C280.787 112.08 281.267 112.26 281.867 112.38C282.107 112.5 282.407 112.56 282.767 112.56ZM282.587 109.14C283.307 109.14 283.667 109.2 283.667 109.32C283.547 109.92 284.147 110.52 285.467 111.12C286.787 111.6 287.627 111.96 287.987 112.2L286.727 111.84C285.887 111.84 285.467 111.96 285.467 112.2C285.467 112.32 285.407 112.44 285.287 112.56C285.167 112.56 285.047 112.5 284.927 112.38H284.747C284.627 112.38 284.687 112.56 284.927 112.92C285.167 113.16 285.527 113.4 286.007 113.64C286.847 114.48 287.327 115.08 287.447 115.44C287.567 115.68 287.507 116.16 287.267 116.88C287.027 117.72 287.027 118.14 287.267 118.14H287.447C287.687 118.14 287.747 118.32 287.627 118.68C287.627 118.92 287.447 119.16 287.087 119.4C286.607 119.76 286.187 120.18 285.827 120.66C285.587 121.02 285.587 121.2 285.827 121.2C285.947 121.2 286.367 120.84 287.087 120.12C287.927 118.92 288.347 118.26 288.347 118.14C288.227 118.02 288.287 117.84 288.527 117.6C288.767 117.24 289.007 116.94 289.247 116.7C289.487 116.46 289.727 116.22 289.967 115.98C290.327 115.74 290.567 115.56 290.687 115.44L289.787 116.52C289.427 117.12 289.247 117.54 289.247 117.78C289.247 117.9 289.547 118.2 290.147 118.68C290.507 118.92 290.687 119.1 290.687 119.22C290.807 119.34 290.807 119.4 290.687 119.4H290.507C290.147 119.4 289.547 120.18 288.707 121.74C287.867 123.3 286.967 125.1 286.007 127.14C285.047 129.06 284.207 130.86 283.487 132.54C282.767 134.22 282.347 135.24 282.227 135.6C280.427 139.44 279.167 142.14 278.447 143.7C277.727 145.14 277.427 145.86 277.547 145.86C277.667 145.86 278.147 145.02 278.987 143.34C279.947 141.66 280.967 139.8 282.047 137.76C283.367 135.36 284.747 132.6 286.187 129.48C285.107 131.64 284.207 133.56 283.487 135.24C282.887 136.68 282.287 138.06 281.687 139.38C281.207 140.7 281.027 141.42 281.147 141.54C281.147 141.78 281.027 141.9 280.787 141.9C280.427 141.9 280.127 142.38 279.887 143.34C279.647 143.94 279.587 144.24 279.707 144.24C279.827 144.24 281.567 142.98 284.927 140.46C285.407 140.1 286.307 139.44 287.627 138.48C289.067 137.52 290.567 136.56 292.127 135.6C293.687 134.52 295.127 133.62 296.447 132.9C297.887 132.06 298.787 131.64 299.147 131.64C299.387 131.64 299.447 131.76 299.327 132C299.087 132.36 299.087 132.54 299.327 132.54H299.687C299.927 132.42 300.167 132.36 300.407 132.36C300.527 132.36 300.347 132.54 299.867 132.9C299.387 133.14 298.547 133.68 297.347 134.52C294.947 135.96 292.547 137.52 290.147 139.2C287.867 140.88 285.767 142.5 283.847 144.06C282.047 145.5 280.547 146.76 279.347 147.84C278.147 148.92 277.547 149.64 277.547 150C277.547 150.24 277.607 150.36 277.727 150.36C277.727 150.36 278.027 150.06 278.627 149.46C278.747 149.1 278.987 148.86 279.347 148.74C279.467 148.62 279.647 148.5 279.887 148.38C280.247 148.38 281.027 147.78 282.227 146.58C283.787 145.14 285.707 143.58 287.987 141.9C290.267 140.22 292.547 138.66 294.827 137.22C297.107 135.78 299.087 134.58 300.767 133.62C302.567 132.54 303.647 132 304.007 132C304.367 132 303.767 132.66 302.207 133.98C300.767 135.3 297.947 137.64 293.747 141C292.307 142.08 290.567 143.46 288.527 145.14C286.487 146.7 284.447 148.32 282.407 150C280.487 151.56 278.687 153.06 277.007 154.5C275.447 155.82 274.307 156.78 273.587 157.38C273.107 157.74 272.687 158.16 272.327 158.64C271.967 159 271.907 159.3 272.147 159.54C272.147 159.78 272.027 159.9 271.787 159.9C271.667 159.9 271.487 160.08 271.247 160.44C271.007 160.8 270.767 161.22 270.527 161.7C270.287 162.18 270.107 162.66 269.987 163.14C269.867 163.62 269.807 163.92 269.807 164.04V164.22C269.807 164.34 269.747 164.4 269.627 164.4C269.387 164.4 269.027 164.88 268.547 165.84C268.067 166.8 267.887 167.4 268.007 167.64V167.82C268.007 167.94 267.947 168 267.827 168C267.587 168 267.227 168.48 266.747 169.44C266.267 170.4 266.087 171 266.207 171.24C266.447 171.24 266.507 171.3 266.387 171.42C266.267 171.54 266.147 171.6 266.027 171.6C265.547 171.6 265.427 171.72 265.667 171.96C265.907 172.44 265.787 172.62 265.307 172.5C264.947 172.5 264.887 172.68 265.127 173.04C265.367 173.4 265.307 173.58 264.947 173.58C264.587 173.58 264.527 173.76 264.767 174.12V174.48C264.647 174.48 264.527 174.42 264.407 174.3H264.227C263.747 174.3 263.627 174.72 263.867 175.56C264.107 175.8 263.987 175.92 263.507 175.92C263.147 176.04 263.087 176.22 263.327 176.46C263.327 176.82 263.267 177 263.147 177C262.907 177 262.607 177.3 262.247 177.9C262.007 178.5 261.947 178.92 262.067 179.16L261.887 179.34C261.767 179.46 261.647 179.52 261.527 179.52C261.167 179.52 261.107 179.7 261.347 180.06C261.467 180.3 261.347 180.42 260.987 180.42C260.747 180.42 260.687 180.54 260.807 180.78C261.047 181.02 260.927 181.2 260.447 181.32C259.967 181.56 259.847 181.8 260.087 182.04C260.087 182.4 259.967 182.58 259.727 182.58C259.487 182.58 259.247 182.94 259.007 183.66C258.887 184.38 258.707 185.16 258.467 186C258.467 186.24 258.407 186.36 258.287 186.36C258.167 186.36 258.107 186.3 258.107 186.18C258.107 186.18 258.047 186.18 257.927 186.18L257.747 186C257.507 186 257.507 186.12 257.747 186.36C257.987 186.84 257.867 187.2 257.387 187.44C256.907 187.8 256.607 188.22 256.487 188.7C256.487 189.06 256.247 189.6 255.767 190.32C255.047 191.04 254.867 191.46 255.227 191.58C255.467 191.82 255.407 191.94 255.047 191.94C254.807 191.94 254.687 192.18 254.687 192.66C254.687 193.14 254.327 193.92 253.607 195C252.887 196.08 252.407 196.62 252.167 196.62C251.567 196.62 251.447 196.8 251.807 197.16C252.167 197.52 251.987 197.94 251.267 198.42C251.147 198.66 250.967 198.84 250.727 198.96C250.607 199.2 250.607 199.38 250.727 199.5C250.967 199.74 250.847 199.8 250.367 199.68C249.887 199.68 249.767 199.8 250.007 200.04C250.127 200.16 249.647 201.06 248.567 202.74C247.607 204.42 246.467 206.22 245.147 208.14C243.947 210.06 242.747 211.8 241.547 213.36C240.347 215.04 239.687 215.94 239.567 216.06C239.207 216.06 239.027 216.18 239.027 216.42C239.027 216.54 238.607 217.14 237.767 218.22C237.047 219.3 236.087 220.56 234.887 222C233.687 223.44 232.367 224.88 230.927 226.32C229.607 227.88 228.467 229.14 227.507 230.1C224.867 232.74 222.587 234.54 220.667 235.5C218.867 236.58 217.007 237.12 215.087 237.12C213.287 237.12 212.087 236.82 211.487 236.22C211.007 235.74 210.767 235.32 210.767 234.96C210.767 234.6 210.527 234.3 210.047 234.06C209.567 233.94 209.567 233.88 210.047 233.88C210.407 233.88 210.527 233.52 210.407 232.8C210.167 232.08 209.927 231.72 209.687 231.72C209.447 231.72 209.447 231.84 209.687 232.08C209.687 232.2 209.747 232.32 209.867 232.44V232.62C209.747 232.62 209.687 232.56 209.687 232.44C209.687 232.44 209.627 232.32 209.507 232.08C208.787 231.6 209.387 229.08 211.307 224.52C213.227 220.08 216.527 214.26 221.207 207.06C225.887 199.98 232.007 191.94 239.567 182.94C247.127 173.94 256.247 164.58 266.927 154.86C270.047 152.1 271.787 150.18 272.147 149.1C272.267 148.74 272.387 148.44 272.507 148.2C272.627 147.84 272.687 147.54 272.687 147.3L273.047 146.94C273.167 146.82 273.347 146.52 273.587 146.04C274.547 145.2 274.907 144.36 274.667 143.52C274.667 143.4 274.727 143.28 274.847 143.16C274.967 143.04 275.027 142.98 275.027 142.98C275.147 142.98 275.267 142.92 275.387 142.8C275.987 142.2 276.287 141.66 276.287 141.18C276.287 140.46 276.467 140.1 276.827 140.1C276.827 140.1 276.827 139.98 276.827 139.74C276.827 139.38 276.887 139.2 277.007 139.2C277.367 139.2 277.427 139.02 277.187 138.66C277.067 138.3 277.187 138.12 277.547 138.12C277.907 138.12 277.967 138 277.727 137.76C277.487 137.52 277.607 137.28 278.087 137.04C278.327 136.92 278.507 136.56 278.627 135.96C278.747 135.24 278.987 134.76 279.347 134.52C279.707 134.4 279.767 134.22 279.527 133.98C279.287 133.62 279.467 133.44 280.067 133.44C280.667 133.44 280.847 133.38 280.607 133.26C280.367 133.02 280.427 132.78 280.787 132.54C281.267 132.06 281.387 131.7 281.147 131.46C280.907 131.34 280.787 131.22 280.787 131.1C280.787 130.98 280.907 130.92 281.147 130.92C281.387 130.92 281.747 130.5 282.227 129.66C282.707 128.7 282.827 128.22 282.587 128.22C282.347 128.22 281.747 128.88 280.787 130.2C278.987 132.36 276.167 135.24 272.327 138.84C268.607 142.44 264.467 145.92 259.907 149.28C255.467 152.64 251.027 155.58 246.587 158.1C242.147 160.5 238.367 161.7 235.247 161.7C234.407 161.7 233.747 161.64 233.267 161.52C231.467 161.04 230.387 160.62 230.027 160.26C229.787 159.9 229.787 159.72 230.027 159.72C230.387 159.72 230.627 159.78 230.747 159.9C230.867 160.02 230.987 160.08 231.107 160.08L230.567 159.54C229.967 158.94 229.667 158.22 229.667 157.38C230.027 156.66 229.787 156.3 228.947 156.3C228.227 156.3 227.867 155.82 227.867 154.86C227.867 153.78 228.167 152.58 228.767 151.26C229.487 149.94 230.327 148.62 231.287 147.3C232.247 145.86 233.387 144.36 234.707 142.8C234.707 142.44 235.187 141.84 236.147 141C237.107 140.04 237.707 139.38 237.947 139.02L237.407 139.56C237.527 139.56 237.887 139.26 238.487 138.66C239.087 138.18 239.327 137.94 239.207 137.94C238.967 137.94 238.547 138.18 237.947 138.66C237.707 139.14 237.407 139.56 237.047 139.92C236.927 139.8 237.287 139.38 238.127 138.66C239.087 137.82 240.107 136.92 241.187 135.96C242.267 135 243.227 134.1 244.067 133.26C244.907 132.42 245.267 131.88 245.147 131.64C244.907 131.4 245.027 131.34 245.507 131.46C245.987 131.46 246.107 131.28 245.867 130.92C245.867 130.32 246.047 130.14 246.407 130.38C246.887 130.5 247.067 130.32 246.947 129.84C246.947 129.6 247.007 129.48 247.127 129.48V129.66C247.247 129.66 247.307 129.72 247.307 129.84C247.307 129.84 247.367 129.84 247.487 129.84C247.847 129.84 248.267 129.6 248.747 129.12C249.227 128.64 249.407 128.28 249.287 128.04C249.047 127.92 249.107 127.86 249.467 127.86C249.827 127.86 250.007 127.68 250.007 127.32C250.007 126.96 250.187 126.78 250.547 126.78H250.727C250.967 126.78 251.327 126.66 251.807 126.42C252.287 126.06 252.767 125.7 253.247 125.34C253.727 124.86 254.147 124.44 254.507 124.08C254.867 123.6 254.987 123.3 254.867 123.18C254.747 123.06 254.747 122.94 254.867 122.82C254.987 122.82 255.107 122.88 255.227 123H255.587C255.947 123 256.247 122.88 256.487 122.64C256.847 122.28 256.907 121.98 256.667 121.74C256.667 121.5 256.727 121.38 256.847 121.38H257.027H257.207C257.567 121.38 258.047 121.2 258.647 120.84C259.367 120.48 259.667 120.18 259.547 119.94C259.427 119.94 259.367 119.88 259.367 119.76C259.487 119.64 259.607 119.58 259.727 119.58C259.967 119.58 260.567 119.34 261.527 118.86C262.487 118.26 263.627 117.6 264.947 116.88C268.307 114.84 271.187 113.28 273.587 112.2C276.107 111 278.267 110.28 280.067 110.04C280.667 110.04 281.147 110.04 281.507 110.04C281.987 109.92 282.347 109.62 282.587 109.14ZM323.827 153.6C324.067 153.6 324.607 153.42 325.447 153.06C326.407 152.58 327.247 152.04 327.967 151.44C327.967 151.44 327.907 151.38 327.787 151.26C327.547 151.26 327.187 151.5 326.707 151.98C325.507 152.58 324.667 153 324.187 153.24C323.827 153.48 323.707 153.6 323.827 153.6ZM294.307 151.62C294.547 151.62 294.667 151.38 294.667 150.9C294.427 150.66 294.247 150.42 294.127 150.18C294.127 149.82 294.007 149.64 293.767 149.64C293.887 149.88 293.947 150.24 293.947 150.72C293.947 151.32 294.067 151.62 294.307 151.62ZM293.767 149.64C293.647 149.64 293.587 149.7 293.587 149.82L293.767 149.64ZM329.227 150.72C329.467 150.72 330.067 150.42 331.027 149.82C332.107 149.22 332.527 148.8 332.287 148.56C332.047 148.56 331.447 148.86 330.487 149.46C329.527 150.06 329.047 150.48 329.047 150.72H329.227ZM320.587 158.64C320.947 158.64 322.087 158.1 324.007 157.02C325.927 155.82 327.967 154.56 330.127 153.24C332.287 151.8 334.147 150.48 335.707 149.28C337.387 148.08 338.167 147.42 338.047 147.3C337.807 147.42 337.567 147.54 337.327 147.66C337.207 147.78 337.027 147.9 336.787 148.02C335.107 149.34 333.307 150.66 331.387 151.98C329.587 153.18 327.847 154.26 326.167 155.22C324.247 156.42 322.387 157.56 320.587 158.64ZM296.287 148.2C296.527 148.2 296.887 148.08 297.367 147.84C297.847 147.48 298.387 147.24 298.987 147.12C299.587 146.88 300.067 146.64 300.427 146.4C300.907 146.16 300.907 146.04 300.427 146.04C300.187 146.04 299.707 146.28 298.987 146.76C298.387 147.12 297.607 147.48 296.647 147.84C295.927 148.08 295.807 148.2 296.287 148.2ZM338.767 147.12C338.767 147.12 339.007 146.88 339.487 146.4C339.607 146.16 339.787 145.92 340.027 145.68H339.847C339.967 145.68 339.847 145.86 339.487 146.22L338.947 146.76C338.827 146.88 338.767 147 338.767 147.12ZM296.647 143.52C296.647 143.52 297.067 142.92 297.907 141.72L298.987 140.1C298.747 140.34 298.267 140.88 297.547 141.72C296.947 142.44 296.647 142.92 296.647 143.16V143.52ZM302.767 145.32C302.407 145.44 302.587 145.32 303.307 144.96C304.147 144.6 305.107 144.18 306.187 143.7C307.387 143.1 308.527 142.5 309.607 141.9C310.807 141.3 311.527 140.88 311.767 140.64C312.007 140.4 312.187 140.28 312.307 140.28V140.46H312.487C312.727 140.46 313.027 140.34 313.387 140.1C313.867 139.86 314.047 139.62 313.927 139.38C313.687 138.9 313.867 138.66 314.467 138.66C314.587 138.66 314.647 138.72 314.647 138.84C314.767 138.84 314.947 138.84 315.187 138.84V139.02C315.187 139.02 315.187 138.9 315.187 138.66C314.947 138.42 315.067 138.12 315.547 137.76C316.027 137.4 316.387 137.22 316.627 137.22L316.807 137.4C316.927 137.4 316.987 137.34 316.987 137.22C317.107 136.98 317.107 136.86 316.987 136.86C316.387 136.86 315.187 137.58 313.387 139.02C312.307 139.74 311.047 140.52 309.607 141.36C308.167 142.2 306.907 142.92 305.827 143.52C304.867 144 304.087 144.42 303.487 144.78C302.887 145.14 302.647 145.32 302.767 145.32ZM299.527 136.68C299.647 136.68 299.767 136.62 299.887 136.5C300.127 136.26 300.307 136.02 300.427 135.78C301.147 135.06 301.387 134.7 301.147 134.7L300.787 135.06C300.667 135.18 300.547 135.3 300.427 135.42C300.307 135.42 300.187 135.54 300.067 135.78C299.467 136.38 299.287 136.68 299.527 136.68ZM314.107 141.36C314.227 141.36 314.827 141 315.907 140.28C316.987 139.56 318.127 138.84 319.327 138.12C319.447 138 319.747 137.76 320.227 137.4C320.827 137.04 321.307 136.68 321.667 136.32C322.147 135.84 322.507 135.48 322.747 135.24C323.107 134.88 323.227 134.7 323.107 134.7C323.107 134.7 322.687 135 321.847 135.6C321.007 136.2 320.047 136.92 318.967 137.76C318.007 138.48 317.107 139.14 316.267 139.74C315.427 140.34 314.947 140.64 314.827 140.64C314.587 140.76 314.467 140.88 314.467 141C314.467 141 314.407 141.06 314.287 141.18L314.107 141.36ZM298.267 143.34C298.867 143.34 300.547 142.8 303.307 141.72C308.467 139.44 313.087 136.26 317.167 132.18C318.607 130.74 319.507 129.78 319.867 129.3C320.347 128.82 320.347 128.58 319.867 128.58C319.627 128.58 319.207 128.64 318.607 128.76C318.127 128.88 317.467 129 316.627 129.12C315.667 129.12 315.187 129.3 315.187 129.66C315.067 129.66 314.887 129.72 314.647 129.84C314.407 129.96 314.167 130.08 313.927 130.2C313.687 130.32 313.387 130.44 313.027 130.56C311.347 131.16 309.607 132.12 307.807 133.44C306.007 134.64 304.387 135.96 302.947 137.4C301.507 138.72 300.307 139.92 299.347 141C298.387 142.08 297.907 142.8 297.907 143.16C297.907 143.28 298.027 143.34 298.267 143.34ZM326.887 130.56C326.887 130.68 327.007 130.5 327.247 130.02C327.607 129.54 327.787 129.12 327.787 128.76C327.907 128.28 327.907 128.04 327.787 128.04C327.547 128.04 327.547 128.22 327.787 128.58C327.547 128.94 327.367 129.24 327.247 129.48C327.247 129.72 327.187 129.96 327.067 130.2C326.947 130.44 326.827 130.62 326.707 130.74L326.887 130.56ZM324.007 124.62C324.247 124.62 324.367 124.56 324.367 124.44C324.847 124.32 324.967 123.96 324.727 123.36C324.727 123.24 324.547 123.18 324.187 123.18L323.827 123.36C323.347 124.2 323.407 124.62 324.007 124.62ZM325.987 124.62C326.227 124.38 326.347 124.08 326.347 123.72C326.467 123.36 326.407 123.18 326.167 123.18C325.807 123.18 325.567 123.48 325.447 124.08C325.447 124.56 325.567 124.8 325.807 124.8L325.987 124.62ZM320.407 121.38C320.407 121.38 320.347 121.26 320.227 121.02C319.987 120.78 319.687 120.66 319.327 120.66C318.727 120.66 318.787 120.78 319.507 121.02C319.987 121.38 320.287 121.56 320.407 121.56V121.38ZM324.367 121.38C324.607 121.38 324.787 121.32 324.907 121.2C325.027 121.08 325.027 120.96 324.907 120.84L324.187 120.12C323.827 120.12 323.647 120.3 323.647 120.66C323.647 121.14 323.887 121.38 324.367 121.38ZM322.027 117.96C322.987 118.56 323.587 118.86 323.827 118.86C324.187 118.86 324.967 119.46 326.167 120.66C326.887 121.38 327.307 121.98 327.427 122.46C327.667 122.82 327.727 123.18 327.607 123.54C327.607 123.78 327.547 124.14 327.427 124.62C327.427 124.98 327.607 125.52 327.967 126.24C328.687 127.08 328.867 127.68 328.507 128.04C328.267 128.28 328.267 128.4 328.507 128.4C328.627 128.4 328.687 128.34 328.687 128.22C328.927 128.1 329.047 127.86 329.047 127.5C329.167 127.14 329.347 126.84 329.587 126.6C329.707 126.24 329.887 125.88 330.127 125.52C330.127 125.52 330.127 126.12 330.127 127.32C329.887 129 329.527 130.32 329.047 131.28C328.567 132.24 327.607 133.38 326.167 134.7C324.847 135.9 322.867 137.34 320.227 139.02C317.707 140.7 314.947 142.32 311.947 143.88C309.067 145.32 306.247 146.58 303.487 147.66C300.847 148.74 298.747 149.28 297.187 149.28H296.827C296.107 149.28 295.807 149.82 295.927 150.9C296.167 151.98 296.407 152.94 296.647 153.78C297.367 155.22 299.227 155.94 302.227 155.94C304.627 155.94 307.567 155.46 311.047 154.5C314.527 153.54 318.367 152.16 322.567 150.36C326.887 148.44 331.387 146.1 336.067 143.34C340.747 140.58 345.427 137.34 350.107 133.62C350.707 133.14 351.187 132.9 351.547 132.9C351.307 133.38 351.007 133.74 350.647 133.98C350.407 134.1 350.047 134.4 349.567 134.88C349.207 135.36 348.727 135.84 348.127 136.32C347.647 136.8 347.107 137.22 346.507 137.58C346.027 137.94 345.667 138.12 345.427 138.12H345.247C344.887 138.12 344.767 138.18 344.887 138.3C345.007 138.54 344.647 139.02 343.807 139.74C343.087 140.34 342.247 141.06 341.287 141.9C340.327 142.74 339.367 143.52 338.407 144.24C337.567 144.84 337.087 145.2 336.967 145.32C336.007 145.92 335.227 146.52 334.627 147.12C334.027 147.6 333.847 147.84 334.087 147.84C334.447 147.84 335.587 147.18 337.507 145.86C339.427 144.54 342.607 142.02 347.047 138.3C350.167 135.66 351.847 134.34 352.087 134.34C352.207 134.34 351.187 135.42 349.027 137.58C347.827 138.78 346.807 139.8 345.967 140.64C345.127 141.36 344.647 141.72 344.527 141.72C344.167 141.72 343.567 142.32 342.727 143.52L341.107 145.5C341.347 145.38 341.887 144.84 342.727 143.88C343.687 142.92 344.287 142.44 344.527 142.44C344.647 142.44 345.007 142.2 345.607 141.72C346.327 141.12 347.047 140.46 347.767 139.74C348.487 139.02 349.147 138.36 349.747 137.76C350.467 137.16 350.827 136.86 350.827 136.86C351.067 136.62 351.247 136.44 351.367 136.32C351.607 136.2 351.847 136.08 352.087 135.96L352.447 135.6C352.567 135.6 351.847 136.32 350.287 137.76C348.967 139.08 347.527 140.58 345.967 142.26C344.527 143.94 342.127 146.16 338.767 148.92C334.207 152.64 329.347 156.06 324.187 159.18C319.027 162.18 313.507 164.46 307.627 166.02C306.307 166.5 304.507 166.74 302.227 166.74C298.627 166.74 295.327 166.08 292.327 164.76C292.327 164.64 292.027 164.4 291.427 164.04C291.187 163.8 290.887 163.56 290.527 163.32C290.167 163.08 289.867 162.96 289.627 162.96C289.387 162.84 289.147 162.66 288.907 162.42V162.24C288.907 161.88 288.787 161.7 288.547 161.7H288.187C287.467 160.74 287.047 159.9 286.927 159.18C286.687 158.1 286.387 157.56 286.027 157.56H285.847L285.667 157.74C285.547 157.74 285.607 157.5 285.847 157.02C286.327 156.3 286.327 155.94 285.847 155.94C285.727 155.94 285.547 156.06 285.307 156.3L284.947 156.66C284.947 156.66 285.007 156.54 285.127 156.3C285.127 155.58 285.007 155.16 284.767 155.04C284.647 154.92 284.527 154.56 284.407 153.96C284.407 153.36 284.347 152.7 284.227 151.98C284.227 151.14 284.227 150.3 284.227 149.46C284.347 148.62 284.467 147.9 284.587 147.3C284.707 146.58 285.007 145.62 285.487 144.42C286.087 143.1 286.747 141.78 287.467 140.46C288.187 139.02 288.907 137.76 289.627 136.68C290.467 135.48 291.187 134.58 291.787 133.98C292.027 133.74 292.207 133.56 292.327 133.44C292.447 133.2 292.567 133.02 292.687 132.9L293.047 132.54C292.927 132.54 292.867 132.6 292.867 132.72C292.747 132.84 292.627 132.9 292.507 132.9C292.387 132.9 292.567 132.66 293.047 132.18C293.647 131.34 294.187 130.92 294.667 130.92C294.907 130.92 295.267 130.68 295.747 130.2C296.227 129.6 296.347 129.24 296.107 129.12C295.987 129 296.227 128.64 296.827 128.04C297.427 127.44 298.147 126.84 298.987 126.24C299.947 125.64 300.847 125.1 301.687 124.62C302.527 124.02 303.067 123.72 303.307 123.72C303.427 123.72 302.407 124.5 300.247 126.06C299.647 126.42 299.107 126.78 298.627 127.14C298.267 127.38 297.967 127.62 297.727 127.86C297.367 128.22 297.067 128.46 296.827 128.58H297.007C297.247 128.58 297.727 128.34 298.447 127.86C299.167 127.38 300.007 126.84 300.967 126.24C302.407 125.4 303.487 124.68 304.207 124.08C304.687 123.72 305.047 123.48 305.287 123.36C305.287 123.36 305.047 123.48 304.567 123.72C304.447 123.72 304.327 123.78 304.207 123.9V123.72C304.207 123.72 304.267 123.6 304.387 123.36C304.627 123.24 305.227 122.94 306.187 122.46C307.267 121.98 308.467 121.5 309.787 121.02C311.107 120.54 312.427 120.06 313.747 119.58C315.067 119.1 316.207 118.74 317.167 118.5C318.007 118.38 318.607 118.26 318.967 118.14C319.447 118.02 319.867 117.96 320.227 117.96H322.027ZM341.16 163.5C341.16 163.5 341.46 163.02 342.06 162.06C342.66 160.98 343.26 159.9 343.86 158.82C344.58 157.62 345.18 156.54 345.66 155.58C346.26 154.62 346.56 154.14 346.56 154.14C346.44 154.14 346.08 154.62 345.48 155.58C344.88 156.54 344.22 157.62 343.5 158.82C342.78 160.02 342.12 161.16 341.52 162.24C340.92 163.32 340.62 163.92 340.62 164.04C340.38 164.4 340.38 164.58 340.62 164.58L341.16 163.5ZM337.02 151.98C337.14 151.86 337.26 151.68 337.38 151.44C337.5 151.08 337.44 150.9 337.2 150.9C336.96 151.14 336.78 151.38 336.66 151.62C336.54 151.86 336.6 151.98 336.84 151.98H337.02ZM355.74 131.64C355.98 131.64 356.22 131.46 356.46 131.1C356.82 130.62 356.88 130.38 356.64 130.38C356.52 130.38 356.4 130.44 356.28 130.56C356.04 130.8 355.86 130.92 355.74 130.92C355.62 131.4 355.62 131.64 355.74 131.64ZM357 129.66C357.12 129.66 357.24 129.6 357.36 129.48C357.24 129.48 357.18 129.54 357.18 129.66C357.18 129.66 357.12 129.66 357 129.66ZM365.1 128.04C365.22 128.04 365.52 127.74 366 127.14C366.6 126.54 366.78 126.24 366.54 126.24C366.42 126.24 366.3 126.3 366.18 126.42L365.46 127.14C365.34 127.38 365.16 127.62 364.92 127.86C364.8 127.98 364.86 128.04 365.1 128.04ZM353.76 120.66C353.76 120.54 353.82 120.3 353.94 119.94C354.18 119.58 354.18 119.4 353.94 119.4C353.82 119.4 353.76 119.46 353.76 119.58C353.28 120.54 353.16 121.02 353.4 121.02L353.76 120.66ZM375.9 120.12C376.02 120.12 376.32 120 376.8 119.76C377.28 119.52 377.76 119.22 378.24 118.86C378.72 118.5 379.14 118.2 379.5 117.96C379.86 117.72 379.92 117.6 379.68 117.6C379.56 117.6 378.9 118.02 377.7 118.86C376.5 119.58 375.9 120 375.9 120.12ZM383.28 114.72C384.12 114.72 384.42 114.66 384.18 114.54C384.06 114.42 383.7 114.36 383.1 114.36C382.86 114.36 382.68 114.42 382.56 114.54C382.2 114.66 382.44 114.72 383.28 114.72ZM355.92 115.08C356.04 115.08 356.28 114.9 356.64 114.54V114.18V114C356.28 114.24 356.04 114.48 355.92 114.72C355.8 114.96 355.8 115.08 355.92 115.08ZM358.44 105.54C358.2 106.26 358.08 106.62 358.08 106.62C357.96 106.62 357.9 106.68 357.9 106.8V107.34V107.7C358.02 107.7 358.2 107.64 358.44 107.52C358.68 107.28 358.86 107.16 358.98 107.16C359.1 107.16 358.74 108.06 357.9 109.86C356.94 111.3 356.58 112.02 356.82 112.02L358.44 109.86C359.16 108.42 359.7 107.7 360.06 107.7C360.42 107.7 360.12 108.78 359.16 110.94C358.56 112.02 357.66 114 356.46 116.88C355.26 119.64 354 122.64 352.68 125.88C351.36 129.12 350.16 132.24 349.08 135.24C348 138.12 347.34 140.1 347.1 141.18C347.34 140.94 347.7 140.52 348.18 139.92C348.66 139.32 348.78 138.9 348.54 138.66C348.42 138.42 348.54 138.3 348.9 138.3C349.26 138.3 349.44 138.06 349.44 137.58C349.44 137.22 349.68 136.8 350.16 136.32L350.52 135.96C350.4 135.96 350.34 136.02 350.34 136.14C350.34 136.26 350.28 136.38 350.16 136.5C350.16 136.5 350.16 136.56 350.16 136.68L349.62 137.22L349.8 137.04C349.68 137.04 349.86 136.92 350.34 136.68C350.94 136.32 351.3 136.02 351.42 135.78C351.66 135.42 351.66 135.24 351.42 135.24H350.88V135.42L351.06 135.24C351.06 135.24 351.18 135 351.42 134.52C351.66 134.28 351.84 134.1 351.96 133.98C352.2 133.86 352.38 133.74 352.5 133.62L352.86 133.26C353.1 133.26 352.86 133.62 352.14 134.34L351.96 134.52L352.14 134.34C352.26 134.22 352.38 134.16 352.5 134.16C352.62 134.16 352.8 134.04 353.04 133.8C354.48 132.36 355.02 131.64 354.66 131.64H354.48C354.36 131.64 354.18 131.76 353.94 132L353.76 132.18C353.64 132.18 353.88 131.88 354.48 131.28C355.08 130.32 355.62 129.84 356.1 129.84C356.46 129.84 357.06 129.42 357.9 128.58C358.74 127.62 359.22 127.02 359.34 126.78C359.34 126.9 359.4 127.02 359.52 127.14L360.42 126.24L360.24 126.42V126.78C360.84 126.18 361.62 125.4 362.58 124.44C363.54 123.48 363.9 122.88 363.66 122.64C363.66 122.4 363.96 122.28 364.56 122.28C365.28 122.28 365.94 121.8 366.54 120.84C367.14 120 367.68 119.58 368.16 119.58C368.4 119.58 368.7 119.28 369.06 118.68C369.18 118.56 369.24 118.44 369.24 118.32C369.36 118.2 369.48 118.08 369.6 117.96C369.72 117.84 369.84 117.78 369.96 117.78C370.2 117.78 371.1 117.3 372.66 116.34C373.5 115.86 374.34 115.38 375.18 114.9C376.14 114.3 376.98 113.88 377.7 113.64C378.54 113.4 379.62 113.16 380.94 112.92C382.26 112.68 383.4 112.56 384.36 112.56C385.56 112.56 386.04 112.68 385.8 112.92C385.8 113.16 386.4 113.52 387.6 114C388.56 114.36 388.98 114.6 388.86 114.72C388.74 114.72 388.02 114.84 386.7 115.08L388.68 115.98C390.96 117.18 391.14 117.78 389.22 117.78C387.54 117.78 385.02 118.98 381.66 121.38C378.3 123.66 374.52 126.72 370.32 130.56C366.24 134.4 361.98 138.84 357.54 143.88C353.22 148.8 349.2 153.9 345.48 159.18C344.16 160.98 342.96 162.6 341.88 164.04C340.92 165.48 340.32 166.26 340.08 166.38C339.72 166.74 339.66 166.92 339.9 166.92C340.14 166.92 339.78 167.28 338.82 168C337.86 168.84 337.2 169.26 336.84 169.26C336.48 169.26 336.48 169.08 336.84 168.72C336.84 168.48 336.72 168.36 336.48 168.36C336.12 168.36 335.94 168.48 335.94 168.72C335.94 169.08 335.82 169.26 335.58 169.26C335.34 169.26 335.04 169.08 334.68 168.72C334.56 168.48 334.44 168.12 334.32 167.64C334.2 167.04 334.14 166.44 334.14 165.84C334.14 164.64 334.08 164.04 333.96 164.04L333.42 164.58L332.88 165.12C332.64 165.12 332.64 164.58 332.88 163.5C333.48 159.9 334.44 156.06 335.76 151.98C337.08 147.78 338.4 143.94 339.72 140.46C341.04 136.86 342.24 133.92 343.32 131.64C344.4 129.24 345.06 128.04 345.3 128.04C345.42 128.16 345.54 128.22 345.66 128.22C345.66 128.22 345.6 128.1 345.48 127.86C345.24 127.62 345.36 127.02 345.84 126.06C345.96 125.34 346.2 124.98 346.56 124.98C346.56 124.98 346.62 125.1 346.74 125.34C347.22 125.58 347.4 125.7 347.28 125.7V125.52C347.28 125.4 347.22 125.34 347.1 125.34C347.1 125.34 347.1 125.22 347.1 124.98C346.98 124.62 347.16 123.78 347.64 122.46C348.24 121.14 348.9 119.76 349.62 118.32C350.34 116.76 351.06 115.38 351.78 114.18C352.5 112.98 352.98 112.38 353.22 112.38C353.34 112.5 353.46 112.56 353.58 112.56C353.7 112.56 353.64 112.44 353.4 112.2C353.28 112.08 353.4 111.72 353.76 111.12C354.12 110.4 354.54 109.68 355.02 108.96C355.5 108.24 355.92 107.64 356.28 107.16C356.76 106.56 357.12 106.26 357.36 106.26C357.72 106.26 358.08 106.02 358.44 105.54Z" fill="#FFCC19"></path>
</svg>