<svg class="decor-leaf" width="45" height="52" viewBox="0 0 45 52" fill="none" xmlns="http://www.w3.org/2000/svg">
                                                  <g clip-path="url(#clip0_309_817)">
                                                  <path d="M28.7774 35.1758C32.1756 35.1758 35.4432 35.6943 38.3186 37.3796C41.5861 39.3242 43.808 42.0465 44.4615 45.806C44.8536 48.2691 43.2852 50.4729 40.9326 51.2507C38.9721 51.8989 37.1423 51.6397 35.3125 51.1211C32.5677 50.4729 29.823 49.5655 27.0783 48.9173C23.1572 48.0098 19.2362 47.3616 15.3152 47.6209C12.7012 47.7506 10.0871 48.1395 7.60381 49.1766C7.081 49.4358 6.5582 49.5655 6.03539 49.6951C4.98978 49.9544 4.33628 49.1766 4.59768 48.2691C4.85908 47.232 5.51259 46.3245 6.29679 45.5467C11.7862 39.8427 18.3213 36.0832 26.2941 35.3054C26.9476 35.3054 27.8625 35.1758 28.7774 35.1758Z" fill="white"></path>
                                                  <path d="M4.2055 25.3235C4.2055 21.564 3.2906 18.3231 2.37569 15.0822C1.72218 12.6191 0.937976 10.0263 1.06868 7.43359C1.19938 5.3594 1.85288 3.41485 3.552 1.98885C5.90462 0.0442929 9.04145 0.17393 11.3941 2.37776C13.7467 4.45195 14.7923 7.04468 15.3151 9.89669C16.0993 14.434 15.5765 18.8416 14.0081 23.2493C12.0476 28.694 8.91075 33.361 4.59761 37.1204C4.0748 37.639 3.552 38.0279 3.02919 38.4168C2.76779 38.5464 2.37569 38.8057 2.11429 38.8057C1.46078 38.9353 0.807275 38.9354 0.415171 38.4168C0.0230679 37.7686 0.0230679 37.2501 0.415171 36.6019C1.06868 35.5648 1.72218 34.6573 2.24499 33.6202C3.4213 31.546 3.6827 29.3422 3.9441 27.0088C4.0748 26.3606 4.2055 25.7124 4.2055 25.3235Z" fill="white"></path>
                                                  <path d="M35.835 29.4721C33.6131 29.2128 31.3912 28.9535 29.1692 28.6943C25.771 28.3054 22.5035 28.8239 19.4974 30.5092C19.2359 30.6388 18.8438 30.8981 18.4517 31.0277C18.0596 31.1574 17.5368 31.1574 17.1447 30.8981C16.7526 30.5092 16.6219 30.1203 16.7526 29.6017C16.7526 29.4721 16.8833 29.3425 16.8833 29.2128C19.3666 24.4163 22.8956 20.7864 28.385 19.6197C32.5675 18.7122 36.0964 20.1382 38.8411 23.3792C38.9718 23.5088 38.9718 23.5088 38.9718 23.6384C39.756 24.8052 40.2788 26.1015 39.6253 27.5275C38.9718 28.9535 37.6648 29.3425 36.2271 29.4721C36.2271 29.4721 36.0964 29.4721 35.835 29.4721Z" fill="white"></path>
                                                  </g>
                                                  <defs>
                                                  <clipPath id="clip0_309_817">
                                                  <rect width="44.3077" height="51.0769" fill="white" transform="translate(0.153809 0.692383)"></rect>
                                                  </clipPath>
                                                  </defs>
                                                </svg>
