<svg class="decor-leaf-2" width="58" height="58" viewBox="0 0 58 58" fill="none" xmlns="http://www.w3.org/2000/svg">
                                                  <g clip-path="url(#clip0_309_813)">
                                                  <path d="M6.12384 17.2009C7.94472 15.5545 10.0307 15.2134 12.2929 15.5686C15.0775 16.0994 17.6037 17.4121 20.0432 18.8114C24.5738 21.435 29.5367 23.2774 34.7579 24.3379C38.2388 25.0449 41.7168 24.8823 45.1914 23.6761C45.7126 23.5038 45.8871 23.6783 46.2361 24.0273C46.6723 24.4635 46.674 24.9853 46.4145 25.4193C46.0689 26.1139 45.5489 26.634 45.0288 27.1541C40.1729 31.4865 34.6168 34.4252 28.1842 35.2739C21.6645 36.0354 15.573 34.7981 10.0821 31.0409C7.11857 28.9441 5.10964 26.2418 4.66324 22.6748C4.13467 20.586 4.82417 18.675 6.12384 17.2009Z" fill="white"></path>
                                                  <path d="M35.1694 43.9927C37.9444 41.5667 40.806 39.0541 43.4059 36.2797C44.9656 34.5455 46.5253 32.8113 47.3009 30.6398C47.4731 30.1185 47.8199 29.7718 48.3422 29.9474C48.9512 30.0364 49.2135 30.472 49.2152 30.9938C49.7478 34.3002 49.4973 37.517 48.3772 40.731C46.9977 44.379 45.1824 47.7647 42.4086 50.5385C41.0223 52.0993 39.2869 53.3112 37.1131 53.3911C35.2872 53.4721 33.9801 52.6852 32.9321 51.2904C31.9712 49.9828 32.2273 48.5052 32.9185 47.1161C33.4363 45.9003 34.2159 44.9462 35.1694 43.9927Z" fill="white"></path>
                                                  </g>
                                                  <defs>
                                                  <clipPath id="clip0_309_813">
                                                  <rect width="30.7692" height="49.2308" fill="white" transform="translate(0.922852 22.4019) rotate(-45)"></rect>
                                                  </clipPath>
                                                  </defs>
                                                </svg>