<svg width="93" height="91" viewBox="0 0 93 91" fill="none" xmlns="http://www.w3.org/2000/svg">
<circle cx="59" cy="57" r="34" fill="#FFCC19"></circle>
<path d="M55.3331 44.0085H70.3112C70.7119 44.0085 71.0806 43.7893 71.272 43.4372C71.4636 43.0852 71.447 42.6566 71.2294 42.3202L66.1472 34.4716C65.9456 34.1604 65.6 33.9724 65.2291 33.9724H55.3331C54.7291 33.9724 54.2394 34.4621 54.2394 35.0661V42.9147C54.2394 43.5186 54.7291 44.0085 55.3331 44.0085ZM56.4269 36.1599H64.6342L68.3 41.821H56.4269V36.1599ZM76.4745 57.4333V43.8119C76.4745 42.9905 76.2575 42.256 75.8112 41.5669L69.4819 31.7924C68.7059 30.5941 67.4422 29.9069 66.0148 29.9069H52.3861V11.9971C52.3861 11.393 51.8964 10.9033 51.2923 10.9033H12.7066C12.1025 10.9033 11.6128 11.393 11.6128 11.9971V19.8579H2.5C1.89594 19.8579 1.40625 20.3475 1.40625 20.9516C1.40625 21.5557 1.89594 22.0454 2.5 22.0454H11.6128V23.2427C11.6128 23.8468 12.1025 24.3364 12.7066 24.3364C13.3106 24.3364 13.8003 23.8468 13.8003 23.2427V22.0454H18.9486C19.5527 22.0454 20.0423 21.5557 20.0423 20.9516C20.0423 20.3475 19.5527 19.8579 18.9486 19.8579H13.8003V13.0908H26.3717V21.0649C26.3717 21.6689 26.8614 22.1586 27.4655 22.1586H36.5331C37.1372 22.1586 37.6269 21.6689 37.6269 21.0649V13.0908H50.1984V49.4891H13.8003V42.7222H18.9486C19.5527 42.7222 20.0423 42.2325 20.0423 41.6285C20.0423 41.0244 19.5527 40.5347 18.9486 40.5347H13.8003V39.3374C13.8003 38.7333 13.3106 38.2436 12.7066 38.2436C12.1025 38.2436 11.6128 38.7333 11.6128 39.3374V40.5347H2.5C1.89594 40.5347 1.40625 41.0244 1.40625 41.6285C1.40625 42.2325 1.89594 42.7222 2.5 42.7222H11.6128V57.6283C10.718 58.0432 10.0944 58.9477 10.0944 59.9971V62.3386C10.0944 63.7789 11.2662 64.9507 12.7066 64.9507H19.5097C20.855 67.4179 23.4728 69.0958 26.4753 69.0958C29.4778 69.0958 32.0956 67.418 33.4409 64.9507H54.6461C55.9914 67.4179 58.6092 69.0958 61.6117 69.0958C64.6142 69.0958 67.232 67.418 68.5773 64.9507H75.9814C77.4217 64.9507 78.5934 63.7788 78.5934 62.3386V59.9971C78.5938 58.7255 77.6797 57.6646 76.4745 57.4333ZM35.4394 19.9711H28.5592V13.0908H35.4394V19.9711ZM66.0147 32.0944C66.7059 32.0944 67.2698 32.401 67.6456 32.9813L73.9752 42.756C74.1937 43.0936 74.287 43.4094 74.287 43.8119V45.5619H72.1881C71.5841 45.5619 71.0944 46.0516 71.0944 46.6557C71.0944 47.2597 71.5841 47.7494 72.1881 47.7494H74.287V57.385H68.5777C67.2323 54.9177 64.6145 53.2399 61.6119 53.2399C58.6092 53.2399 55.9914 54.9179 54.6461 57.385H52.3859V32.0944H66.0147ZM50.1986 51.6768V57.3854H33.4411C32.0958 54.918 29.478 53.2402 26.4753 53.2402C23.4727 53.2402 20.8548 54.9182 19.5095 57.3854H13.8002V51.6768H50.1986ZM12.7066 62.7635C12.4723 62.7635 12.2819 62.573 12.2819 62.3389V59.9974C12.2819 59.7672 12.4762 59.5729 12.7066 59.5729H18.7086C18.6028 60.0883 18.5473 60.6219 18.5473 61.1682C18.5473 61.7144 18.6028 62.248 18.7086 62.7635H12.7066ZM26.4753 66.9086C23.31 66.9086 20.7348 64.3335 20.7348 61.1682C20.7348 58.0029 23.31 55.4277 26.4753 55.4277C29.6406 55.4277 32.2158 58.0029 32.2158 61.1682C32.2158 64.3335 29.6406 66.9086 26.4753 66.9086ZM34.242 62.7635C34.3478 62.248 34.4033 61.7144 34.4033 61.1682C34.4033 60.6219 34.3478 60.0883 34.242 59.5729H53.8452C53.7394 60.0883 53.6839 60.6219 53.6839 61.1682C53.6839 61.7144 53.7394 62.248 53.8452 62.7635H34.242ZM61.6119 66.9086C58.4466 66.9086 55.8714 64.3335 55.8714 61.1682C55.8714 58.0029 58.4466 55.4277 61.6119 55.4277C64.7772 55.4277 67.3523 58.0029 67.3523 61.1682C67.3523 64.3335 64.7772 66.9086 61.6119 66.9086ZM76.4062 62.3388C76.4062 62.573 76.2158 62.7633 75.9817 62.7633H69.3786C69.4844 62.2479 69.5398 61.7143 69.5398 61.168C69.5398 60.6218 69.4844 60.0882 69.3786 59.5727H75.9817C76.2119 59.5727 76.4062 59.7671 76.4062 59.9972V62.3388ZM61.6119 57.7563C59.7306 57.7563 58.2002 59.2868 58.2002 61.168C58.2002 63.0493 59.7306 64.5797 61.6119 64.5797C63.4931 64.5797 65.0236 63.0493 65.0236 61.168C65.0236 59.2869 63.4931 57.7563 61.6119 57.7563ZM61.6119 62.3924C60.9369 62.3924 60.3877 61.8432 60.3877 61.1682C60.3877 60.4932 60.9369 59.9439 61.6119 59.9439C62.2869 59.9439 62.8361 60.4932 62.8361 61.1682C62.8361 61.8432 62.287 62.3924 61.6119 62.3924ZM26.4753 57.7563C24.5941 57.7563 23.0636 59.2868 23.0636 61.168C23.0636 63.0493 24.5941 64.5797 26.4753 64.5797C28.3566 64.5797 29.887 63.0493 29.887 61.168C29.887 59.2869 28.3566 57.7563 26.4753 57.7563ZM26.4753 62.3924C25.8003 62.3924 25.2511 61.8432 25.2511 61.1682C25.2511 60.4932 25.8003 59.9439 26.4753 59.9439C27.1503 59.9439 27.6995 60.4932 27.6995 61.1682C27.6995 61.8432 27.1505 62.3924 26.4753 62.3924ZM24.9098 34.7824V36.7786L30.4459 31.29L24.9098 25.8014V27.7977C24.9098 28.4018 24.4202 28.8914 23.8161 28.8914H7.16391C6.55984 28.8914 6.07016 28.4018 6.07016 27.7977C6.07016 27.1936 6.55984 26.7039 7.16391 26.7039H22.7223V23.1769C22.7223 22.7354 22.9878 22.3371 23.3955 22.1674C23.8031 21.9975 24.2727 22.0894 24.5863 22.4004L32.7695 30.5135C32.9766 30.7188 33.0931 30.9985 33.0931 31.2902C33.0931 31.5819 32.9766 31.8614 32.7695 32.0669L24.5863 40.18C24.3772 40.3872 24.0989 40.4971 23.8158 40.4971C23.6742 40.4971 23.5314 40.4696 23.3955 40.4129C22.988 40.243 22.7223 39.8447 22.7223 39.4033V35.8763H7.16391C6.55984 35.8763 6.07016 35.3866 6.07016 34.7825C6.07016 34.1785 6.55984 33.6888 7.16391 33.6888H23.8161C24.4202 33.6886 24.9098 34.1783 24.9098 34.7824ZM59.6194 46.6558C59.6194 47.2599 59.1297 47.7496 58.5256 47.7496H55.333C54.7289 47.7496 54.2392 47.2599 54.2392 46.6558C54.2392 46.0518 54.7289 45.5621 55.333 45.5621H58.5256C59.1298 45.5621 59.6194 46.0518 59.6194 46.6558Z" fill="#212121"></path>
</svg>