<svg width="69" height="69" viewBox="0 0 69 69" fill="none" xmlns="http://www.w3.org/2000/svg">
<circle cx="32.0005" cy="32.0002" r="32" fill="#EFE9DA"></circle>
<g clip-path="url(#clip0_651_135)">
<path fill-rule="evenodd" clip-rule="evenodd" d="M37.5942 40.5002C37.5942 41.2769 38.2238 41.9065 39.0005 41.9065H51.0005C51.7771 41.9065 52.4067 41.2769 52.4067 40.5002V34.1252C52.4067 32.313 50.9377 30.844 49.1255 30.844C48.8667 30.844 48.6567 30.6342 48.6567 30.3752V27.7502C48.6567 26.9736 48.0271 26.344 47.2505 26.344H42.7505C41.9738 26.344 41.3442 26.9736 41.3442 27.7502V30.3752C41.3442 30.6342 41.1344 30.844 40.8755 30.844C39.0692 30.844 37.5942 32.3072 37.5942 34.1252V40.5002ZM40.4067 39.094V34.1252C40.4067 33.8663 40.6167 33.6565 40.8755 33.6565C42.6877 33.6565 44.1567 32.1875 44.1567 30.3752V29.1565H45.8442V30.3752C45.8442 32.1932 47.3192 33.6565 49.1255 33.6565C49.3844 33.6565 49.5942 33.8663 49.5942 34.1252V39.094H40.4067Z" fill="#C33130"></path>
<path fill-rule="evenodd" clip-rule="evenodd" d="M39.8442 27.7502C39.8442 28.5269 40.4738 29.1565 41.2505 29.1565H48.7505C49.5271 29.1565 50.1567 28.5269 50.1567 27.7502V22.4065C50.1567 21.6298 49.5271 21.0002 48.7505 21.0002H41.2505C40.4738 21.0002 39.8442 21.6298 39.8442 22.4065V27.7502ZM42.6567 26.344V23.8127H47.3442V26.344H42.6567Z" fill="#C33130"></path>
<path fill-rule="evenodd" clip-rule="evenodd" d="M27.0942 40.5002C27.0942 41.2769 27.7238 41.9065 28.5005 41.9065H39.0005C39.7771 41.9065 40.4067 41.2769 40.4067 40.5002C40.4067 36.2431 39.805 32.3288 38.7901 29.4291C38.2849 27.9857 37.6511 26.7174 36.8774 25.7825C36.1112 24.8565 35.0617 24.094 33.7505 24.094C32.4393 24.094 31.3898 24.8565 30.6235 25.7825C29.8499 26.7174 29.2161 27.9857 28.7109 29.4291C27.696 32.3288 27.0942 36.2431 27.0942 40.5002ZM29.9303 39.094C30.0464 35.6415 30.5847 32.5889 31.3655 30.3582C31.8104 29.0871 32.3078 28.1587 32.7904 27.5755C33.2803 26.9834 33.6119 26.9065 33.7505 26.9065C33.8891 26.9065 34.2207 26.9834 34.7106 27.5755C35.1932 28.1587 35.6906 29.0871 36.1355 30.3582C36.9163 32.5889 37.4545 35.6415 37.5707 39.094H29.9303Z" fill="#C33130"></path>
<path fill-rule="evenodd" clip-rule="evenodd" d="M27.4253 35.2502C27.4253 36.0269 28.0549 36.6565 28.8315 36.6565H31.5006C32.2773 36.6565 32.9069 36.0269 32.9069 35.2502C32.9069 34.4736 32.2773 33.844 31.5006 33.844H28.8315C28.0549 33.844 27.4253 34.4736 27.4253 35.2502Z" fill="#C33130"></path>
<path fill-rule="evenodd" clip-rule="evenodd" d="M28.5952 30.0002C28.5952 30.7769 29.2248 31.4065 30.0015 31.4065H31.5005C32.2772 31.4065 32.9068 30.7769 32.9068 30.0002C32.9068 29.2236 32.2772 28.594 31.5005 28.594H30.0015C29.2248 28.594 28.5952 29.2236 28.5952 30.0002Z" fill="#C33130"></path>
<path fill-rule="evenodd" clip-rule="evenodd" d="M49.5942 40.5002C49.5942 41.2769 50.2238 41.9065 51.0005 41.9065H58.5005C59.2771 41.9065 59.9067 41.2769 59.9067 40.5002C59.9067 39.7236 59.2771 39.094 58.5005 39.094H52.4067V33.0002C52.4067 32.1203 53.1206 31.4065 54.0005 31.4065C54.7771 31.4065 55.4067 30.7769 55.4067 30.0002C55.4067 29.1203 56.1206 28.4065 57.0005 28.4065C57.8804 28.4065 58.5942 29.1203 58.5942 30.0002C58.5942 30.7769 59.2238 31.4065 60.0005 31.4065C60.8804 31.4065 61.5942 32.1203 61.5942 33.0002C61.5942 33.8802 60.8804 34.594 60.0005 34.594H58.9552C58.1785 34.594 57.5489 35.2236 57.5489 36.0002C57.5489 36.7769 58.1785 37.4065 58.9552 37.4065H60.0005C62.4337 37.4065 64.4067 35.4335 64.4067 33.0002C64.4067 30.9945 63.0661 29.3015 61.2322 28.7685C60.6992 26.9346 59.0062 25.594 57.0005 25.594C54.9948 25.594 53.3018 26.9346 52.7688 28.7685C50.9349 29.3015 49.5942 30.9945 49.5942 33.0002V40.5002Z" fill="#C33130"></path>
<path fill-rule="evenodd" clip-rule="evenodd" d="M49.5942 40.5002C49.5942 41.2769 50.2238 41.9065 51.0005 41.9065H61.5005C62.2771 41.9065 62.9067 41.2769 62.9067 40.5002C62.9067 36.8241 59.9266 33.844 56.2505 33.844C52.5743 33.844 49.5942 36.8241 49.5942 40.5002ZM52.6721 39.094C53.2334 37.6667 54.624 36.6565 56.2505 36.6565C57.877 36.6565 59.2675 37.6667 59.8289 39.094H52.6721Z" fill="#C33130"></path>
<path fill-rule="evenodd" clip-rule="evenodd" d="M57.0005 36.71C57.7771 36.71 58.4067 36.0804 58.4067 35.3037V33.0003C58.4067 32.2236 57.7771 31.594 57.0005 31.594C56.2238 31.594 55.5942 32.2236 55.5942 33.0003V35.3037C55.5942 36.0804 56.2238 36.71 57.0005 36.71Z" fill="#C33130"></path>
<path fill-rule="evenodd" clip-rule="evenodd" d="M25.5942 40.5002C25.5942 41.2769 26.2238 41.9065 27.0005 41.9065H63.0005C63.7771 41.9065 64.4067 41.2769 64.4067 40.5002C64.4067 39.7236 63.7771 39.094 63.0005 39.094H27.0005C26.2238 39.094 25.5942 39.7236 25.5942 40.5002Z" fill="#C33130"></path>
<path fill-rule="evenodd" clip-rule="evenodd" d="M25.5942 67.594C25.5942 68.3706 26.2238 69.0002 27.0005 69.0002H63.0005C63.7771 69.0002 64.4067 68.3706 64.4067 67.594V49.5002C64.4067 48.7236 63.7771 48.094 63.0005 48.094C62.2238 48.094 61.5942 48.7236 61.5942 49.5002V66.1877H28.4067V49.5002C28.4067 48.7236 27.7771 48.094 27.0005 48.094C26.2238 48.094 25.5942 48.7236 25.5942 49.5002V67.594Z" fill="#C33130"></path>
<path fill-rule="evenodd" clip-rule="evenodd" d="M21.2075 50.2346C21.463 50.652 21.9173 50.9065 22.4067 50.9065H67.5942C68.0837 50.9065 68.5379 50.652 68.7935 50.2346C69.0491 49.8172 69.0693 49.2969 68.8468 48.8609L64.253 39.8609C64.0128 39.3903 63.5289 39.094 63.0005 39.094H27.0005C26.472 39.094 25.9882 39.3903 25.748 39.8609L21.1542 48.8609C20.9317 49.2969 20.9519 49.8172 21.2075 50.2346ZM24.7034 48.094L27.8616 41.9065H62.1394L65.2976 48.094H24.7034Z" fill="#C33130"></path>
<path fill-rule="evenodd" clip-rule="evenodd" d="M46.5942 61.5002C46.5942 62.2769 47.2238 62.9065 48.0005 62.9065H57.0005C57.7771 62.9065 58.4067 62.2769 58.4067 61.5002C58.4067 60.7236 57.7771 60.094 57.0005 60.094H48.0005C47.2238 60.094 46.5942 60.7236 46.5942 61.5002Z" fill="#C33130"></path>
<path fill-rule="evenodd" clip-rule="evenodd" d="M46.5942 55.5002C46.5942 56.2769 47.2238 56.9065 48.0005 56.9065H57.0005C57.7771 56.9065 58.4067 56.2769 58.4067 55.5002C58.4067 54.7236 57.7771 54.094 57.0005 54.094H48.0005C47.2238 54.094 46.5942 54.7236 46.5942 55.5002Z" fill="#C33130"></path>
<path fill-rule="evenodd" clip-rule="evenodd" d="M31.5942 61.5002C31.5942 62.2769 32.2238 62.9065 33.0005 62.9065H42.0005C42.7771 62.9065 43.4067 62.2769 43.4067 61.5002V55.5002C43.4067 54.7236 42.7771 54.094 42.0005 54.094H33.0005C32.2238 54.094 31.5942 54.7236 31.5942 55.5002V61.5002ZM34.4067 60.094V56.9065H40.5942V60.094H34.4067Z" fill="#C33130"></path>
</g>
<defs>
<clipPath id="clip0_651_135">
<rect width="48" height="48" fill="white" transform="translate(21.0005 21.0002)"></rect>
</clipPath>
</defs>
</svg>