<svg xmlns="http://www.w3.org/2000/svg" width="110" height="110" viewBox="0 0 110 110" fill="none"><circle cx="55" cy="55" r="55" fill="url(#paint0_linear_815_2)"></circle><g clip-path="url(#clip0_815_2)"><path d="M66.2741 36H55.308L62.7689 43.8439C64.368 42.8589 66.4934 43.0527 67.8811 44.4293L74.0221 50.5208C74.3132 50.8096 74.5246 51.1221 74.6322 51.395C74.7399 51.6679 74.7399 51.9013 74.6123 52.0279C74.3571 52.281 73.6752 52.02 73.093 51.4425L67.3428 45.7346C66.7606 45.1571 66.0787 44.8921 65.8235 45.1492C65.6959 45.2758 65.6959 45.5091 65.8035 45.7821C65.9112 46.055 66.1225 46.3675 66.4136 46.6562L72.1678 52.3601C72.4589 52.6489 72.6703 52.9614 72.778 53.2343C72.8856 53.5073 72.8856 53.7406 72.758 53.8672C72.5028 54.1204 71.8209 53.8593 71.2387 53.2818L65.4845 47.5779C64.9023 47.0004 64.2204 46.7354 63.9652 46.9925C63.8376 47.119 63.8376 47.3524 63.9453 47.6254C64.0529 47.8983 64.2643 48.2108 64.5554 48.4995L70.3096 54.2034C70.6007 54.4922 70.812 54.8047 70.9197 55.0776C71.0274 55.3505 71.0274 55.5839 70.8998 55.7105C70.6446 55.9636 69.9627 55.7026 69.3805 55.1251L63.6302 49.4212C63.048 48.8437 62.3661 48.5786 62.1109 48.8358C61.9833 48.9623 61.9833 49.1957 62.091 49.4686C62.1987 49.7416 62.41 50.0541 62.7011 50.3428L68.4553 56.0467C68.7464 56.3355 68.9578 56.648 69.0654 56.9209C69.1731 57.1938 69.1731 57.4272 69.0455 57.5538C68.7903 57.8069 68.1084 57.5459 67.5262 56.9684L61.3852 50.8768C59.9975 49.5003 59.7981 47.3959 60.787 45.8098L56.5322 41.8344C52.5285 38.0885 47.2329 36 41.7299 36C36.3545 36 32 40.3195 32 45.6515V59.0411C32 64.3731 36.3545 68.6926 41.7299 68.6926H55.4316L53.2503 60.56C50.8099 60.5204 48.3016 58.2974 47.2768 55.038C46.0765 51.2249 47.3565 47.4355 50.1359 46.5732C52.9154 45.7148 56.1414 48.1079 57.3417 51.9211C58.3665 55.1804 57.5809 58.424 55.5951 59.8322L61.1659 77.5214C61.3493 78.1384 62.2186 78.1622 62.4379 77.557L66.2701 68.6886C71.6455 68.6886 76 64.3692 76 59.0371V45.6515C76 40.3195 71.6455 36 66.2741 36Z" fill="white"></path></g><defs><linearGradient id="paint0_linear_815_2" x1="116" y1="49" x2="0" y2="49" gradientUnits="userSpaceOnUse"><stop stop-color="#C33130"></stop><stop offset="1" stop-color="#FF8A00"></stop></linearGradient><clipPath id="clip0_815_2"><rect width="44" height="42" fill="white" transform="translate(32 36)"></rect></clipPath></defs></svg>