<svg width="91" height="91" viewBox="0 0 91 91" fill="none" xmlns="http://www.w3.org/2000/svg">
<circle cx="57" cy="57" r="34" fill="#FFCC19"></circle>
<path d="M62.125 6.63869C61.8436 6.45706 61.5277 6.33535 61.1972 6.28116C60.8666 6.22696 60.5285 6.24144 60.2037 6.32369C59.8716 6.40609 59.5597 6.55504 59.2868 6.76152C59.0139 6.968 58.7858 7.22772 58.6163 7.52494L56.7037 10.8887L43.335 34.3874C43.2282 34.5774 43.173 34.792 43.1747 35.0099C43.1764 35.2278 43.2351 35.4415 43.3449 35.6297C43.4547 35.8179 43.6117 35.9742 43.8006 36.083C43.9894 36.1918 44.2033 36.2493 44.4212 36.2499H75C75.338 36.2491 75.6723 36.1803 75.9832 36.0479C76.2941 35.9154 76.5753 35.7218 76.81 35.4787C77.0417 35.2393 77.2224 34.9553 77.341 34.6439C77.4596 34.3326 77.5137 34.0003 77.5 33.6674C77.3015 28.2575 75.8001 22.9753 73.1234 18.2697C70.4467 13.5641 66.6737 9.57413 62.125 6.63869ZM46.57 33.7499L58.2312 13.2499C61.6521 15.5075 64.4917 18.5408 66.519 22.1031C68.5462 25.6653 69.7038 29.6558 69.8975 33.7499H46.57ZM75 33.7499H72.3863C72.189 29.215 70.9122 24.7926 68.662 20.8503C66.4119 16.908 63.2533 13.5597 59.4487 11.0837L60.7788 8.74244C64.9849 11.4605 68.4737 15.1528 70.9493 19.5061C73.425 23.8594 74.8145 28.7454 75 33.7499Z" fill="#212121"></path>
<path d="M55.9121 23.3753C55.9195 24.125 56.1486 24.8557 56.5705 25.4755C56.9924 26.0952 57.5882 26.5763 58.283 26.858C58.9777 27.1398 59.7403 27.2097 60.4747 27.0589C61.2091 26.9082 61.8825 26.5434 62.41 26.0107C62.9375 25.478 63.2956 24.8011 63.4392 24.0652C63.5827 23.3294 63.5053 22.5675 63.2167 21.8756C62.9282 21.1836 62.4413 20.5925 61.8174 20.1768C61.1936 19.761 60.4606 19.5391 59.7109 19.5391C58.6987 19.545 57.7303 19.9523 57.0181 20.6715C56.3059 21.3907 55.9081 22.3631 55.9121 23.3753ZM61.0084 23.3753C61.001 23.6305 60.9186 23.8779 60.7714 24.0865C60.6243 24.2951 60.4189 24.4557 60.1809 24.5482C59.943 24.6408 59.683 24.6611 59.4336 24.6068C59.1842 24.5524 58.9563 24.4257 58.7784 24.2426C58.6006 24.0594 58.4806 23.8279 58.4336 23.5769C58.3866 23.326 58.4146 23.0668 58.5141 22.8317C58.6136 22.5965 58.7802 22.396 58.9931 22.255C59.2059 22.114 59.4556 22.0389 59.7109 22.0391C60.06 22.0447 60.3926 22.1885 60.6359 22.439C60.8791 22.6895 61.0131 23.0262 61.0084 23.3753Z" fill="#212121"></path>
<path d="M52.0662 28.584H54.615V31.084H52.0662V28.584Z" fill="#212121"></path>
<path d="M63.5322 28.584H66.081V31.084H63.5322V28.584Z" fill="#212121"></path>
<path d="M66.0747 38.9261H37.6509L51.8822 13.9148C52.0488 13.6205 52.1551 13.2959 52.1948 12.96C52.2345 12.6241 52.2068 12.2837 52.1134 11.9586C52.024 11.6399 51.8709 11.3427 51.6633 11.0849C51.4558 10.8271 51.1981 10.614 50.9059 10.4586C46.1641 7.93036 40.8734 6.60652 35.4997 6.6036C30.619 6.5927 25.799 7.68491 21.3997 9.7986C20.9391 10.0206 20.529 10.3349 20.1949 10.722C19.8607 11.109 19.6097 11.5605 19.4572 12.0486C18.9592 11.9439 18.4449 11.9427 17.9464 12.0453C17.4479 12.1479 16.9759 12.352 16.5597 12.6448C12.5472 15.4864 9.20883 19.1757 6.78121 23.4514C4.3536 27.7271 2.89616 32.4843 2.5122 37.3861C2.47292 37.8915 2.53713 38.3995 2.7009 38.8793C2.86467 39.359 3.12457 39.8002 3.4647 40.1761C3.12454 40.5522 2.86463 40.9937 2.70086 41.4736C2.53709 41.9535 2.47289 42.4618 2.5122 42.9673C2.89593 47.8698 4.35351 52.6278 6.78159 56.9039C9.20968 61.1801 12.5488 64.8697 16.5622 67.7111C16.9769 68.007 17.4489 68.2128 17.948 68.3153C18.447 68.4177 18.962 68.4146 19.4597 68.3061C19.613 68.7937 19.8644 69.2449 20.1985 69.6318C20.5325 70.0187 20.9422 70.3333 21.4022 70.5561C25.8052 72.659 30.6228 73.7504 35.5022 73.7504C40.3816 73.7504 45.1992 72.659 49.6022 70.5561C50.0622 70.3333 50.4719 70.0187 50.8059 69.6318C51.1399 69.2449 51.3914 68.7937 51.5447 68.3061C52.0424 68.4146 52.5574 68.4177 53.0564 68.3153C53.5555 68.2128 54.0275 68.007 54.4422 67.7111C58.6394 64.7107 62.0951 60.7904 64.5452 56.25C66.9952 51.7095 68.3748 46.6689 68.5784 41.5136C68.5927 41.1798 68.5386 40.8467 68.4196 40.5346C68.3005 40.2225 68.1189 39.938 67.8859 39.6986C67.6511 39.4551 67.3698 39.2613 67.0587 39.1286C66.7476 38.9959 66.4129 38.927 66.0747 38.9261ZM35.4997 37.6473L23.8447 17.1586C27.4479 15.2949 31.4455 14.3223 35.5022 14.3223C39.5589 14.3223 43.5564 15.2949 47.1597 17.1586L35.4997 37.6473ZM42.296 54.6473L47.1559 63.1911C43.5529 65.0546 39.5555 66.0271 35.4991 66.0271C31.4426 66.0271 27.4453 65.0546 23.8422 63.1911L28.726 54.6073L35.4997 42.7036L42.296 54.6473ZM21.8435 12.7998C21.8917 12.6374 21.9733 12.4868 22.0831 12.3576C22.1929 12.2285 22.3284 12.1237 22.481 12.0498C26.5434 10.1003 30.9937 9.09315 35.4997 9.1036C40.4545 9.1065 45.333 10.3237 49.7084 12.6486C49.7123 12.6582 49.7123 12.669 49.7084 12.6786L48.3909 14.9998C44.4244 12.8845 39.9982 11.778 35.5028 11.778C31.0075 11.778 26.5812 12.8845 22.6147 14.9998L21.9522 13.8373C21.8637 13.6812 21.8084 13.5085 21.7896 13.3299C21.7709 13.1514 21.7893 12.971 21.8435 12.7998ZM21.691 18.4248L33.3522 38.9248H10.0259C10.2203 34.8317 11.3781 30.8423 13.405 27.281C15.432 23.7197 18.2709 20.6871 21.691 18.4298V18.4248ZM18.0047 14.6748C18.3088 14.5426 18.6381 14.4782 18.9697 14.4861C19.1436 14.5248 19.3074 14.5995 19.4505 14.7055C19.5937 14.8114 19.7131 14.9462 19.8009 15.1011L20.4597 16.2573C16.6579 18.7355 13.5021 22.085 11.2546 26.0276C9.00712 29.9702 7.7327 34.3921 7.5372 38.9261H6.26095C6.08538 38.9255 5.91182 38.8887 5.75114 38.8179C5.59047 38.7472 5.44614 38.644 5.3272 38.5148C5.21088 38.3919 5.12162 38.246 5.06521 38.0865C5.0088 37.9269 4.98648 37.7573 4.9997 37.5886C5.35471 33.0509 6.70326 28.6468 8.94982 24.6883C11.1964 20.7299 14.286 17.3139 17.9997 14.6823L18.0047 14.6748ZM19.8009 65.2498C19.7127 65.4049 19.5931 65.5397 19.4497 65.6458C19.3064 65.752 19.1425 65.827 18.9685 65.8661C18.8036 65.904 18.6326 65.9066 18.4667 65.8736C18.3008 65.8406 18.1438 65.7729 18.0059 65.6748C14.2904 63.0438 11.1991 59.6276 8.9514 55.6683C6.70369 51.7091 5.35457 47.3038 4.9997 42.7648C4.98597 42.5961 5.00781 42.4264 5.06379 42.2666C5.11977 42.1068 5.20866 41.9606 5.3247 41.8373C5.4434 41.7082 5.58751 41.6051 5.74798 41.5343C5.90845 41.4635 6.08182 41.4267 6.2572 41.4261H7.5372C7.73364 45.9589 9.00838 50.3794 11.2556 54.3208C13.5028 58.2623 16.6577 61.6108 20.4585 64.0886L19.8009 65.2498ZM10.0259 41.4261H33.3522L21.691 61.9261C18.2702 59.6685 15.4308 56.6351 13.4038 53.0728C11.3768 49.5106 10.2195 45.5201 10.0259 41.4261ZM49.1622 67.5511C49.1137 67.7138 49.0316 67.8645 48.9214 67.9937C48.8112 68.1229 48.6752 68.2276 48.5222 68.3011C44.4564 70.2428 40.0078 71.2505 35.5022 71.2505C30.9966 71.2505 26.548 70.2428 22.4822 68.3011C22.3294 68.2272 22.1936 68.1224 22.0834 67.9933C21.9732 67.8642 21.8911 67.7136 21.8422 67.5511C21.789 67.3804 21.7713 67.2006 21.7903 67.0228C21.8092 66.8451 21.8643 66.673 21.9522 66.5173L22.6134 65.3548C26.5799 67.4706 31.0061 68.5773 35.5016 68.5773C39.997 68.5773 44.4233 67.4706 48.3897 65.3548L49.0522 66.5173C49.1403 66.6732 49.1955 66.8454 49.2144 67.0235C49.2333 67.2015 49.2156 67.3802 49.1622 67.5511ZM49.3134 61.9261L37.6522 41.4261H60.9785C60.7843 45.5196 59.6266 49.5095 57.5996 53.0712C55.5727 56.633 52.7336 59.666 49.3134 61.9236V61.9261ZM52.9984 65.6761C52.8605 65.7744 52.7033 65.8423 52.5371 65.8752C52.371 65.9082 52.1997 65.9055 52.0347 65.8673C51.8608 65.8279 51.697 65.7527 51.5537 65.6466C51.4104 65.5405 51.2907 65.4059 51.2022 65.2511L50.5447 64.0948C54.3459 61.6172 57.5013 58.2686 59.7488 54.3269C61.9963 50.3852 63.271 45.9643 63.4672 41.4311H66.081C65.891 46.2008 64.6137 50.8641 62.3466 55.0649C60.0794 59.2658 56.8825 62.893 52.9997 65.6698L52.9984 65.6761Z" fill="#212121"></path>
<path d="M50.1553 47.9777C49.5232 47.972 48.9036 48.1542 48.3752 48.5013C47.8469 48.8483 47.4335 49.3445 47.1877 49.9269C46.9418 50.5092 46.8745 51.1515 46.9944 51.7722C47.1142 52.3929 47.4157 52.964 47.8607 53.413C48.3056 53.862 48.874 54.1687 49.4935 54.2941C50.1131 54.4195 50.756 54.3581 51.3405 54.1175C51.9251 53.8769 52.425 53.4681 52.7768 52.9429C53.1287 52.4177 53.3165 51.7998 53.3165 51.1677C53.3195 50.3257 52.9883 49.5169 52.3957 48.9189C51.803 48.3208 50.9972 47.9823 50.1553 47.9777ZM50.1553 51.8527C50.0177 51.8584 49.8815 51.8228 49.7643 51.7505C49.6471 51.6782 49.5542 51.5725 49.4975 51.447C49.4409 51.3214 49.4232 51.1818 49.4465 51.0461C49.4699 50.9104 49.5334 50.7847 49.6288 50.6854C49.7242 50.5861 49.8471 50.5175 49.9817 50.4886C50.1164 50.4597 50.2566 50.4718 50.3844 50.5233C50.5121 50.5747 50.6215 50.6632 50.6986 50.7774C50.7756 50.8916 50.8167 51.0262 50.8165 51.1639C50.8187 51.2528 50.8033 51.3413 50.7712 51.4243C50.7391 51.5072 50.691 51.583 50.6296 51.6474C50.5681 51.7117 50.4946 51.7633 50.4132 51.7991C50.3319 51.835 50.2442 51.8545 50.1553 51.8564V51.8527Z" fill="#212121"></path>
<path d="M55.8887 44.0986H58.4375V46.5986H55.8887V44.0986Z" fill="#212121"></path>
<path d="M44.4209 44.0986H46.9697V46.5986H44.4209V44.0986Z" fill="#212121"></path>
<path d="M30.4297 58.2774C30.4369 59.0272 30.6658 59.7581 31.0876 60.378C31.5093 60.998 32.1052 61.4792 32.8 61.7611C33.4948 62.0431 34.2575 62.1131 34.992 61.9623C35.7265 61.8116 36.4 61.4468 36.9276 60.914C37.4552 60.3812 37.8133 59.7042 37.9568 58.9682C38.1003 58.2323 38.0228 57.4703 37.7341 56.7783C37.4453 56.0863 36.9583 55.4952 36.3342 55.0795C35.7102 54.6639 34.977 54.4422 34.2272 54.4424C33.2155 54.4487 32.2475 54.8559 31.5357 55.5748C30.8238 56.2937 30.4261 57.2656 30.4297 58.2774ZM35.526 58.2774C35.5188 58.5326 35.4367 58.78 35.2897 58.9888C35.1427 59.1975 34.9375 59.3584 34.6996 59.4511C34.4618 59.5439 34.2018 59.5645 33.9523 59.5104C33.7028 59.4562 33.4748 59.3298 33.2968 59.1468C33.1188 58.9638 32.9986 58.7324 32.9514 58.4815C32.9042 58.2306 32.9319 57.9713 33.0312 57.7361C33.1305 57.5009 33.2969 57.3002 33.5096 57.159C33.7223 57.0178 33.9719 56.9425 34.2272 56.9424C34.5762 56.948 34.9088 57.0916 35.1522 57.3418C35.3956 57.592 35.53 57.9284 35.526 58.2774Z" fill="#212121"></path>
<path d="M34.2275 49.2695H36.7763V51.7695H34.2275V49.2695Z" fill="#212121"></path>
<path d="M39.325 60.9072H41.8737V63.4072H39.325V60.9072Z" fill="#212121"></path>
<path d="M21.462 48.581C21.4566 47.9569 21.2666 47.3484 20.9159 46.8321C20.5652 46.3159 20.0695 45.915 19.4913 45.68C18.9131 45.4449 18.2783 45.3863 17.6669 45.5115C17.0555 45.6367 16.4948 45.94 16.0555 46.3833C15.6161 46.8266 15.3179 47.3901 15.1983 48.0026C15.0786 48.6151 15.143 49.2494 15.3832 49.8254C15.6235 50.4014 16.0289 50.8934 16.5483 51.2395C17.0677 51.5855 17.6779 51.77 18.302 51.7698C19.1437 51.7651 19.9491 51.4268 20.5415 50.8289C21.134 50.2311 21.465 49.4227 21.462 48.581ZM18.302 49.2698C18.1644 49.2758 18.0281 49.2404 17.9107 49.1683C17.7934 49.0961 17.7003 48.9905 17.6434 48.865C17.5866 48.7395 17.5687 48.5998 17.5919 48.464C17.6152 48.3282 17.6785 48.2025 17.7738 48.103C17.8692 48.0035 17.9921 47.9349 18.1268 47.9059C18.2614 47.8769 18.4017 47.8889 18.5296 47.9403C18.6574 47.9917 18.7669 48.0802 18.8439 48.1944C18.921 48.3086 18.9621 48.4432 18.962 48.581C18.9654 48.7597 18.8978 48.9325 18.7742 49.0616C18.6505 49.1907 18.4807 49.2655 18.302 49.2698Z" fill="#212121"></path>
<path d="M25.3096 44.0986H27.8583V46.5986H25.3096V44.0986Z" fill="#212121"></path>
<path d="M18.9385 54.4424H21.4872V56.9424H18.9385V54.4424Z" fill="#212121"></path>
<path d="M22.7617 36.2504C23.522 36.2579 24.2673 36.0392 24.9031 35.6222C25.5389 35.2052 26.0364 34.6087 26.3325 33.9084C26.6286 33.2081 26.71 32.4356 26.5662 31.689C26.4225 30.9424 26.0601 30.2554 25.5251 29.7151C24.9901 29.1748 24.3066 28.8057 23.5615 28.6546C22.8163 28.5035 22.0431 28.5773 21.3399 28.8665C20.6367 29.1557 20.0354 29.6474 19.6121 30.279C19.1889 30.9107 18.963 31.6539 18.9629 32.4142C18.9593 33.4263 19.3571 34.3985 20.0692 35.1176C20.7814 35.8368 21.7496 36.2442 22.7617 36.2504ZM22.7617 31.0792C23.0275 31.0717 23.2895 31.1437 23.5141 31.286C23.7388 31.4283 23.9159 31.6344 24.0227 31.8778C24.1296 32.1213 24.1614 32.3912 24.1141 32.6528C24.0667 32.9145 23.9424 33.1561 23.757 33.3467C23.5715 33.5373 23.3335 33.6682 23.0732 33.7228C22.8129 33.7773 22.5423 33.7529 22.296 33.6528C22.0496 33.5527 21.8388 33.3813 21.6904 33.1607C21.542 32.94 21.4628 32.6801 21.4629 32.4142C21.4599 32.0659 21.5948 31.7306 21.8381 31.4814C22.0814 31.2323 22.4134 31.0895 22.7617 31.0842V31.0792Z" fill="#212121"></path>
<path d="M20.2129 23.4111H22.7616V25.9111H20.2129V23.4111Z" fill="#212121"></path>
<path d="M13.8428 31.1689H16.3915V33.6689H13.8428V31.1689Z" fill="#212121"></path>
<path d="M34.25 20.1363C34.2557 20.7603 34.4459 21.3686 34.7967 21.8847C35.1475 22.4008 35.6432 22.8015 36.2213 23.0363C36.7994 23.2712 37.4341 23.3297 38.0454 23.2045C38.6567 23.0793 39.2173 22.776 39.6566 22.3327C40.0958 21.8895 40.394 21.3262 40.5137 20.7138C40.6334 20.1013 40.5691 19.4672 40.329 18.8912C40.0889 18.3153 39.6837 17.8232 39.1645 17.4771C38.6453 17.131 38.0353 16.9463 37.4113 16.9463C36.5692 16.9506 35.7632 17.289 35.1705 17.8871C34.5778 18.4852 34.2467 19.2942 34.25 20.1363ZM37.4113 19.4463C37.5488 19.4406 37.6849 19.4761 37.8021 19.5483C37.9193 19.6206 38.0122 19.7262 38.0689 19.8517C38.1255 19.9772 38.1433 20.1167 38.1201 20.2524C38.0968 20.3881 38.0334 20.5137 37.9382 20.6131C37.8429 20.7125 37.7201 20.7811 37.5855 20.8102C37.451 20.8392 37.3108 20.8273 37.183 20.7761C37.0553 20.7248 36.9458 20.6365 36.8686 20.5225C36.7914 20.4084 36.7501 20.274 36.75 20.1363C36.7467 19.9568 36.8147 19.7833 36.9391 19.654C37.0636 19.5246 37.2343 19.4499 37.4138 19.4463H37.4113Z" fill="#212121"></path>
<path d="M34.2275 27.29H36.7763V29.79H34.2275V27.29Z" fill="#212121"></path>
<path d="M29.1309 18.2402H31.6796V20.7402H29.1309V18.2402Z" fill="#212121"></path>
<path d="M62.125 6.63869C61.8436 6.45706 61.5277 6.33535 61.1972 6.28116C60.8666 6.22696 60.5285 6.24144 60.2037 6.32369C59.8716 6.40609 59.5597 6.55504 59.2868 6.76152C59.0139 6.968 58.7858 7.22772 58.6163 7.52494L56.7037 10.8887L43.335 34.3874C43.2282 34.5774 43.173 34.792 43.1747 35.0099C43.1764 35.2278 43.2351 35.4415 43.3449 35.6297C43.4547 35.8179 43.6117 35.9742 43.8006 36.083C43.9894 36.1918 44.2033 36.2493 44.4212 36.2499H75C75.338 36.2491 75.6723 36.1803 75.9832 36.0479C76.2941 35.9154 76.5753 35.7218 76.81 35.4787C77.0417 35.2393 77.2224 34.9553 77.341 34.6439C77.4596 34.3326 77.5137 34.0003 77.5 33.6674C77.3015 28.2575 75.8001 22.9753 73.1234 18.2697C70.4467 13.5641 66.6737 9.57413 62.125 6.63869ZM46.57 33.7499L58.2312 13.2499C61.6521 15.5075 64.4917 18.5408 66.519 22.1031C68.5462 25.6653 69.7038 29.6558 69.8975 33.7499H46.57ZM75 33.7499H72.3863C72.189 29.215 70.9122 24.7926 68.662 20.8503C66.4119 16.908 63.2533 13.5597 59.4487 11.0837L60.7788 8.74244C64.9849 11.4605 68.4737 15.1528 70.9493 19.5061C73.425 23.8594 74.8145 28.7454 75 33.7499Z" fill="#212121"></path>
<path d="M55.9121 23.3753C55.9195 24.125 56.1486 24.8557 56.5705 25.4755C56.9924 26.0952 57.5882 26.5763 58.283 26.858C58.9777 27.1398 59.7403 27.2097 60.4747 27.0589C61.2091 26.9082 61.8825 26.5434 62.41 26.0107C62.9375 25.478 63.2956 24.8011 63.4392 24.0652C63.5827 23.3294 63.5053 22.5675 63.2167 21.8756C62.9282 21.1836 62.4413 20.5925 61.8174 20.1768C61.1936 19.761 60.4606 19.5391 59.7109 19.5391C58.6987 19.545 57.7303 19.9523 57.0181 20.6715C56.3059 21.3907 55.9081 22.3631 55.9121 23.3753ZM61.0084 23.3753C61.001 23.6305 60.9186 23.8779 60.7714 24.0865C60.6243 24.2951 60.4189 24.4557 60.1809 24.5482C59.943 24.6408 59.683 24.6611 59.4336 24.6068C59.1842 24.5524 58.9563 24.4257 58.7784 24.2426C58.6006 24.0594 58.4806 23.8279 58.4336 23.5769C58.3866 23.326 58.4146 23.0668 58.5141 22.8317C58.6136 22.5965 58.7802 22.396 58.9931 22.255C59.2059 22.114 59.4556 22.0389 59.7109 22.0391C60.06 22.0447 60.3926 22.1885 60.6359 22.439C60.8791 22.6895 61.0131 23.0262 61.0084 23.3753Z" fill="#212121"></path>
<path d="M52.0662 28.584H54.615V31.084H52.0662V28.584Z" fill="#212121"></path>
<path d="M63.5322 28.584H66.081V31.084H63.5322V28.584Z" fill="#212121"></path>
<path d="M66.0747 38.9261H37.6509L51.8822 13.9148C52.0488 13.6205 52.1551 13.2959 52.1948 12.96C52.2345 12.6241 52.2068 12.2837 52.1134 11.9586C52.024 11.6399 51.8709 11.3427 51.6633 11.0849C51.4558 10.8271 51.1981 10.614 50.9059 10.4586C46.1641 7.93036 40.8734 6.60652 35.4997 6.6036C30.619 6.5927 25.799 7.68491 21.3997 9.7986C20.9391 10.0206 20.529 10.3349 20.1949 10.722C19.8607 11.109 19.6097 11.5605 19.4572 12.0486C18.9592 11.9439 18.4449 11.9427 17.9464 12.0453C17.4479 12.1479 16.9759 12.352 16.5597 12.6448C12.5472 15.4864 9.20883 19.1757 6.78121 23.4514C4.3536 27.7271 2.89616 32.4843 2.5122 37.3861C2.47292 37.8915 2.53713 38.3995 2.7009 38.8793C2.86467 39.359 3.12457 39.8002 3.4647 40.1761C3.12454 40.5522 2.86463 40.9937 2.70086 41.4736C2.53709 41.9535 2.47289 42.4618 2.5122 42.9673C2.89593 47.8698 4.35351 52.6278 6.78159 56.9039C9.20968 61.1801 12.5488 64.8697 16.5622 67.7111C16.9769 68.007 17.4489 68.2128 17.948 68.3153C18.447 68.4177 18.962 68.4146 19.4597 68.3061C19.613 68.7937 19.8644 69.2449 20.1985 69.6318C20.5325 70.0187 20.9422 70.3333 21.4022 70.5561C25.8052 72.659 30.6228 73.7504 35.5022 73.7504C40.3816 73.7504 45.1992 72.659 49.6022 70.5561C50.0622 70.3333 50.4719 70.0187 50.8059 69.6318C51.1399 69.2449 51.3914 68.7937 51.5447 68.3061C52.0424 68.4146 52.5574 68.4177 53.0564 68.3153C53.5555 68.2128 54.0275 68.007 54.4422 67.7111C58.6394 64.7107 62.0951 60.7904 64.5452 56.25C66.9952 51.7095 68.3748 46.6689 68.5784 41.5136C68.5927 41.1798 68.5386 40.8467 68.4196 40.5346C68.3005 40.2225 68.1189 39.938 67.8859 39.6986C67.6511 39.4551 67.3698 39.2613 67.0587 39.1286C66.7476 38.9959 66.4129 38.927 66.0747 38.9261ZM35.4997 37.6473L23.8447 17.1586C27.4479 15.2949 31.4455 14.3223 35.5022 14.3223C39.5589 14.3223 43.5564 15.2949 47.1597 17.1586L35.4997 37.6473ZM42.296 54.6473L47.1559 63.1911C43.5529 65.0546 39.5555 66.0271 35.4991 66.0271C31.4426 66.0271 27.4453 65.0546 23.8422 63.1911L28.726 54.6073L35.4997 42.7036L42.296 54.6473ZM21.8435 12.7998C21.8917 12.6374 21.9733 12.4868 22.0831 12.3576C22.1929 12.2285 22.3284 12.1237 22.481 12.0498C26.5434 10.1003 30.9937 9.09315 35.4997 9.1036C40.4545 9.1065 45.333 10.3237 49.7084 12.6486C49.7123 12.6582 49.7123 12.669 49.7084 12.6786L48.3909 14.9998C44.4244 12.8845 39.9982 11.778 35.5028 11.778C31.0075 11.778 26.5812 12.8845 22.6147 14.9998L21.9522 13.8373C21.8637 13.6812 21.8084 13.5085 21.7896 13.3299C21.7709 13.1514 21.7893 12.971 21.8435 12.7998ZM21.691 18.4248L33.3522 38.9248H10.0259C10.2203 34.8317 11.3781 30.8423 13.405 27.281C15.432 23.7197 18.2709 20.6871 21.691 18.4298V18.4248ZM18.0047 14.6748C18.3088 14.5426 18.6381 14.4782 18.9697 14.4861C19.1436 14.5248 19.3074 14.5995 19.4505 14.7055C19.5937 14.8114 19.7131 14.9462 19.8009 15.1011L20.4597 16.2573C16.6579 18.7355 13.5021 22.085 11.2546 26.0276C9.00712 29.9702 7.7327 34.3921 7.5372 38.9261H6.26095C6.08538 38.9255 5.91182 38.8887 5.75114 38.8179C5.59047 38.7472 5.44614 38.644 5.3272 38.5148C5.21088 38.3919 5.12162 38.246 5.06521 38.0865C5.0088 37.9269 4.98648 37.7573 4.9997 37.5886C5.35471 33.0509 6.70326 28.6468 8.94982 24.6883C11.1964 20.7299 14.286 17.3139 17.9997 14.6823L18.0047 14.6748ZM19.8009 65.2498C19.7127 65.4049 19.5931 65.5397 19.4497 65.6458C19.3064 65.752 19.1425 65.827 18.9685 65.8661C18.8036 65.904 18.6326 65.9066 18.4667 65.8736C18.3008 65.8406 18.1438 65.7729 18.0059 65.6748C14.2904 63.0438 11.1991 59.6276 8.9514 55.6683C6.70369 51.7091 5.35457 47.3038 4.9997 42.7648C4.98597 42.5961 5.00781 42.4264 5.06379 42.2666C5.11977 42.1068 5.20866 41.9606 5.3247 41.8373C5.4434 41.7082 5.58751 41.6051 5.74798 41.5343C5.90845 41.4635 6.08182 41.4267 6.2572 41.4261H7.5372C7.73364 45.9589 9.00838 50.3794 11.2556 54.3208C13.5028 58.2623 16.6577 61.6108 20.4585 64.0886L19.8009 65.2498ZM10.0259 41.4261H33.3522L21.691 61.9261C18.2702 59.6685 15.4308 56.6351 13.4038 53.0728C11.3768 49.5106 10.2195 45.5201 10.0259 41.4261ZM49.1622 67.5511C49.1137 67.7138 49.0316 67.8645 48.9214 67.9937C48.8112 68.1229 48.6752 68.2276 48.5222 68.3011C44.4564 70.2428 40.0078 71.2505 35.5022 71.2505C30.9966 71.2505 26.548 70.2428 22.4822 68.3011C22.3294 68.2272 22.1936 68.1224 22.0834 67.9933C21.9732 67.8642 21.8911 67.7136 21.8422 67.5511C21.789 67.3804 21.7713 67.2006 21.7903 67.0228C21.8092 66.8451 21.8643 66.673 21.9522 66.5173L22.6134 65.3548C26.5799 67.4706 31.0061 68.5773 35.5016 68.5773C39.997 68.5773 44.4233 67.4706 48.3897 65.3548L49.0522 66.5173C49.1403 66.6732 49.1955 66.8454 49.2144 67.0235C49.2333 67.2015 49.2156 67.3802 49.1622 67.5511ZM49.3134 61.9261L37.6522 41.4261H60.9785C60.7843 45.5196 59.6266 49.5095 57.5996 53.0712C55.5727 56.633 52.7336 59.666 49.3134 61.9236V61.9261ZM52.9984 65.6761C52.8605 65.7744 52.7033 65.8423 52.5371 65.8752C52.371 65.9082 52.1997 65.9055 52.0347 65.8673C51.8608 65.8279 51.697 65.7527 51.5537 65.6466C51.4104 65.5405 51.2907 65.4059 51.2022 65.2511L50.5447 64.0948C54.3459 61.6172 57.5013 58.2686 59.7488 54.3269C61.9963 50.3852 63.271 45.9643 63.4672 41.4311H66.081C65.891 46.2008 64.6137 50.8641 62.3466 55.0649C60.0794 59.2658 56.8825 62.893 52.9997 65.6698L52.9984 65.6761Z" fill="#212121"></path>
<path d="M50.1553 47.9777C49.5232 47.972 48.9036 48.1542 48.3752 48.5013C47.8469 48.8483 47.4335 49.3445 47.1877 49.9269C46.9418 50.5092 46.8745 51.1515 46.9944 51.7722C47.1142 52.3929 47.4157 52.964 47.8607 53.413C48.3056 53.862 48.874 54.1687 49.4935 54.2941C50.1131 54.4195 50.756 54.3581 51.3405 54.1175C51.9251 53.8769 52.425 53.4681 52.7768 52.9429C53.1287 52.4177 53.3165 51.7998 53.3165 51.1677C53.3195 50.3257 52.9883 49.5169 52.3957 48.9189C51.803 48.3208 50.9972 47.9823 50.1553 47.9777ZM50.1553 51.8527C50.0177 51.8584 49.8815 51.8228 49.7643 51.7505C49.6471 51.6782 49.5542 51.5725 49.4975 51.447C49.4409 51.3214 49.4232 51.1818 49.4465 51.0461C49.4699 50.9104 49.5334 50.7847 49.6288 50.6854C49.7242 50.5861 49.8471 50.5175 49.9817 50.4886C50.1164 50.4597 50.2566 50.4718 50.3844 50.5233C50.5121 50.5747 50.6215 50.6632 50.6986 50.7774C50.7756 50.8916 50.8167 51.0262 50.8165 51.1639C50.8187 51.2528 50.8033 51.3413 50.7712 51.4243C50.7391 51.5072 50.691 51.583 50.6296 51.6474C50.5681 51.7117 50.4946 51.7633 50.4132 51.7991C50.3319 51.835 50.2442 51.8545 50.1553 51.8564V51.8527Z" fill="#212121"></path>
<path d="M55.8887 44.0986H58.4375V46.5986H55.8887V44.0986Z" fill="#212121"></path>
<path d="M44.4209 44.0986H46.9697V46.5986H44.4209V44.0986Z" fill="#212121"></path>
<path d="M30.4297 58.2774C30.4369 59.0272 30.6658 59.7581 31.0876 60.378C31.5093 60.998 32.1052 61.4792 32.8 61.7611C33.4948 62.0431 34.2575 62.1131 34.992 61.9623C35.7265 61.8116 36.4 61.4468 36.9276 60.914C37.4552 60.3812 37.8133 59.7042 37.9568 58.9682C38.1003 58.2323 38.0228 57.4703 37.7341 56.7783C37.4453 56.0863 36.9583 55.4952 36.3342 55.0795C35.7102 54.6639 34.977 54.4422 34.2272 54.4424C33.2155 54.4487 32.2475 54.8559 31.5357 55.5748C30.8238 56.2937 30.4261 57.2656 30.4297 58.2774ZM35.526 58.2774C35.5188 58.5326 35.4367 58.78 35.2897 58.9888C35.1427 59.1975 34.9375 59.3584 34.6996 59.4511C34.4618 59.5439 34.2018 59.5645 33.9523 59.5104C33.7028 59.4562 33.4748 59.3298 33.2968 59.1468C33.1188 58.9638 32.9986 58.7324 32.9514 58.4815C32.9042 58.2306 32.9319 57.9713 33.0312 57.7361C33.1305 57.5009 33.2969 57.3002 33.5096 57.159C33.7223 57.0178 33.9719 56.9425 34.2272 56.9424C34.5762 56.948 34.9088 57.0916 35.1522 57.3418C35.3956 57.592 35.53 57.9284 35.526 58.2774Z" fill="#212121"></path>
<path d="M34.2275 49.2695H36.7763V51.7695H34.2275V49.2695Z" fill="#212121"></path>
<path d="M39.325 60.9072H41.8737V63.4072H39.325V60.9072Z" fill="#212121"></path>
<path d="M21.462 48.581C21.4566 47.9569 21.2666 47.3484 20.9159 46.8321C20.5652 46.3159 20.0695 45.915 19.4913 45.68C18.9131 45.4449 18.2783 45.3863 17.6669 45.5115C17.0555 45.6367 16.4948 45.94 16.0555 46.3833C15.6161 46.8266 15.3179 47.3901 15.1983 48.0026C15.0786 48.6151 15.143 49.2494 15.3832 49.8254C15.6235 50.4014 16.0289 50.8934 16.5483 51.2395C17.0677 51.5855 17.6779 51.77 18.302 51.7698C19.1437 51.7651 19.9491 51.4268 20.5415 50.8289C21.134 50.2311 21.465 49.4227 21.462 48.581ZM18.302 49.2698C18.1644 49.2758 18.0281 49.2404 17.9107 49.1683C17.7934 49.0961 17.7003 48.9905 17.6434 48.865C17.5866 48.7395 17.5687 48.5998 17.5919 48.464C17.6152 48.3282 17.6785 48.2025 17.7738 48.103C17.8692 48.0035 17.9921 47.9349 18.1268 47.9059C18.2614 47.8769 18.4017 47.8889 18.5296 47.9403C18.6574 47.9917 18.7669 48.0802 18.8439 48.1944C18.921 48.3086 18.9621 48.4432 18.962 48.581C18.9654 48.7597 18.8978 48.9325 18.7742 49.0616C18.6505 49.1907 18.4807 49.2655 18.302 49.2698Z" fill="#212121"></path>
<path d="M25.3096 44.0986H27.8583V46.5986H25.3096V44.0986Z" fill="#212121"></path>
<path d="M18.9385 54.4424H21.4872V56.9424H18.9385V54.4424Z" fill="#212121"></path>
<path d="M22.7617 36.2504C23.522 36.2579 24.2673 36.0392 24.9031 35.6222C25.5389 35.2052 26.0364 34.6087 26.3325 33.9084C26.6286 33.2081 26.71 32.4356 26.5662 31.689C26.4225 30.9424 26.0601 30.2554 25.5251 29.7151C24.9901 29.1748 24.3066 28.8057 23.5615 28.6546C22.8163 28.5035 22.0431 28.5773 21.3399 28.8665C20.6367 29.1557 20.0354 29.6474 19.6121 30.279C19.1889 30.9107 18.963 31.6539 18.9629 32.4142C18.9593 33.4263 19.3571 34.3985 20.0692 35.1176C20.7814 35.8368 21.7496 36.2442 22.7617 36.2504ZM22.7617 31.0792C23.0275 31.0717 23.2895 31.1437 23.5141 31.286C23.7388 31.4283 23.9159 31.6344 24.0227 31.8778C24.1296 32.1213 24.1614 32.3912 24.1141 32.6528C24.0667 32.9145 23.9424 33.1561 23.757 33.3467C23.5715 33.5373 23.3335 33.6682 23.0732 33.7228C22.8129 33.7773 22.5423 33.7529 22.296 33.6528C22.0496 33.5527 21.8388 33.3813 21.6904 33.1607C21.542 32.94 21.4628 32.6801 21.4629 32.4142C21.4599 32.0659 21.5948 31.7306 21.8381 31.4814C22.0814 31.2323 22.4134 31.0895 22.7617 31.0842V31.0792Z" fill="#212121"></path>
<path d="M20.2129 23.4111H22.7616V25.9111H20.2129V23.4111Z" fill="#212121"></path>
<path d="M13.8428 31.1689H16.3915V33.6689H13.8428V31.1689Z" fill="#212121"></path>
<path d="M34.25 20.1363C34.2557 20.7603 34.4459 21.3686 34.7967 21.8847C35.1475 22.4008 35.6432 22.8015 36.2213 23.0363C36.7994 23.2712 37.4341 23.3297 38.0454 23.2045C38.6567 23.0793 39.2173 22.776 39.6566 22.3327C40.0958 21.8895 40.394 21.3262 40.5137 20.7138C40.6334 20.1013 40.5691 19.4672 40.329 18.8912C40.0889 18.3153 39.6837 17.8232 39.1645 17.4771C38.6453 17.131 38.0353 16.9463 37.4113 16.9463C36.5692 16.9506 35.7632 17.289 35.1705 17.8871C34.5778 18.4852 34.2467 19.2942 34.25 20.1363ZM37.4113 19.4463C37.5488 19.4406 37.6849 19.4761 37.8021 19.5483C37.9193 19.6206 38.0122 19.7262 38.0689 19.8517C38.1255 19.9772 38.1433 20.1167 38.1201 20.2524C38.0968 20.3881 38.0334 20.5137 37.9382 20.6131C37.8429 20.7125 37.7201 20.7811 37.5855 20.8102C37.451 20.8392 37.3108 20.8273 37.183 20.7761C37.0553 20.7248 36.9458 20.6365 36.8686 20.5225C36.7914 20.4084 36.7501 20.274 36.75 20.1363C36.7467 19.9568 36.8147 19.7833 36.9391 19.654C37.0636 19.5246 37.2343 19.4499 37.4138 19.4463H37.4113Z" fill="#212121"></path>
<path d="M34.2275 27.29H36.7763V29.79H34.2275V27.29Z" fill="#212121"></path>
<path d="M29.1309 18.2402H31.6796V20.7402H29.1309V18.2402Z" fill="#212121"></path>
</svg>