<svg class="decor-part" width="110" height="148" viewBox="0 0 110 148" fill="none" xmlns="http://www.w3.org/2000/svg">
                                                  <g opacity="0.7">
                                                  <path d="M6.50409 63.2835C8.21681 61.9023 10.3163 61.0183 12.471 60.5211C21.2004 58.5321 31.09 62.0128 39.0458 57.9243C45.6757 54.6094 48.9354 46.9297 50.3719 39.6369C51.7532 32.2887 51.8084 24.7196 54.2946 17.7029C55.0681 15.6035 56.2283 13.3383 58.2173 12.3438C61.698 10.631 65.7312 13.3383 68.3831 16.2112C71.0904 19.0289 73.9081 22.3991 77.7755 22.5096C83.0242 22.5649 86.0076 16.7085 87.8861 11.8465C89.7646 6.9846 93.411 1.23869 98.6044 2.01218C102.803 2.67517 104.958 7.15035 106.229 11.294C102.14 21.1284 101.146 32.1782 103.577 42.5651C105.179 49.5817 108.328 56.3774 108.052 63.615C107.721 71.0184 103.411 78.0903 97.0022 81.7367C93.1348 83.9467 88.6596 84.9964 85.3446 87.8694C80.096 92.3446 78.9357 100.024 79.433 106.93C79.9302 113.836 81.7534 120.632 80.9799 127.483C80.2065 134.334 75.897 141.516 69.1014 142.566C63.0792 143.505 57.6096 139.472 52.3609 136.323C47.1122 133.174 40.0403 130.853 35.2889 134.721C31.4215 137.815 30.3717 144.168 25.6203 145.494C21.7529 146.599 17.6644 143.063 16.8357 139.141C15.9517 135.163 17.4434 131.129 19.1561 127.428C20.9241 123.781 23.0236 120.135 23.4656 116.157C24.2943 109.472 20.5374 103.063 16.2279 97.8695C11.9185 92.6761 6.78032 87.9799 3.90737 81.9025C1.14491 75.8251 1.31067 67.5929 6.50409 63.2835Z" fill="#FFDB5C"></path>
                                                  <path d="M5.67535 62.4548C11.6423 57.7033 19.7639 58.7531 26.891 58.9188C30.2612 58.9741 33.5762 58.8636 36.7806 57.7586C40.4271 56.4326 43.3 53.7806 45.289 50.4657C49.6537 43.2281 49.8194 34.6644 51.0902 26.5428C51.4217 24.4433 51.8084 22.3991 52.3609 20.2997C52.9134 18.3107 53.5211 16.2665 54.6261 14.4985C55.6758 12.7858 57.2781 11.294 59.3223 10.9073C60.9245 10.6311 62.4715 10.852 63.908 11.515C67.1677 12.8963 69.3224 15.6035 71.6981 17.9792C74.0186 20.2997 77.1678 22.4544 80.4827 20.6864C83.5214 19.0842 85.2341 15.493 86.4496 12.5095C87.7756 9.30507 89.1016 6.21112 91.5325 3.66966C93.9635 1.23869 97.3337 -0.0320381 100.593 1.34919C104.24 2.89617 106.063 7.03985 107.279 10.5758C107.5 11.2388 107.5 11.5703 107.223 12.178C107.002 12.62 106.892 13.062 106.671 13.504C106.339 14.388 106.008 15.3825 105.732 16.3217C105.179 18.0897 104.737 19.9682 104.35 21.7914C103.632 25.6036 103.356 29.4158 103.522 33.228C103.632 37.0954 104.295 40.8523 105.29 44.6093C106.339 48.4215 107.665 52.1784 108.494 55.9906C109.323 59.8028 109.599 63.7255 108.715 67.5929C107.886 71.2946 106.118 74.8306 103.687 77.7035C101.146 80.7975 97.8309 82.897 94.1845 84.5544C90.4828 86.1567 86.5601 87.6484 84.0187 91.0738C79.212 97.538 80.317 106.267 81.3114 113.671C82.3612 121.35 83.3557 129.527 79.1567 136.599C77.2783 139.693 74.5711 142.29 71.0904 143.45C67.6097 144.61 63.9632 143.947 60.7035 142.566C54.4604 139.969 49.1564 134.555 42.1398 134.058C40.5928 133.947 39.1011 134.113 37.7199 134.721C36.1729 135.384 35.0127 136.544 34.0734 137.925C32.0292 140.853 30.5375 144.776 27.0568 146.378C23.9628 147.815 20.5374 146.71 18.2169 144.279C15.6754 141.627 15.0677 138.036 15.5649 134.555C16.6699 126.82 23.2998 120.632 22.3053 112.455C21.3109 104.61 15.2335 98.643 10.3163 93.0628C7.38807 89.8031 4.51512 86.2672 2.69189 82.234C1.25541 78.919 0.537177 75.2173 0.923914 71.6261C1.53166 68.0349 2.96814 64.72 5.67535 62.4548C6.83558 61.5155 8.49305 63.173 7.33282 64.1122C3.85212 67.0404 2.85764 71.6814 3.52063 75.9908C4.29411 81.2947 7.38808 85.7147 10.8135 89.6926C17.0014 96.9855 25.6203 104.831 24.9021 115.273C24.5153 120.632 21.4766 125.107 19.4876 129.969C17.8854 133.892 16.8357 138.92 19.9849 142.4C21.2004 143.726 22.8578 144.721 24.7363 144.5C26.9463 144.279 28.438 142.456 29.5982 140.632C30.9242 138.643 32.0292 136.433 33.7419 134.61C35.1784 133.063 37.1674 132.069 39.2668 131.627C43.5763 130.853 47.9962 132.4 51.6979 134.444C55.6758 136.544 59.3223 139.527 63.687 140.798C65.7312 141.406 67.9412 141.627 70.0406 141.074C72.1401 140.522 73.9633 139.251 75.455 137.649C78.6595 134.113 80.0407 129.306 80.096 124.61C80.317 114.444 76.118 104.168 79.7645 94.1125C80.5932 91.7368 81.8639 89.5821 83.5767 87.7589C85.3999 85.8252 87.7756 84.5544 90.2066 83.4494C92.6375 82.3445 95.2342 81.4052 97.4995 79.9135C99.4332 78.6428 101.201 76.9853 102.638 75.1068C105.566 71.1841 107.113 66.4327 107.002 61.5708C106.837 56.5431 105.069 51.6812 103.687 46.8745C102.306 42.0678 101.367 37.2611 101.201 32.2335C101.091 27.261 101.643 22.2886 102.914 17.4819C103.522 15.1062 104.35 12.841 105.29 10.5758C105.234 10.852 105.234 11.1835 105.179 11.4598C103.908 7.5371 101.035 1.2387 95.842 3.33816C93.9083 4.0564 92.4718 5.82437 91.422 7.5371C90.1513 9.47082 89.3226 11.6255 88.4386 13.725C86.7259 17.7582 83.9634 22.7306 79.1567 23.4489C73.8528 24.2223 70.4826 19.7472 67.1677 16.4322C65.7312 14.9957 63.9632 13.6698 61.9742 13.1173C59.6538 12.5648 57.7753 13.6698 56.5598 15.6587C55.1233 18.0897 54.5156 21.0179 53.9631 23.7804C53.4106 26.4323 53.0791 29.1948 52.8029 31.902C52.1399 37.4269 51.3664 42.9518 49.1012 48.2005C46.9465 53.1177 43.3553 57.4823 38.3276 59.5266C29.5982 63.0625 19.8191 59.0293 11.0345 62.068C9.81904 62.51 8.54829 63.1178 7.49856 63.9465C7.00132 64.3332 6.33833 64.4437 5.84109 63.9465C5.2886 63.7255 5.23335 62.8968 5.67535 62.4548Z" fill="#FFDB5C"></path>
                                                  </g>
                                                </svg>