<svg class="decor-part-2" width="149" height="150" viewBox="0 0 149 150" fill="none" xmlns="http://www.w3.org/2000/svg">
                                                  <g opacity="0.7">
                                                  <path fill-rule="evenodd" clip-rule="evenodd" d="M96.2579 132.786C92.7045 128.508 87.4751 125.915 83.9672 121.701C83.0834 120.604 82.2808 119.352 82.2318 117.945C82.1354 115.801 83.9383 114.026 85.7885 112.985C90.2603 110.639 95.7205 111.143 100.566 112.665C105.365 114.124 109.976 116.392 114.974 117.324C125.234 119.287 136.549 114.816 142.649 106.298C143.436 105.252 144.15 103.969 143.974 102.653C143.826 101.509 143.015 100.648 142.314 99.805C136.275 93.2718 128.929 87.1962 126.591 78.5825C124.326 70.2048 127.4 61.3592 131.713 53.8364C136.026 46.3137 141.558 39.5507 144.944 31.5399C148.22 23.5112 149.094 13.7448 144.035 6.70043C142.531 4.60617 140.473 2.81307 138.037 1.96558C133.737 0.532521 129.01 2.38858 124.992 4.69696C119.913 7.67114 115.227 11.3255 111.169 15.5868C105.272 21.8421 99.7609 29.8402 91.2805 31.0248C79.8675 32.6802 70.6999 20.9869 59.2782 19.2816C50.9732 18.0315 41.7318 23.5143 40.5452 31.7737C39.1779 40.4515 46.1186 47.9724 48.8378 56.3125C51.7491 65.1881 47.829 77.1423 38.6326 78.9373C31.9148 80.2989 25.1455 75.8295 18.3267 76.7827C12.4794 77.6153 7.85014 82.2868 5.19341 87.5618C1.31649 95.1561 0.795625 104.477 4.51236 112.196C8.18352 119.853 16.2273 125.427 24.729 125.478L18.0567 126.903C25.6844 126.138 33.3082 130.86 40.7974 129.233C44.0472 128.534 47.0398 126.674 50.3272 126.429C56.8564 125.876 62.057 131.376 66.9368 135.76C72.4172 140.578 78.8397 144.43 85.6949 147.01C89.0135 148.282 92.9488 149.208 96.0048 147.301C100.893 144.464 99.8292 136.955 96.2579 132.786Z" fill="#FFDB5C"></path>
                                                  <path d="M97.2098 132.103C94.2034 128.586 90.2825 126.207 86.9229 123.137C85.5117 121.842 83.5634 120.067 83.3856 118.078C83.2177 116.371 84.6675 115.041 85.9824 114.193C89.3557 112.059 93.6978 112.211 97.4329 112.991C101.604 113.844 105.505 115.659 109.542 116.993C113.36 118.291 117.267 119.044 121.273 118.861C124.996 118.688 128.672 117.779 132.065 116.208C135.458 114.637 138.614 112.467 141.186 109.754C142.4 108.497 143.65 107.022 144.463 105.476C145.439 103.621 145.198 101.678 143.904 100.01C142.564 98.2784 140.862 96.7115 139.332 95.1168C137.756 93.4587 136.071 91.7827 134.559 90.0791C131.644 86.6896 128.955 82.9453 127.717 78.5433C125.527 71.0737 128.113 63.1557 131.502 56.4892C135.587 48.6491 141.355 41.8129 145.131 33.8102C148.401 26.8442 150.088 18.6107 147.507 11.133C146.271 7.40312 143.873 3.93056 140.398 1.90497C136.969 -0.0571505 132.9 0.171371 129.325 1.48857C125.278 2.95231 121.506 5.46896 118.125 7.99368C114.299 10.8375 111.01 14.1612 107.859 17.6754C102.706 23.4927 96.6933 30.7928 88.0173 30.0977C81.6035 29.6057 76.107 25.5689 70.6676 22.5493C67.7932 20.9581 64.8376 19.5216 61.6656 18.7214C58.3389 17.8399 54.9148 17.8942 51.5657 18.8565C44.9765 20.7992 39.4685 26.3903 39.1507 33.4486C38.8525 41.07 43.8922 47.5512 46.7072 54.2835C48.1236 57.5951 48.7865 61.063 48.4779 64.6516C48.1416 68.0677 46.9151 71.4497 44.6875 74.1077C42.5235 76.7201 39.4478 78.0632 36.1327 78.1354C32.6452 78.2352 29.1997 77.0543 25.8552 76.2818C22.2291 75.5191 18.468 75.2382 14.9383 76.6189C11.0458 78.164 7.85648 81.2241 5.6128 84.6632C1.47855 91.0956 -0.189843 99.22 1.43722 106.709C3.01871 114.135 7.7312 120.563 14.4255 124.124C17.6725 125.832 21.2172 126.75 24.8594 126.731C24.7665 125.932 24.7192 125.196 24.6263 124.397C22.3659 124.866 20.151 125.399 17.954 125.822C16.5106 126.09 16.6525 128.296 18.1871 128.156C24.6708 127.54 30.8735 130.685 37.3409 130.85C39.0758 130.854 40.7374 130.623 42.3891 130.11C44.2134 129.569 45.9644 128.793 47.8522 128.207C51.0922 127.226 54.2089 127.681 57.1288 129.336C59.9575 130.864 62.3339 133.101 64.6648 135.275C67.5962 137.883 70.6091 140.337 73.848 142.436C77.2416 144.616 80.9069 146.505 84.7528 147.975C87.9623 149.23 91.4891 150.256 94.9017 149.248C102.453 146.903 101.237 136.906 97.2098 132.103C96.2804 130.942 94.3765 132.31 95.3059 133.47C98.3401 137.159 100.215 145.528 93.8517 147.116C90.5839 147.924 86.974 146.38 83.9825 145.162C80.4182 143.681 77.0344 141.783 73.8134 139.575C70.8381 137.575 68.0889 135.221 65.4032 132.821C63.0545 130.756 60.6602 128.628 57.877 127.163C55.0938 125.699 52.013 125.026 48.89 125.633C45.3586 126.342 42.2391 128.294 38.5611 128.53C35.1647 128.757 31.7746 127.921 28.4936 127.103C25.04 126.313 21.523 125.568 17.9996 125.886C18.0925 126.685 18.1398 127.421 18.2327 128.22C20.4932 127.751 22.708 127.218 24.905 126.794C26.412 126.482 26.2342 124.493 24.6719 124.461C17.4053 124.389 10.5092 120.01 6.69667 113.898C2.79303 107.659 2.27252 99.5679 4.46193 92.7046C6.76843 85.4686 12.3802 77.8789 20.7095 77.9573C27.5854 78.0212 34.2814 82.2547 41.1048 79.5667C47.6288 76.9975 50.78 69.7321 50.9172 63.0921C51.0077 59.4678 50.1088 56.0731 48.6468 52.698C47.1392 49.2595 45.2053 46.031 43.6977 42.5924C42.309 39.4533 41.1464 35.9594 41.6096 32.4522C42.0192 29.2721 43.6738 26.3522 46.0756 24.3387C48.6222 22.1249 51.8069 20.7996 55.1756 20.4004C58.3718 20.0288 61.4983 20.7655 64.3807 21.9661C70.3635 24.403 75.4695 28.4317 81.4068 30.8051C84.3071 31.8966 87.3879 32.5699 90.5028 32.3529C94.5893 32.0154 98.2084 30.0895 101.308 27.5746C104.662 24.8774 107.387 21.5732 110.204 18.396C113.419 14.8362 116.862 11.5938 120.733 8.81348C124.034 6.44337 127.597 4.17249 131.527 3.08146C135.331 2.08157 138.939 2.95329 141.662 5.80736C146.954 11.4342 147.058 20.0173 145.023 26.9619C142.664 35.1971 137.205 42.196 132.728 49.3559C128.639 55.8517 124.925 63.1368 124.482 70.9583C124.229 74.8919 124.929 78.8139 126.574 82.4428C128.474 86.5615 131.417 90.1235 134.459 93.4218C136.034 95.0799 137.564 96.6746 139.14 98.3327C139.86 99.0665 140.625 99.8639 141.281 100.643C141.891 101.359 142.656 102.157 142.559 103.092C142.463 104.7 140.85 106.339 139.827 107.459C138.659 108.779 137.336 110.018 135.876 111.066C130.02 115.369 122.35 117.414 115.125 116.061C107.074 114.629 99.8312 109.634 91.4125 110.101C87.798 110.292 83.5506 111.61 81.5607 114.867C79.2455 118.743 82.5613 122.422 85.3381 124.949C88.5609 127.829 92.2816 130.063 95.0423 133.371C96.2989 134.585 98.2027 133.217 97.2098 132.103Z" fill="#FFDB5C"></path>
                                                  </g>
                                                </svg>