<?xml version="1.0" encoding="iso-8859-1"?>
<!-- Generator: Adobe Illustrator 18.0.0, SVG Export Plug-In . SVG Version: 6.00 Build 0)  -->
<!DOCTYPE svg PUBLIC "-//W3C//DTD SVG 1.1//EN" "http://www.w3.org/Graphics/SVG/1.1/DTD/svg11.dtd">
<!-- License: CC0. Made by SVG Repo: https://www.svgrepo.com/svg/125522/sauces -->
<svg version="1.1" id="Capa_1" xmlns="http://www.w3.org/2000/svg" xmlns:xlink="http://www.w3.org/1999/xlink" x="0px" y="0px"
	 viewBox="0 0 297 297" style="enable-background:new 0 0 297 297;" xml:space="preserve">
<g>
	<path d="M264.235,65.689V42.826c0-5.451-4.419-9.871-9.87-9.871h-25.497l-6.06-25.377C221.747,3.131,217.771,0,213.21,0
		c-0.047,0-0.096,0-0.142,0.002c-4.62,0.064-8.577,3.326-9.521,7.85l-5.246,25.104h-25.37c-5.451,0-9.871,4.42-9.871,9.871v22.863
		c-4.626,0.818-8.144,4.85-8.144,9.711v211.729c0,5.451,4.42,9.871,9.871,9.871h97.722c5.451,0,9.87-4.42,9.87-9.871V75.4
		C272.379,70.539,268.862,66.508,264.235,65.689z M182.801,52.697h61.693v12.832h-61.693V52.697z M252.638,277.258h-77.979V85.27
		h77.979V277.258z"/>
	<path d="M133.94,65.689V42.826c0-5.451-4.42-9.871-9.871-9.871H99.46L93.399,7.578C92.337,3.131,88.361,0,83.801,0
		c-0.048,0-0.096,0-0.143,0.002c-4.62,0.064-8.576,3.326-9.522,7.85l-5.244,25.104H42.635c-5.451,0-9.87,4.42-9.87,9.871v22.863
		c-4.626,0.818-8.143,4.85-8.143,9.711v211.729c0,5.451,4.419,9.871,9.87,9.871h97.722c5.451,0,9.871-4.42,9.871-9.871V75.4
		C142.084,70.539,138.566,66.508,133.94,65.689z M52.506,52.697h61.693v12.832H52.506V52.697z M122.342,277.258H44.362V85.27h77.979
		V277.258z"/>
</g>
</svg>
